<?xml version="1.0" encoding="utf-8"?><svg width="60" height="60" viewBox="0 0 60 60" fill="none" xmlns="http://www.w3.org/2000/svg">
<circle cx="30" cy="30" r="30" fill="#F2F9FF"/>
<path fill-rule="evenodd" clip-rule="evenodd" d="M36.5827 18.6313C37.4238 17.7902 38.7876 17.7888 39.6288 18.6317L41.3687 20.3716C42.2099 21.2127 42.2109 22.5769 41.3679 23.4181L39.1619 25.624L39.1557 25.6302L30.0862 34.6995C29.9131 34.8726 29.6783 34.9699 29.4335 34.9699H25.9529C25.4431 34.9699 25.0298 34.5566 25.0298 34.0468V30.5662C25.0298 30.3214 25.1271 30.0867 25.3002 29.9135L34.3759 20.838L34.382 20.8319L36.5827 18.6313ZM37.8881 19.9367C38.0093 19.8155 38.2033 19.8167 38.3221 19.9358L40.0633 21.677C40.1845 21.7982 40.1824 21.993 40.0633 22.1118L38.5092 23.6659L36.334 21.4907L37.8881 19.9367ZM35.0286 22.7961L26.876 30.9486V33.1237H29.0511L37.2038 24.9713L35.0286 22.7961Z" fill="#0085FF"/>
<path d="M30 19.8465C24.3916 19.8465 19.8462 24.3919 19.8462 30.0002C19.8462 35.6084 24.3916 40.1539 30 40.1539C35.6084 40.1539 40.1538 35.6084 40.1538 30.0002V28.7694C40.1538 28.2596 40.5671 27.8464 41.0769 27.8464C41.5867 27.8464 42 28.2596 42 28.7694V30.0002C42 36.628 36.628 42 30 42C23.372 42 18 36.628 18 30.0002C18 23.3723 23.372 18.0004 30 18.0004H31.2308C31.7406 18.0004 32.1538 18.4136 32.1538 18.9234C32.1538 19.4332 31.7406 19.8465 31.2308 19.8465H30Z" fill="#0085FF"/>
</svg>
