<?xml version="1.0" encoding="utf-8"?><svg width="60" height="60" viewBox="0 0 60 60" fill="none" xmlns="http://www.w3.org/2000/svg">
<circle cx="30" cy="30" r="30" fill="#F2F9FF"/>
<g clip-path="url(#clip0)">
<path fill-rule="evenodd" clip-rule="evenodd" d="M35 16.5625C35.5178 16.5625 35.9375 16.9822 35.9375 17.5V22.5C35.9375 23.0178 35.5178 23.4375 35 23.4375C34.4822 23.4375 34.0625 23.0178 34.0625 22.5V17.5C34.0625 16.9822 34.4822 16.5625 35 16.5625Z" fill="#0085FF"/>
<path fill-rule="evenodd" clip-rule="evenodd" d="M25 16.5625C25.5178 16.5625 25.9375 16.9822 25.9375 17.5V22.5C25.9375 23.0178 25.5178 23.4375 25 23.4375C24.4822 23.4375 24.0625 23.0178 24.0625 22.5V17.5C24.0625 16.9822 24.4822 16.5625 25 16.5625Z" fill="#0085FF"/>
<path fill-rule="evenodd" clip-rule="evenodd" d="M17.8125 26.25C17.8125 25.7322 18.2322 25.3125 18.75 25.3125H41.25C41.7678 25.3125 42.1875 25.7322 42.1875 26.25C42.1875 26.7678 41.7678 27.1875 41.25 27.1875H18.75C18.2322 27.1875 17.8125 26.7678 17.8125 26.25Z" fill="#0085FF"/>
<path fill-rule="evenodd" clip-rule="evenodd" d="M17.8125 22.5C17.8125 20.601 19.351 19.0625 21.25 19.0625H38.75C40.649 19.0625 42.1875 20.601 42.1875 22.5V38.75C42.1875 40.649 40.649 42.1875 38.75 42.1875H21.25C19.351 42.1875 17.8125 40.649 17.8125 38.75V22.5ZM21.25 20.9375C20.3865 20.9375 19.6875 21.6365 19.6875 22.5V38.75C19.6875 39.6135 20.3865 40.3125 21.25 40.3125H38.75C39.6135 40.3125 40.3125 39.6135 40.3125 38.75V22.5C40.3125 21.6365 39.6135 20.9375 38.75 20.9375H21.25Z" fill="#0085FF"/>
</g>
<defs>
<clipPath id="clip0">
<rect width="30" height="30" fill="white" transform="translate(15 15)"/>
</clipPath>
</defs>
</svg>
