<svg width="55" height="54" viewBox="0 0 55 54" fill="none" xmlns="http://www.w3.org/2000/svg">
<path d="M54.3334 27C54.3334 41.9117 42.2451 54 27.3334 54C12.4217 54 0.333374 41.9117 0.333374 27C0.333374 12.0883 12.4217 0 27.3334 0C42.2451 0 54.3334 12.0883 54.3334 27Z" fill="#F2F9FF"/>
<path fill-rule="evenodd" clip-rule="evenodd" d="M25.848 30.2823H41.8422C43.2196 30.2823 44.4334 29.2169 44.4334 27.786V16.8973C44.4334 15.4668 43.22 14.4 41.8412 14.4H25.8491C24.4703 14.4 23.2569 15.4668 23.2569 16.8973V27.786C23.2569 29.2169 24.4706 30.2823 25.848 30.2823ZM25.8491 16.043C25.6433 16.043 25.4631 16.0967 25.3159 16.1848L33.0678 21.7618C33.3006 21.9292 33.5726 22.0139 33.8451 22.0161C34.1177 22.0139 34.3897 21.9292 34.6225 21.7618L42.3744 16.1848C42.2272 16.0967 42.0469 16.043 41.8412 16.043H25.8491ZM33.8451 23.659C33.2413 23.6568 32.6379 23.4704 32.1221 23.0996L24.8859 17.8935V27.786C24.8859 28.206 25.2642 28.6393 25.848 28.6393H41.8422C42.4261 28.6393 42.8044 28.206 42.8044 27.786V17.8935L35.5681 23.0996C35.0523 23.4704 34.449 23.6568 33.8451 23.659Z" fill="#0085FF"/>
<path fill-rule="evenodd" clip-rule="evenodd" d="M24.3156 22.6588H14.3274C13.2815 22.6588 12.4875 23.5648 12.4875 24.6105V33.4226H12.2058C11.1167 33.4226 10.2333 34.3405 10.2333 35.472V37.5506C10.2333 38.6821 11.1167 39.5999 12.2058 39.5999H31.5549C32.644 39.5999 33.5274 38.6821 33.5274 37.5506V35.472C33.5274 34.3405 32.644 33.4226 31.5549 33.4226H31.2731V29.7529H29.5824V33.4226H14.1782V24.6105C14.1782 24.4711 14.2754 24.4153 14.3274 24.4153H24.3156V22.6588ZM11.924 35.472C11.924 35.3106 12.0505 35.1792 12.2058 35.1792H31.5549C31.7102 35.1792 31.8367 35.3106 31.8367 35.472V37.5506C31.8367 37.712 31.7102 37.8434 31.5549 37.8434L17.8414 37.8434L17.8401 37.8434H12.2058C12.0505 37.8434 11.924 37.712 11.924 37.5506V35.472Z" fill="#0085FF"/>
</svg>
