<svg width="55" height="54" viewBox="0 0 55 54" fill="none" xmlns="http://www.w3.org/2000/svg">
<path d="M54.6667 27C54.6667 41.9117 42.5784 54 27.6667 54C12.755 54 0.666687 41.9117 0.666687 27C0.666687 12.0883 12.755 0 27.6667 0C42.5784 0 54.6667 12.0883 54.6667 27Z" fill="#F2F9FF"/>
<path d="M27.8674 14.4C21.4406 14.4 16.1515 19.2131 15.3751 25.426C15.3012 26.0179 15.721 26.5577 16.3129 26.6316C16.9047 26.7056 17.4445 26.2858 17.5184 25.6939C18.1619 20.5452 22.5467 16.56 27.8674 16.56C31.6538 16.56 34.9679 18.5783 36.7979 21.6H33.7267C33.1302 21.6 32.6467 22.0835 32.6467 22.68C32.6467 23.2764 33.1302 23.76 33.7267 23.76H39.4867C40.0831 23.76 40.5667 23.2764 40.5667 22.68V16.92C40.5667 16.3235 40.0831 15.84 39.4867 15.84C38.8902 15.84 38.4067 16.3235 38.4067 16.92V20.1024C36.158 16.6713 32.2812 14.4 27.8674 14.4Z" fill="#0085FF"/>
<path d="M40.5576 28.574C40.6315 27.9821 40.2117 27.4424 39.6198 27.3684C39.028 27.2945 38.4882 27.7143 38.4142 28.3062C37.7708 33.4548 33.386 37.4401 28.0653 37.4401C24.2789 37.4401 20.9647 35.4217 19.1347 32.4H22.2067C22.8031 32.4 23.2867 31.9164 23.2867 31.32C23.2867 30.7235 22.8031 30.24 22.2067 30.24H16.4467C15.8502 30.24 15.3667 30.7235 15.3667 31.32V37.08C15.3667 37.6764 15.8502 38.16 16.4467 38.16C17.0431 38.16 17.5267 37.6764 17.5267 37.08V33.8986C19.7754 37.3292 23.6519 39.6001 28.0653 39.6001C34.4921 39.6001 39.7811 34.7869 40.5576 28.574Z" fill="#0085FF"/>
<path fill-rule="evenodd" clip-rule="evenodd" d="M27.8674 14.49C21.4867 14.49 16.2353 19.2686 15.4644 25.4372C15.3966 25.9798 15.7814 26.4746 16.324 26.5424C16.8665 26.6102 17.3613 26.2253 17.4291 25.6828C18.0781 20.4897 22.5006 16.47 27.8674 16.47C31.6865 16.47 35.0292 18.5059 36.8748 21.5534C36.8917 21.5812 36.8922 21.6159 36.8763 21.6442C36.8603 21.6725 36.8303 21.69 36.7978 21.69H33.7266C33.1799 21.69 32.7366 22.1332 32.7366 22.68C32.7366 23.2268 33.1799 23.67 33.7266 23.67H39.4866C40.0334 23.67 40.4766 23.2268 40.4766 22.68V16.92C40.4766 16.3732 40.0334 15.93 39.4866 15.93C38.9399 15.93 38.4966 16.3732 38.4966 16.92V20.1025C38.4966 20.1423 38.4705 20.1773 38.4324 20.1887C38.3942 20.2001 38.3532 20.1851 38.3313 20.1518C36.0986 16.7449 32.2495 14.49 27.8674 14.49ZM15.2858 25.4149C16.0677 19.1577 21.3945 14.31 27.8674 14.31C32.2065 14.31 36.0303 16.4897 38.3166 19.8073V16.92C38.3166 16.2738 38.8404 15.75 39.4866 15.75C40.1328 15.75 40.6566 16.2738 40.6566 16.92V22.68C40.6566 23.3262 40.1328 23.85 39.4866 23.85H33.7266C33.0804 23.85 32.5566 23.3262 32.5566 22.68C32.5566 22.0338 33.0804 21.51 33.7266 21.51H36.6367C34.8059 18.5901 31.5636 16.65 27.8674 16.65C22.5927 16.65 18.2456 20.6008 17.6077 25.7051C17.5276 26.3463 16.9428 26.8011 16.3017 26.721C15.6605 26.6408 15.2056 26.0561 15.2858 25.4149ZM39.6086 27.4578C39.0661 27.39 38.5713 27.7748 38.5035 28.3174C37.8545 33.5104 33.432 37.5301 28.0652 37.5301C24.246 37.5301 20.9033 35.4941 19.0577 32.4466C19.0409 32.4188 19.0403 32.3841 19.0563 32.3558C19.0722 32.3275 19.1022 32.31 19.1347 32.31H22.2066C22.7534 32.31 23.1966 31.8668 23.1966 31.32C23.1966 30.7732 22.7534 30.33 22.2066 30.33H16.4466C15.8999 30.33 15.4566 30.7732 15.4566 31.32V37.08C15.4566 37.6268 15.8999 38.07 16.4466 38.07C16.9934 38.07 17.4366 37.6268 17.4366 37.08V33.8986C17.4366 33.8588 17.4627 33.8238 17.5009 33.8124C17.539 33.801 17.5801 33.816 17.6019 33.8493C19.8348 37.2556 23.6835 39.5101 28.0652 39.5101C34.4459 39.5101 39.6973 34.7315 40.4682 28.5629C40.536 28.0203 40.1512 27.5256 39.6086 27.4578ZM38.3249 28.295C38.405 27.6538 38.9898 27.199 39.6309 27.2792C40.2721 27.3593 40.727 27.944 40.6468 28.5852C39.8649 34.8425 34.5381 39.6901 28.0652 39.6901C23.7265 39.6901 19.903 37.5109 17.6166 34.1938V37.08C17.6166 37.7262 17.0928 38.25 16.4466 38.25C15.8004 38.25 15.2766 37.7262 15.2766 37.08V31.32C15.2766 30.6738 15.8004 30.15 16.4466 30.15H22.2066C22.8528 30.15 23.3766 30.6738 23.3766 31.32C23.3766 31.9662 22.8528 32.49 22.2066 32.49H19.2959C21.1266 35.41 24.369 37.3501 28.0652 37.3501C33.3399 37.3501 37.687 33.3993 38.3249 28.295Z" fill="#0085FF"/>
</svg>
