<svg width="54" height="54" viewBox="0 0 54 54" fill="none" xmlns="http://www.w3.org/2000/svg">
<path d="M54 27C54 41.9117 41.9117 54 27 54C12.0883 54 0 41.9117 0 27C0 12.0883 12.0883 0 27 0C41.9117 0 54 12.0883 54 27Z" fill="#F2F9FF"/>
<path fill-rule="evenodd" clip-rule="evenodd" d="M13.8351 18.9235C13.8351 16.1768 16.0279 13.9501 18.7328 13.9501C21.4377 13.9501 23.6304 16.1768 23.6304 18.9235C23.6304 21.6702 21.4377 23.8968 18.7328 23.8968C16.0279 23.8968 13.8351 21.6702 13.8351 18.9235ZM18.7328 16.2455C17.2763 16.2455 16.0956 17.4445 16.0956 18.9235C16.0956 20.4025 17.2763 21.6014 18.7328 21.6014C20.1893 21.6014 21.37 20.4025 21.37 18.9235C21.37 17.4445 20.1893 16.2455 18.7328 16.2455Z" fill="#0085FF"/>
<path fill-rule="evenodd" clip-rule="evenodd" d="M30.3698 18.9235C30.3698 16.1768 32.5625 13.9501 35.2674 13.9501C37.9723 13.9501 40.1651 16.1768 40.1651 18.9235C40.1651 21.6702 37.9723 23.8968 35.2674 23.8968C32.5625 23.8968 30.3698 21.6702 30.3698 18.9235ZM35.2674 16.2455C33.8109 16.2455 32.6302 17.4445 32.6302 18.9235C32.6302 20.4025 33.8109 21.6014 35.2674 21.6014C36.7239 21.6014 37.9046 20.4025 37.9046 18.9235C37.9046 17.4445 36.7239 16.2455 35.2674 16.2455Z" fill="#0085FF"/>
<path fill-rule="evenodd" clip-rule="evenodd" d="M27 23.1317C24.2951 23.1317 22.1023 25.3583 22.1023 28.105C22.1023 30.8517 24.2951 33.0784 27 33.0784C29.7049 33.0784 31.8977 30.8517 31.8977 28.105C31.8977 25.3583 29.7049 23.1317 27 23.1317ZM24.3628 28.105C24.3628 26.626 25.5435 25.4271 27 25.4271C28.4565 25.4271 29.6372 26.626 29.6372 28.105C29.6372 29.584 28.4565 30.783 27 30.783C25.5435 30.783 24.3628 29.584 24.3628 28.105Z" fill="#0085FF"/>
<path d="M20.67 39.7984C22.2177 38.5406 24.5453 37.669 26.9998 37.669C29.454 37.669 31.7819 38.5419 33.3301 39.7988C33.8177 40.1946 34.5289 40.1142 34.9187 39.6191C35.3085 39.124 35.2292 38.4018 34.7417 38.006C32.7726 36.4074 29.9407 35.3736 26.9998 35.3736C24.0595 35.3736 21.2271 36.4056 19.2575 38.0064C18.7702 38.4024 18.6913 39.1247 19.0814 39.6195C19.4714 40.1144 20.1827 40.1945 20.67 39.7984Z" fill="#0085FF"/>
<path d="M36.0419 26.1921C35.4177 26.1921 34.9116 26.7059 34.9116 27.3398C34.9116 27.9736 35.4177 28.4875 36.0419 28.4875C38.1091 28.4875 40.0676 29.2229 41.3637 30.2758C41.8511 30.6718 42.5624 30.5915 42.9523 30.0966C43.3423 29.6016 43.2632 28.8794 42.7758 28.4834C41.058 27.0879 38.5951 26.1921 36.0419 26.1921Z" fill="#0085FF"/>
<path d="M12.6364 30.2758C13.9325 29.2229 15.891 28.4875 17.9582 28.4875C18.5824 28.4875 19.0884 27.9736 19.0884 27.3398C19.0884 26.7059 18.5824 26.1921 17.9582 26.1921C15.405 26.1921 12.9421 27.0879 11.2243 28.4834C10.7368 28.8794 10.6578 29.6016 11.0478 30.0966C11.4377 30.5915 12.1489 30.6718 12.6364 30.2758Z" fill="#0085FF"/>
</svg>
