<svg width="150" height="150" viewBox="0 0 150 150" fill="none" xmlns="http://www.w3.org/2000/svg">
<path d="M150 75C150 116.421 116.421 150 75 150C33.5786 150 0 116.421 0 75C0 33.5786 33.5786 0 75 0C116.421 0 150 33.5786 150 75Z" fill="#F2F9FF"/>
<path fill-rule="evenodd" clip-rule="evenodd" d="M47.5769 43C41.7338 43 37 47.7953 37 53.7143V96.0357C37 101.955 41.7338 106.75 47.5769 106.75H101.423C107.266 106.75 112 101.955 112 96.0357V65.1688C112 59.2547 107.267 54.4545 101.423 54.4545H76.5346C76.2163 54.4545 75.9166 54.2917 75.7388 54.0264L70.3339 45.9794C69.0828 44.1192 67.003 43 64.7731 43H47.5769ZM106.231 70.273V65.1688C106.231 62.4804 104.079 60.2987 101.423 60.2987H76.5346C74.3068 60.2987 72.2201 59.181 70.9672 57.3113L65.5661 49.27C65.3864 49.0035 65.0889 48.8442 64.7731 48.8442H47.5769C44.9201 48.8442 42.7692 51.0229 42.7692 53.7143V70.273H106.231ZM42.7692 76.1171H106.231V96.0357C106.231 98.7271 104.08 100.906 101.423 100.906H47.5769C44.9201 100.906 42.7692 98.7271 42.7692 96.0357V76.1171Z" fill="#0085FF"/>
</svg>
