<svg width="54" height="54" viewBox="0 0 54 54" fill="none" xmlns="http://www.w3.org/2000/svg">
<path d="M54 27C54 41.9117 41.9117 54 27 54C12.0883 54 0 41.9117 0 27C0 12.0883 12.0883 0 27 0C41.9117 0 54 12.0883 54 27Z" fill="#F2F9FF"/>
<path d="M26.5335 43.1999C30.5981 43.1999 34.5315 41.6266 37.6782 38.611C43.8405 32.4486 43.8405 22.484 37.6782 16.3217C31.5159 10.1594 21.5512 10.1594 15.3889 16.3217C12.3733 19.3373 10.7999 23.2707 10.7999 27.4663C10.7999 31.662 12.3733 35.5954 15.3889 38.611C18.5356 41.6266 22.469 43.1999 26.5335 43.1999ZM26.5335 13.5683C30.0736 13.5683 33.6137 14.8795 36.367 17.6328C41.7427 23.0085 41.7427 31.9242 36.367 37.2998C30.9914 42.6755 22.2068 42.6755 16.7 37.2998C14.0778 34.6776 12.6355 31.1375 12.6355 27.4663C12.6355 23.7952 14.0778 20.2551 16.7 17.6328C19.4534 14.8795 22.9935 13.5683 26.5335 13.5683Z" fill="#0085FF"/>
<path fill-rule="evenodd" clip-rule="evenodd" d="M37.8055 38.7383L37.8055 38.7383C44.0381 32.5056 44.0381 22.427 37.8055 16.1944C31.5729 9.9618 21.4943 9.9618 15.2617 16.1944C12.2115 19.2447 10.62 23.2242 10.62 27.4663C10.62 31.7085 12.2115 35.688 15.2617 38.7383L15.2644 38.741L15.2644 38.7409C18.4435 41.7876 22.4211 43.38 26.5336 43.38C30.646 43.38 34.6237 41.7876 37.8028 38.7409L37.8055 38.7383ZM26.5336 13.7483C30.0287 13.7483 33.5221 15.0424 36.2398 17.7601C41.5452 23.0655 41.5452 31.8672 36.2398 37.1726C30.9355 42.4769 22.2643 42.4793 16.8265 37.1717C14.2389 34.5837 12.8156 31.0899 12.8156 27.4663C12.8156 23.8424 14.2392 20.3482 16.8274 17.7601C19.5451 15.0424 23.0385 13.7483 26.5336 13.7483ZM37.6782 38.611C34.5315 41.6266 30.5981 43.1999 26.5336 43.1999C22.4691 43.1999 18.5357 41.6266 15.389 38.611C12.3734 35.5954 10.8 31.662 10.8 27.4663C10.8 23.2707 12.3734 19.3373 15.389 16.3217C21.5513 10.1594 31.5159 10.1594 37.6782 16.3217C43.8406 22.484 43.8406 32.4487 37.6782 38.611ZM36.3671 17.6328C33.6137 14.8795 30.0737 13.5683 26.5336 13.5683C22.9935 13.5683 19.4535 14.8795 16.7001 17.6328C14.0778 20.2551 12.6356 23.7952 12.6356 27.4663C12.6356 31.1375 14.0778 34.6776 16.7001 37.2998C22.2069 42.6755 30.9915 42.6755 36.3671 37.2998C41.7427 31.9242 41.7427 23.0085 36.3671 17.6328Z" fill="#0085FF"/>
<path d="M26.5341 36.3826C29.9431 36.3826 32.9587 34.4159 34.0076 31.2692C34.1387 30.7448 33.8765 30.2203 33.352 30.0892C32.8276 29.9581 32.3031 30.2203 32.172 30.7448C31.3853 33.367 28.7631 34.5471 26.5341 34.5471C26.0097 34.5471 25.6163 34.9404 25.6163 35.4648C25.6163 35.9893 26.0097 36.3826 26.5341 36.3826Z" fill="#0085FF"/>
<path fill-rule="evenodd" clip-rule="evenodd" d="M34.1806 31.3196L34.1822 31.3129C34.3336 30.7076 34.0316 30.0735 33.3957 29.9146C32.7918 29.7636 32.1592 30.0639 31.9985 30.6968C31.241 33.2144 28.7133 34.367 26.5342 34.367C25.9103 34.367 25.4364 34.841 25.4364 35.4648C25.4364 36.0887 25.9103 36.5626 26.5342 36.5626C30.0113 36.5626 33.1022 34.5548 34.1784 31.3261L34.1806 31.3196ZM32.172 30.7447C32.3032 30.2203 32.8276 29.9581 33.3521 30.0892C33.8765 30.2203 34.1387 30.7447 34.0076 31.2692C32.9587 34.4159 29.9431 36.3826 26.5342 36.3826C26.0097 36.3826 25.6164 35.9893 25.6164 35.4648C25.6164 34.9404 26.0097 34.547 26.5342 34.547C28.7631 34.547 31.3854 33.367 32.172 30.7447Z" fill="#0085FF"/>
<path d="M20.8193 21.9843C19.6393 21.9843 18.4592 22.5087 17.6726 23.5576C17.2792 23.951 17.4103 24.4754 17.8037 24.8688C18.197 25.2621 18.7215 25.131 19.1148 24.7377C19.5081 24.3443 20.0326 23.8199 20.8193 23.8199C21.4748 23.8199 22.1304 24.0821 22.5238 24.7377C22.786 25.131 23.4415 25.131 23.8349 24.8688C24.2282 24.6065 24.2282 23.951 23.966 23.5576C23.1793 22.5087 21.9993 21.9843 20.8193 21.9843Z" fill="#0085FF"/>
<path fill-rule="evenodd" clip-rule="evenodd" d="M22.3738 24.8376L22.3739 24.8375C22.5456 25.095 22.8361 25.2098 23.1181 25.2286C23.4005 25.2475 23.7026 25.1733 23.9347 25.0185C24.1922 24.8469 24.307 24.5563 24.3258 24.2743C24.3446 23.992 24.2704 23.6899 24.1157 23.4578L24.1102 23.4495L24.1099 23.4496C23.2873 22.3528 22.0526 21.8043 20.8192 21.8043C19.5896 21.8043 18.3586 22.3495 17.5359 23.4397C17.3063 23.6746 17.2246 23.9569 17.2649 24.2387C17.3046 24.5168 17.4604 24.7801 17.6763 24.996C17.9131 25.2328 18.1991 25.3172 18.4846 25.2764C18.7628 25.2367 19.0261 25.0809 19.242 24.8649C19.6421 24.4649 20.1169 23.9999 20.8192 23.9999C21.4264 23.9999 22.0155 24.2405 22.3693 24.8303L22.3738 24.8376ZM17.6725 23.5576C18.4592 22.5087 19.6392 21.9843 20.8192 21.9843C21.9992 21.9843 23.1793 22.5087 23.9659 23.5576C24.2282 23.951 24.2282 24.6065 23.8348 24.8688C23.4415 25.131 22.7859 25.131 22.5237 24.7376C22.1304 24.0821 21.4748 23.8199 20.8192 23.8199C20.0325 23.8199 19.5081 24.3443 19.1147 24.7376C18.7214 25.131 18.197 25.2621 17.8036 24.8688C17.4103 24.4754 17.2792 23.951 17.6725 23.5576Z" fill="#0085FF"/>
<path d="M32.3586 21.9843C31.1786 21.9843 29.9985 22.5087 29.2119 23.5576C28.8185 23.951 28.9496 24.6065 29.343 24.8688C29.7363 25.2621 30.2608 25.131 30.6541 24.7377C30.9163 24.3443 31.5719 23.8199 32.3586 23.8199C33.0142 23.8199 33.6697 24.0821 34.0631 24.7377C34.3253 25.131 34.9809 25.131 35.3742 24.8688C35.7675 24.6065 35.7675 23.951 35.5053 23.5576C34.7186 22.5087 33.5386 21.9843 32.3586 21.9843Z" fill="#0085FF"/>
<path fill-rule="evenodd" clip-rule="evenodd" d="M30.794 24.8523L30.8039 24.8375C31.0419 24.4806 31.6469 23.9999 32.3586 23.9999C32.9658 23.9999 33.5549 24.2405 33.9088 24.8303L33.9132 24.8376L33.9133 24.8375C34.085 25.095 34.3755 25.2098 34.6575 25.2286C34.9399 25.2475 35.242 25.1733 35.4741 25.0185C35.7316 24.8469 35.8464 24.5563 35.8652 24.2743C35.8841 23.992 35.8098 23.6899 35.6551 23.4578L35.6496 23.4495L35.6494 23.4496C34.8267 22.3528 33.592 21.8043 32.3586 21.8043C31.129 21.8043 29.8979 22.3495 29.0753 23.4398C28.6092 23.918 28.7658 24.6861 29.2282 25.0083C29.4625 25.2357 29.7435 25.3165 30.0241 25.2764C30.3022 25.2367 30.5655 25.0809 30.7814 24.8649L30.794 24.8523ZM29.343 24.8688C28.9497 24.6065 28.8186 23.951 29.2119 23.5576C29.9986 22.5087 31.1786 21.9843 32.3586 21.9843C33.5387 21.9843 34.7187 22.5087 35.5054 23.5576C35.7676 23.951 35.7676 24.6065 35.3742 24.8688C34.9809 25.131 34.3253 25.131 34.0631 24.7376C33.6698 24.0821 33.0142 23.8199 32.3586 23.8199C31.572 23.8199 30.9164 24.3443 30.6542 24.7376C30.2608 25.131 29.7364 25.2621 29.343 24.8688Z" fill="#0085FF"/>
</svg>
