<?xml version="1.0" encoding="utf-8"?><svg width="60" height="60" viewBox="0 0 60 60" fill="none" xmlns="http://www.w3.org/2000/svg">
<circle cx="30" cy="30" r="30" fill="#F2F9FF"/>
<path d="M31.8653 25.0029C31.0361 23.9368 30.5791 22.5685 30.5791 21.1519C30.5791 19.7354 31.0361 18.367 31.8653 17.3009L34.8372 13.48C34.9544 13.3292 35.099 13.2084 35.2611 13.1256C35.4233 13.0428 35.5993 13 35.7774 13C35.9555 13 36.1315 13.0428 36.2937 13.1256C36.4559 13.2084 36.6004 13.3292 36.7177 13.48L39.6895 17.3009C40.5187 18.367 40.9757 19.7354 40.9757 21.1519C40.9757 22.5685 40.5187 23.9369 39.6895 25.0029C39.2016 25.6302 38.6002 26.133 37.9254 26.4774C37.2507 26.8218 36.5183 27 35.7774 27C35.0365 27 34.3041 26.8218 33.6294 26.4774C32.9547 26.1329 32.3532 25.6302 31.8653 25.0029V25.0029Z" stroke="#0085FF" stroke-width="2.75" stroke-linecap="round" stroke-linejoin="round"/>
<path d="M28.1429 38.7912H31.7829C32.5866 38.7917 33.3687 38.4963 34.0114 37.9496L38.4983 34.1371C39.0402 33.6771 39.7103 33.4538 40.3857 33.5083C41.0611 33.5628 41.6966 33.8914 42.1754 34.4338V34.4338C42.4368 34.7296 42.6442 35.0808 42.7857 35.4675C42.9272 35.8541 43 36.2686 43 36.6872C43 37.1057 42.9272 37.5202 42.7857 37.9068C42.6442 38.2935 42.4368 38.6448 42.1754 38.9405L38.3256 43.3021C37.2883 44.4767 35.9676 45.2775 34.5296 45.6039L29.0881 46.8369C28.0093 47.0813 26.8961 47.0511 25.8289 46.7485L20.9074 45.3556C20.3191 45.1876 19.7146 45.1028 19.1079 45.1032H17" stroke="#0085FF" stroke-width="2.75" stroke-linecap="round" stroke-linejoin="round"/>
<path d="M28.3333 39.1251H31.1383C31.5142 39.1252 31.8863 39.0481 32.2336 38.8983C32.5808 38.7484 32.8963 38.5287 33.162 38.2517C33.4278 37.9747 33.6386 37.6459 33.7824 37.284C33.9261 36.9221 34.0001 36.5342 34 36.1425V35.5459C34.0002 34.881 33.787 34.2352 33.3944 33.7111C33.0018 33.1871 32.4523 32.8149 31.8334 32.6538L27.5041 31.5257C26.8004 31.3427 26.0779 31.2502 25.3527 31.2501V31.2501C23.6012 31.2496 21.8889 31.7901 20.4321 32.8035L17 35.1876" stroke="#0085FF" stroke-width="2.75" stroke-linecap="round" stroke-linejoin="round"/>
</svg>
