<svg width="55" height="54" viewBox="0 0 55 54" fill="none" xmlns="http://www.w3.org/2000/svg">
<path d="M54.3334 27C54.3334 41.9117 42.2451 54 27.3334 54C12.4217 54 0.333374 41.9117 0.333374 27C0.333374 12.0883 12.4217 0 27.3334 0C42.2451 0 54.3334 12.0883 54.3334 27Z" fill="#F2F9FF"/>
<path d="M21.3513 38.2799C21.0877 38.6891 20.5521 38.8309 20.1176 38.6066C19.6259 38.3527 19.4595 37.7362 19.7577 37.2733L33.6396 15.7201C33.9031 15.3109 34.4388 15.1691 34.8733 15.3935C35.3649 15.6473 35.5314 16.2639 35.2332 16.7268L21.3513 38.2799ZM15.3334 20.3493C15.3334 19.6581 15.4642 19.0136 15.7259 18.4157C15.9877 17.8179 16.3429 17.2948 16.7915 16.8465C17.2402 16.3981 17.7636 16.0432 18.3618 15.7816C18.96 15.5201 19.605 15.3893 20.2967 15.3893C20.9883 15.3893 21.6333 15.5201 22.2315 15.7816C22.8297 16.0432 23.3531 16.3981 23.8018 16.8465C24.2504 17.2948 24.6056 17.8179 24.8674 18.4157C25.1291 19.0136 25.2599 19.6581 25.2599 20.3493C25.2599 21.0405 25.1291 21.6851 24.8674 22.2829C24.6056 22.8807 24.2504 23.4038 23.8018 23.8521C23.3531 24.3005 22.8297 24.6555 22.2315 24.917C21.6333 25.1786 20.9883 25.3093 20.2967 25.3093C19.605 25.3093 18.96 25.1786 18.3618 24.917C17.7636 24.6555 17.2402 24.3005 16.7915 23.8521C16.3429 23.4038 15.9877 22.8807 15.7259 22.2829C15.4642 21.6851 15.3334 21.0405 15.3334 20.3493ZM17.5206 20.3493C17.5206 21.1339 17.7823 21.7971 18.3057 22.3389C18.8479 22.862 19.5115 23.1236 20.2967 23.1236C21.0818 23.1236 21.7361 22.862 22.2595 22.3389C22.8017 21.7971 23.0727 21.1339 23.0727 20.3493C23.0727 19.5647 22.8017 18.9108 22.2595 18.3877C21.7361 17.8459 21.0818 17.5751 20.2967 17.5751C19.5115 17.5751 18.8479 17.8459 18.3057 18.3877C17.7823 18.9108 17.5206 19.5647 17.5206 20.3493ZM29.6468 33.6788C29.6468 32.9875 29.7777 32.343 30.0394 31.7452C30.3011 31.1474 30.6563 30.6243 31.1049 30.1759C31.5536 29.7276 32.077 29.3726 32.6752 29.1111C33.2735 28.8495 33.9184 28.7188 34.6101 28.7188C35.3018 28.7188 35.9467 28.8495 36.5449 29.1111C37.1431 29.3726 37.6666 29.7276 38.1152 30.1759C38.5639 30.6243 38.9191 31.1474 39.1808 31.7452C39.4425 32.343 39.5734 32.9875 39.5734 33.6788C39.5734 34.37 39.4425 35.0145 39.1808 35.6123C38.9191 36.2101 38.5639 36.7332 38.1152 37.1816C37.6666 37.63 37.1431 37.9849 36.5449 38.2465C35.9467 38.508 35.3018 38.6388 34.6101 38.6388C33.9184 38.6388 33.2735 38.508 32.6752 38.2465C32.077 37.9849 31.5536 37.63 31.1049 37.1816C30.6563 36.7332 30.3011 36.2101 30.0394 35.6123C29.7777 35.0145 29.6468 34.37 29.6468 33.6788ZM31.834 33.6788C31.834 34.4634 32.0957 35.1266 32.6192 35.6684C33.1613 36.1915 33.8249 36.453 34.6101 36.453C35.3952 36.453 36.0495 36.1915 36.573 35.6684C37.1151 35.1266 37.3862 34.4634 37.3862 33.6788C37.3862 32.8941 37.1151 32.2403 36.573 31.7172C36.0495 31.1754 35.3952 30.9045 34.6101 30.9045C33.8249 30.9045 33.1613 31.1754 32.6192 31.7172C32.0957 32.2403 31.834 32.8941 31.834 33.6788Z" fill="#0085FF"/>
<path fill-rule="evenodd" clip-rule="evenodd" d="M19.6167 37.1827L33.4986 15.6296C33.8092 15.1473 34.4394 14.9811 34.9502 15.2448C35.529 15.5436 35.7261 16.2707 35.3741 16.8173L21.4922 38.3704C21.1816 38.8527 20.5514 39.0189 20.0406 38.7552C19.4619 38.4564 19.2647 37.7292 19.6167 37.1827ZM20.1175 38.6065C20.5521 38.8309 21.0877 38.6891 21.3512 38.2799L35.2332 16.7268C35.5313 16.2638 35.3649 15.6473 34.8733 15.3935C34.4387 15.1691 33.9031 15.3109 33.6396 15.7201L19.7576 37.2732C19.4595 37.7362 19.6259 38.3527 20.1175 38.6065Z" fill="#0085FF"/>
</svg>
