<?xml version="1.0" encoding="utf-8"?><svg width="60" height="60" fill="none" xmlns="http://www.w3.org/2000/svg"><circle cx="30" cy="30" r="30" fill="#F2F9FF"/><path d="M23.664 28.177a1.372 1.372 0 0 1 1.964 0l3.183 3.238 5.961-6.062a1.372 1.372 0 0 1 1.964 0 1.43 1.43 0 0 1 0 1.997l-6.943 7.06a1.372 1.372 0 0 1-1.964 0l-4.165-4.236a1.429 1.429 0 0 1 0-1.997z" fill="#0085FF"/><path fill-rule="evenodd" clip-rule="evenodd" d="M26.407 12.755a9.92 9.92 0 0 1 7.586-.002l9.156 3.809c1.924.8 3.251 2.635 3.251 4.748v6.794c0 9.226-6.785 17.78-15.895 19.862-.201.045-.409.045-.61 0C20.785 45.883 14 37.33 14 28.104V21.31c0-2.114 1.328-3.946 3.25-4.746l9.157-3.81zm6.535 2.612a7.186 7.186 0 0 0-5.484.001l-9.155 3.809c-.98.408-1.526 1.272-1.526 2.133v6.794c0 7.77 5.702 15.114 13.423 17.034 7.72-1.92 13.423-9.264 13.423-17.034V21.31c0-.862-.547-1.727-1.526-2.135l-9.155-3.808z" fill="#0085FF"/></svg>