<?xml version="1.0" encoding="utf-8"?><svg width="60" height="60" viewBox="0 0 60 60" fill="none" xmlns="http://www.w3.org/2000/svg">
<circle cx="30" cy="30" r="30" fill="#F2F9FF"/>
<path d="M29.9996 43.9998C29.391 43.0261 28.4556 42.2072 27.298 41.6349C26.1405 41.0625 24.8065 40.7594 23.4458 40.7593H17.0379C16.2322 40.7593 15.4595 40.5033 14.8898 40.0475C14.3201 39.5918 14 38.9736 14 38.329V22.4304C14 21.7858 14.3201 21.1676 14.8898 20.7118C15.4595 20.2561 16.2322 20 17.0379 20H21.8985C24.1071 20.1107 26.1784 20.895 27.6855 22.1912C29.1927 23.4875 30.021 25.1968 29.9996 26.9671V43.9998Z" stroke="#0085FF" stroke-width="2.75" stroke-linecap="round" stroke-linejoin="round"/>
<path d="M30.0004 43.9999C30.609 43.0262 31.5444 42.2073 32.702 41.6349C33.8595 41.0626 35.1934 40.7594 36.5542 40.7594H42.9621C43.7678 40.7594 44.5404 40.5034 45.1102 40.0476C45.6799 39.5918 46 38.9737 46 38.3291V22.4304C46 21.7859 45.6799 21.1677 45.1102 20.7119C44.5406 20.2562 43.7679 20.0001 42.9622 20.0001H38.1015C35.893 20.1108 33.8217 20.8951 32.3145 22.1913C30.8073 23.4875 29.979 25.1969 30.0004 26.9671V43.9999Z" stroke="#0085FF" stroke-width="2.75" stroke-linecap="round" stroke-linejoin="round"/>
</svg>
