<svg width="54" height="54" viewBox="0 0 54 54" fill="none" xmlns="http://www.w3.org/2000/svg">
<path d="M54 27C54 41.9117 41.9117 54 27 54C12.0883 54 0 41.9117 0 27C0 12.0883 12.0883 0 27 0C41.9117 0 54 12.0883 54 27Z" fill="#F2F9FF"/>
<path fill-rule="evenodd" clip-rule="evenodd" d="M27.2561 18.772C27.2561 15.8603 29.6164 13.5 32.5281 13.5C35.4397 13.5 37.8 15.8603 37.8 18.772C37.8 21.6836 35.4397 24.0439 32.5281 24.0439C30.8818 24.0439 29.4118 23.2894 28.445 22.1073L21.1911 25.7342C21.291 26.1397 21.344 26.5637 21.344 27.0001C21.344 27.4365 21.291 27.8604 21.1911 28.2659L28.4449 31.8928C29.4117 30.7107 30.8818 29.9561 32.5281 29.9561C35.4397 29.9561 37.8 32.3164 37.8 35.228C37.8 38.1397 35.4397 40.5 32.5281 40.5C29.6164 40.5 27.2561 38.1397 27.2561 35.228C27.2561 34.7917 27.3091 34.3678 27.409 33.9623L20.1551 30.3354C19.1883 31.5175 17.7183 32.2721 16.072 32.2721C13.1604 32.2721 10.8 29.9117 10.8 27.0001C10.8 24.0885 13.1604 21.7282 16.072 21.7282C17.7183 21.7282 19.1882 22.4827 20.155 23.6648L27.409 20.0378C27.3091 19.6323 27.2561 19.2083 27.2561 18.772ZM32.5281 15.8143C30.8946 15.8143 29.5704 17.1385 29.5704 18.772C29.5704 20.4054 30.8946 21.7296 32.5281 21.7296C34.1615 21.7296 35.4857 20.4054 35.4857 18.772C35.4857 17.1385 34.1615 15.8143 32.5281 15.8143ZM16.072 24.0424C14.4386 24.0424 13.1144 25.3666 13.1144 27.0001C13.1144 28.6336 14.4386 29.9578 16.072 29.9578C17.7055 29.9578 19.0297 28.6336 19.0297 27.0001C19.0297 25.3666 17.7055 24.0424 16.072 24.0424ZM32.5281 32.2704C30.8946 32.2704 29.5704 33.5946 29.5704 35.228C29.5704 36.8615 30.8946 38.1857 32.5281 38.1857C34.1615 38.1857 35.4857 36.8615 35.4857 35.228C35.4857 33.5946 34.1615 32.2704 32.5281 32.2704Z" fill="#0085FF"/>
<path fill-rule="evenodd" clip-rule="evenodd" d="M27.1661 18.772C27.1661 15.8107 29.5667 13.41 32.5281 13.41C35.4894 13.41 37.8901 15.8107 37.8901 18.772C37.8901 21.7333 35.4894 24.1339 32.5281 24.1339C30.8796 24.1339 29.4048 23.3899 28.4214 22.2197L21.2953 25.7828C21.3861 26.174 21.4341 26.5815 21.4341 27.0001C21.4341 27.4187 21.3861 27.8263 21.2953 28.2174L28.4213 31.7804C29.4048 30.6102 30.8796 29.8661 32.5281 29.8661C35.4894 29.8661 37.8901 32.2668 37.8901 35.2281C37.8901 38.1894 35.4894 40.59 32.5281 40.59C29.5667 40.59 27.1661 38.1894 27.1661 35.2281C27.1661 34.8095 27.2141 34.402 27.3049 34.0109L20.1788 30.4479C19.1953 31.6181 17.7206 32.3621 16.0721 32.3621C13.1107 32.3621 10.7101 29.9615 10.7101 27.0001C10.7101 24.0388 13.1107 21.6382 16.0721 21.6382C17.7205 21.6382 19.1953 22.3822 20.1787 23.5523L27.3049 19.9893C27.2141 19.5981 27.1661 19.1906 27.1661 18.772ZM32.5281 13.59C29.6661 13.59 27.3461 15.9101 27.3461 18.772C27.3461 19.201 27.3982 19.6178 27.4964 20.0163C27.5065 20.0571 27.4869 20.0995 27.4493 20.1183L20.1953 23.7453C20.1577 23.7641 20.112 23.7543 20.0854 23.7218C19.135 22.5597 17.6902 21.8182 16.0721 21.8182C13.2101 21.8182 10.8901 24.1382 10.8901 27.0001C10.8901 29.8621 13.2101 32.1821 16.0721 32.1821C17.6902 32.1821 19.135 31.4406 20.0855 30.2785C20.1121 30.2459 20.1578 30.2361 20.1954 30.2549L27.4493 33.8818C27.4869 33.9007 27.5065 33.943 27.4964 33.9839C27.3982 34.3824 27.3461 34.7991 27.3461 35.2281C27.3461 38.09 29.6661 40.41 32.5281 40.41C35.39 40.41 37.7101 38.09 37.7101 35.2281C37.7101 32.3662 35.39 30.0461 32.5281 30.0461C30.9099 30.0461 29.4651 30.7877 28.5146 31.9498C28.488 31.9824 28.4424 31.9922 28.4047 31.9734L21.1509 28.3465C21.1132 28.3277 21.0937 28.2853 21.1037 28.2444C21.202 27.8459 21.2541 27.4292 21.2541 27.0001C21.2541 26.5711 21.2019 26.1543 21.1037 25.7558C21.0936 25.7149 21.1132 25.6725 21.1509 25.6537L28.4048 22.0268C28.4424 22.008 28.4881 22.0177 28.5147 22.0503C29.4651 23.2124 30.91 23.9539 32.5281 23.9539C35.39 23.9539 37.7101 21.6339 37.7101 18.772C37.7101 15.9101 35.39 13.59 32.5281 13.59ZM32.5281 15.9043C30.9443 15.9043 29.6604 17.1882 29.6604 18.772C29.6604 20.3558 30.9443 21.6396 32.5281 21.6396C34.1119 21.6396 35.3958 20.3558 35.3958 18.772C35.3958 17.1882 34.1119 15.9043 32.5281 15.9043ZM29.4804 18.772C29.4804 17.0888 30.8449 15.7243 32.5281 15.7243C34.2113 15.7243 35.5758 17.0888 35.5758 18.772C35.5758 20.4552 34.2113 21.8196 32.5281 21.8196C30.8449 21.8196 29.4804 20.4552 29.4804 18.772ZM16.0721 24.1325C14.4883 24.1325 13.2044 25.4164 13.2044 27.0001C13.2044 28.5839 14.4883 29.8678 16.0721 29.8678C17.6559 29.8678 18.9398 28.5839 18.9398 27.0001C18.9398 25.4164 17.6559 24.1325 16.0721 24.1325ZM13.0244 27.0001C13.0244 25.317 14.3889 23.9525 16.0721 23.9525C17.7553 23.9525 19.1198 25.317 19.1198 27.0001C19.1198 28.6833 17.7553 30.0478 16.0721 30.0478C14.3889 30.0478 13.0244 28.6833 13.0244 27.0001ZM32.5281 32.3604C30.9443 32.3604 29.6604 33.6443 29.6604 35.2281C29.6604 36.8118 30.9443 38.0957 32.5281 38.0957C34.1119 38.0957 35.3958 36.8118 35.3958 35.2281C35.3958 33.6443 34.1119 32.3604 32.5281 32.3604ZM29.4804 35.2281C29.4804 33.5449 30.8449 32.1804 32.5281 32.1804C34.2113 32.1804 35.5758 33.5449 35.5758 35.2281C35.5758 36.9113 34.2113 38.2757 32.5281 38.2757C30.8449 38.2757 29.4804 36.9113 29.4804 35.2281Z" fill="white"/>
</svg>
