<svg width="150" height="150" viewBox="0 0 150 150" fill="none" xmlns="http://www.w3.org/2000/svg">
<path d="M150 75C150 116.421 116.421 150 75 150C33.5786 150 0 116.421 0 75C0 33.5786 33.5786 0 75 0C116.421 0 150 33.5786 150 75Z" fill="#F2F9FF"/>
<path fill-rule="evenodd" clip-rule="evenodd" d="M100.507 38.548C107.331 36.0226 113.983 42.6638 111.449 49.4956L89.9805 107.443C87.0708 115.287 75.7676 114.677 73.7355 106.553L67.6852 82.3832L43.4424 76.2897C43.4422 76.2896 43.4426 76.2897 43.4424 76.2897C35.3282 74.2513 34.7086 62.9591 42.554 60.047L100.507 38.548ZM102.738 44.5764C102.738 44.5765 102.738 44.5763 102.738 44.5764L44.7908 66.0732C44.7906 66.0733 44.791 66.0732 44.7908 66.0732C42.8666 66.788 43.0183 69.5556 45.0081 70.0553L71.119 76.6184C72.2684 76.9073 73.1655 77.8053 73.4533 78.955L79.9712 104.993C80.4674 106.976 83.2377 107.138 83.9534 105.208L105.422 47.2615C106.043 45.5888 104.416 43.9564 102.738 44.5764Z" fill="#0085FF"/>
</svg>
