<svg width="150" height="150" viewBox="0 0 150 150" fill="none" xmlns="http://www.w3.org/2000/svg">
<ellipse cx="75" cy="75" rx="75" ry="75" fill="#F2F9FF"/>
<path fill-rule="evenodd" clip-rule="evenodd" d="M95.6084 37.5C96.9889 37.5051 98.104 38.6282 98.0992 40.0088V40.0095C98.0823 44.4204 99.1505 47.4464 101.029 49.4C102.901 51.3463 105.979 52.6446 110.885 52.7385C112.258 52.7648 113.353 53.8936 113.337 55.2667C113.321 56.6398 112.201 57.7432 110.828 57.7381C106.348 57.7214 103.401 58.9069 101.498 60.8471C99.5643 62.8184 98.3286 65.9528 98.0961 70.6011C98.0285 71.9514 96.8997 73.0033 95.548 72.9757C94.1963 72.948 93.1115 71.8507 93.0993 70.4988C93.0595 66.1015 92.053 63.0109 90.2115 61.019C88.4084 59.0687 85.3988 57.7381 80.3611 57.7381C78.9871 57.7381 77.8706 56.6292 77.8611 55.2552C77.8517 53.8812 78.9529 52.7572 80.3268 52.7383C84.8592 52.6762 87.9395 51.5556 89.8971 49.6642C91.8345 47.7923 93.0824 44.7673 93.0992 39.9912L93.0992 39.9904C93.1045 38.6099 94.2278 37.4949 95.6084 37.5ZM95.5869 50.4697C94.9691 51.4959 94.2324 52.4281 93.3713 53.26C92.6044 54.001 91.7623 54.6396 90.8531 55.1833C91.986 55.8545 92.9974 56.667 93.8829 57.6248C94.6138 58.4154 95.2351 59.2796 95.7577 60.2066C96.3665 59.1605 97.0872 58.2035 97.9288 57.3457C98.713 56.5463 99.5784 55.8569 100.519 55.273C99.3687 54.6114 98.3347 53.8113 97.4254 52.8659C96.7186 52.1309 96.1081 51.3298 95.5869 50.4697ZM53.3446 39.9998C54.7252 40.0048 55.8403 41.128 55.8354 42.5086L55.8354 42.5093C55.8099 49.2014 57.43 54.0187 60.4946 57.2053C63.5523 60.3847 68.4497 62.3578 75.8833 62.5002C77.2562 62.5265 78.351 63.6552 78.3353 65.0283C78.3196 66.4014 77.1993 67.5048 75.8262 67.4997C69.0004 67.4744 64.2976 69.2848 61.1951 72.4475C58.0621 75.6412 56.1839 80.5954 55.8323 87.6246C55.7648 88.9749 54.636 90.0269 53.2843 89.9992C51.9326 89.9716 50.8478 88.8743 50.8355 87.5224C50.7754 80.8787 49.2558 75.9726 46.255 72.7269C43.2927 69.5227 38.4778 67.4997 30.8354 67.4997C29.4614 67.4997 28.3449 66.3909 28.3355 65.0169C28.3261 63.6429 29.4273 62.5188 30.8012 62.5C37.6642 62.4059 42.5555 60.7068 45.7439 57.6263C48.9119 54.5655 50.8099 49.741 50.8355 42.4909L50.8355 42.4902C50.8407 41.1096 51.9641 39.9947 53.3446 39.9998ZM53.3145 55.4301C52.279 57.6445 50.9176 59.5801 49.218 61.2222C47.6328 62.7538 45.8058 63.979 43.7666 64.9259C46.169 66.0218 48.2229 67.49 49.9264 69.3326C51.4549 70.9859 52.6465 72.8822 53.5466 74.9782C54.5867 72.6894 55.9368 70.6678 57.6258 68.946C59.2211 67.3198 61.0676 66.0128 63.1496 65.012C60.7284 63.929 58.6367 62.4866 56.8908 60.6712C55.4115 59.133 54.2284 57.3769 53.3145 55.4301ZM86.6703 79.4141C86.6752 78.0335 85.5602 76.9102 84.1797 76.905C82.7991 76.8998 81.6757 78.0154 81.6703 79.396C81.6483 85.4693 80.0587 89.4375 77.475 91.9332C74.8708 94.4487 70.8397 95.8732 65.0855 95.9547C63.7111 95.9742 62.6103 97.0994 62.6209 98.4738C62.6316 99.8482 63.7497 100.956 65.1241 100.954C71.5254 100.946 75.4781 102.639 77.8879 105.248C80.3376 107.9 81.6141 111.948 81.6704 117.526C81.684 118.877 82.7693 119.973 84.1205 120C85.4718 120.027 86.5997 118.975 86.6672 117.625C86.9617 111.727 88.5327 107.638 91.0943 105.026C93.6252 102.446 97.4925 100.933 103.207 100.954C104.578 100.96 105.698 99.8588 105.716 98.4874C105.734 97.1159 104.644 95.986 103.272 95.9551C97.0244 95.8142 92.9902 94.16 90.4983 91.5705C88.0013 88.9758 86.6483 85.0212 86.6703 79.4141ZM80.9487 95.5294C82.2421 94.2801 83.307 92.838 84.1525 91.2141C84.8862 92.6142 85.7951 93.894 86.8955 95.0375C88.2408 96.4355 89.8195 97.5748 91.6187 98.4675C90.0981 99.2802 88.7298 100.296 87.5246 101.525C86.2472 102.828 85.1967 104.325 84.3544 105.996C83.6241 104.479 82.7017 103.091 81.5608 101.855C80.2552 100.442 78.7163 99.2861 76.9484 98.3839C78.4231 97.6209 79.7626 96.6752 80.9487 95.5294Z" fill="#FFB802"/>
</svg>
