<?xml version="1.0" encoding="utf-8"?><svg width="100" height="100" viewBox="0 0 100 100" fill="none" xmlns="http://www.w3.org/2000/svg">
<circle cx="50" cy="50" r="50" fill="#F2F9FF"/>
<path d="M36.4047 45.3034C37.239 44.2791 38.2719 43.8154 39.2307 43.8154C40.1664 43.8154 41.1741 44.2599 42.0838 45.3359C42.9066 46.3093 44.3626 46.4313 45.336 45.6085C46.3093 44.7857 46.4313 43.3296 45.6085 42.3563C43.9951 40.4477 41.772 39.2 39.2307 39.2C36.7126 39.2 34.4225 40.4286 32.826 42.3888C32.0212 43.3771 32.1698 44.8306 33.1581 45.6355C34.1463 46.4403 35.5999 46.2916 36.4047 45.3034Z" fill="#0085FF"/>
<path d="M57.9432 45.3034C58.7774 44.2791 59.8104 43.8154 60.7692 43.8154C61.7049 43.8154 62.7126 44.2599 63.6222 45.3359C64.445 46.3093 65.9011 46.4313 66.8744 45.6085C67.8477 44.7857 67.9697 43.3296 67.1469 42.3563C65.5335 40.4477 63.3104 39.2 60.7692 39.2C58.2511 39.2 55.961 40.4286 54.3645 42.3888C53.5596 43.3771 53.7083 44.8306 54.6965 45.6355C55.6848 46.4403 57.1383 46.2916 57.9432 45.3034Z" fill="#0085FF"/>
<path d="M40.8547 56.6312L40.8648 56.6408C40.8804 56.6555 40.9106 56.6837 40.955 56.7234C41.044 56.8029 41.1895 56.9281 41.3889 57.0841C41.7886 57.3969 42.398 57.8282 43.1956 58.2632C44.7915 59.1334 47.1055 60 50 60C52.8928 60 55.2068 59.1335 56.8034 58.2631C57.6014 57.828 58.2111 57.3966 58.6111 57.0837C58.8106 56.9277 58.9563 56.8025 59.0454 56.7229C59.0899 56.6832 59.1201 56.655 59.1357 56.6402L59.1459 56.6306C60.0481 55.739 61.5039 55.7411 62.4016 56.6396C63.3025 57.5411 63.3019 59.0023 62.4004 59.9031L60.7692 58.2707C62.4004 59.9031 62.4011 59.9024 62.4004 59.9031L62.3975 59.906L62.3943 59.9092L62.3867 59.9167L62.3668 59.9362L62.3087 59.9919C62.2618 60.0363 62.1987 60.0948 62.1196 60.1655C61.9615 60.3067 61.7389 60.4968 61.4545 60.7193C60.8868 61.1633 60.0659 61.7411 59.0127 62.3153C56.907 63.4633 53.8364 64.6153 50 64.6153C46.1622 64.6153 43.0915 63.4634 40.986 62.3152C39.9328 61.741 39.1122 61.1631 38.5446 60.7189C38.2603 60.4964 38.0378 60.3062 37.8797 60.165C37.8007 60.0943 37.7375 60.0358 37.6907 59.9914L37.6326 59.9356L37.6127 59.9161L37.6051 59.9086L37.6018 59.9054C37.6011 59.9047 37.599 59.9025 39.2308 58.2707L37.599 59.9025C36.6978 59.0013 36.6978 57.5402 37.599 56.639C38.4971 55.7408 39.9528 55.7392 40.8547 56.6312Z" fill="#0085FF"/>
<path fill-rule="evenodd" clip-rule="evenodd" d="M20 50C20 33.4315 33.4315 20 50 20C66.5685 20 80 33.4315 80 50C80 66.5685 66.5685 80 50 80C33.4315 80 20 66.5685 20 50ZM50 24.6154C35.9805 24.6154 24.6154 35.9805 24.6154 50C24.6154 64.0195 35.9805 75.3846 50 75.3846C64.0195 75.3846 75.3846 64.0195 75.3846 50C75.3846 35.9805 64.0195 24.6154 50 24.6154Z" fill="#0085FF"/>
</svg>
