<svg width="150" height="150" viewBox="0 0 150 150" fill="none" xmlns="http://www.w3.org/2000/svg">
<path d="M150 75C150 116.421 116.421 150 75 150C33.5786 150 0 116.421 0 75C0 33.5786 33.5786 0 75 0C116.421 0 150 33.5786 150 75Z" fill="#F2F9FF"/>
<path fill-rule="evenodd" clip-rule="evenodd" d="M75.7106 52.1443C75.7106 44.0565 82.2671 37.5 90.355 37.5C98.4429 37.5 104.999 44.0565 104.999 52.1443C104.999 60.2321 98.4429 66.7886 90.355 66.7886C85.7821 66.7886 81.6988 64.6927 79.0132 61.409L58.8634 71.4839C59.141 72.6103 59.2883 73.7881 59.2883 75.0003C59.2883 76.2124 59.1411 77.3901 58.8635 78.5165L79.0131 88.5912C81.6986 85.3074 85.782 83.2114 90.355 83.2114C98.4429 83.2114 104.999 89.7679 104.999 97.8557C104.999 105.944 98.4429 112.5 90.355 112.5C82.2671 112.5 75.7106 105.944 75.7106 97.8557C75.7106 96.6437 75.8578 95.466 76.1354 94.3397L55.9857 84.265C53.3002 87.5486 49.2168 89.6446 44.6439 89.6446C36.556 89.6446 29.9995 83.0881 29.9995 75.0003C29.9995 66.9125 36.556 60.356 44.6439 60.356C49.2167 60.356 53.3 62.4519 55.9855 65.7354L76.1355 55.6606C75.8578 54.5341 75.7106 53.3564 75.7106 52.1443ZM90.355 43.9286C85.8176 43.9286 82.1392 47.6069 82.1392 52.1443C82.1392 56.6817 85.8176 60.36 90.355 60.36C94.8925 60.36 98.5708 56.6817 98.5708 52.1443C98.5708 47.6069 94.8925 43.9286 90.355 43.9286ZM44.6439 66.7846C40.1064 66.7846 36.4281 70.4629 36.4281 75.0003C36.4281 79.5377 40.1064 83.216 44.6439 83.216C49.1813 83.216 52.8597 79.5377 52.8597 75.0003C52.8597 70.4629 49.1813 66.7846 44.6439 66.7846ZM90.355 89.64C85.8176 89.64 82.1392 93.3183 82.1392 97.8557C82.1392 102.393 85.8176 106.071 90.355 106.071C94.8925 106.071 98.5708 102.393 98.5708 97.8557C98.5708 93.3183 94.8925 89.64 90.355 89.64Z" fill="#16B86A"/>
<path fill-rule="evenodd" clip-rule="evenodd" d="M75.461 52.1443C75.461 43.9184 82.1295 37.25 90.3554 37.25C98.5814 37.25 105.25 43.9184 105.25 52.1443C105.25 60.3702 98.5814 67.0386 90.3554 67.0386C85.7763 67.0386 81.6798 64.972 78.9479 61.7214L59.1531 71.6187C59.4054 72.7054 59.5387 73.8374 59.5387 75.0003C59.5387 76.1631 59.4054 77.2951 59.1532 78.3816L78.9477 88.2788C81.6796 85.0281 85.7762 82.9614 90.3554 82.9614C98.5814 82.9614 105.25 89.6298 105.25 97.8557C105.25 106.082 98.5814 112.75 90.3554 112.75C82.1295 112.75 75.461 106.082 75.461 97.8557C75.461 96.693 75.5943 95.5611 75.8465 94.4746L56.0519 84.5774C53.32 87.8279 49.2234 89.8946 44.6443 89.8946C36.4183 89.8946 29.7499 83.2262 29.7499 75.0003C29.7499 66.7744 36.4183 60.106 44.6443 60.106C49.2233 60.106 53.3199 62.1726 56.0517 65.423L75.8466 55.5257C75.5943 54.4391 75.461 53.3071 75.461 52.1443ZM90.3554 37.75C82.4056 37.75 75.961 44.1946 75.961 52.1443C75.961 53.3361 76.1058 54.4937 76.3786 55.6007C76.4066 55.7142 76.3522 55.8319 76.2477 55.8842L56.0978 65.959C55.9932 66.0113 55.8664 65.9842 55.7924 65.8937C53.1523 62.6657 49.139 60.606 44.6443 60.606C36.6945 60.606 30.2499 67.0506 30.2499 75.0003C30.2499 82.9501 36.6945 89.3946 44.6443 89.3946C49.1391 89.3946 53.1525 87.3348 55.7926 84.1067C55.8666 84.0162 55.9934 83.9891 56.0979 84.0414L76.2476 94.1161C76.3521 94.1684 76.4065 94.2861 76.3785 94.3995C76.1058 95.5064 75.961 96.664 75.961 97.8557C75.961 105.805 82.4056 112.25 90.3554 112.25C98.3053 112.25 104.75 105.805 104.75 97.8557C104.75 89.9059 98.3053 83.4614 90.3554 83.4614C85.8606 83.4614 81.8471 85.5213 79.207 88.7495C79.133 88.8399 79.0062 88.8671 78.9017 88.8148L58.7521 78.7401C58.6476 78.6878 58.5932 78.5701 58.6211 78.4567C58.894 77.3497 59.0387 76.1921 59.0387 75.0003C59.0387 73.8085 58.8939 72.6508 58.6211 71.5437C58.5931 71.4302 58.6475 71.3125 58.752 71.2603L78.9019 61.1854C79.0064 61.1332 79.1332 61.1603 79.2072 61.2508C81.8473 64.4788 85.8607 66.5386 90.3554 66.5386C98.3053 66.5386 104.75 60.0941 104.75 52.1443C104.75 44.1946 98.3053 37.75 90.3554 37.75ZM90.3554 44.1786C85.956 44.1786 82.3896 47.745 82.3896 52.1443C82.3896 56.5437 85.956 60.11 90.3554 60.11C94.7548 60.11 98.3212 56.5437 98.3212 52.1443C98.3212 47.745 94.7548 44.1786 90.3554 44.1786ZM81.8896 52.1443C81.8896 47.4688 85.6799 43.6786 90.3554 43.6786C95.031 43.6786 98.8212 47.4688 98.8212 52.1443C98.8212 56.8198 95.031 60.61 90.3554 60.61C85.6799 60.61 81.8896 56.8198 81.8896 52.1443ZM44.6443 67.0346C40.2449 67.0346 36.6785 70.601 36.6785 75.0003C36.6785 79.3997 40.2449 82.966 44.6443 82.966C49.0437 82.966 52.6101 79.3997 52.6101 75.0003C52.6101 70.601 49.0437 67.0346 44.6443 67.0346ZM36.1785 75.0003C36.1785 70.3248 39.9688 66.5346 44.6443 66.5346C49.3198 66.5346 53.1101 70.3248 53.1101 75.0003C53.1101 79.6758 49.3198 83.466 44.6443 83.466C39.9688 83.466 36.1785 79.6758 36.1785 75.0003ZM90.3554 89.89C85.956 89.89 82.3896 93.4563 82.3896 97.8557C82.3896 102.255 85.956 105.821 90.3554 105.821C94.7548 105.821 98.3212 102.255 98.3212 97.8557C98.3212 93.4563 94.7548 89.89 90.3554 89.89ZM81.8896 97.8557C81.8896 93.1802 85.6799 89.39 90.3554 89.39C95.031 89.39 98.8212 93.1802 98.8212 97.8557C98.8212 102.531 95.031 106.321 90.3554 106.321C85.6799 106.321 81.8896 102.531 81.8896 97.8557Z" fill="white"/>
</svg>
