<?xml version="1.0" encoding="utf-8"?><svg width="100" height="100" viewBox="0 0 100 100" fill="none" xmlns="http://www.w3.org/2000/svg">
<circle cx="50" cy="50.0001" r="50" fill="#F2F9FF"/>
<path fill-rule="evenodd" clip-rule="evenodd" d="M25.6205 35.0432C25.6205 29.9567 29.6812 25.8333 34.6902 25.8333C39.6993 25.8333 43.76 29.9567 43.76 35.0432C43.76 40.1297 39.6993 44.2531 34.6902 44.2531C29.6812 44.2531 25.6205 40.1297 25.6205 35.0432ZM34.6902 30.084C31.993 30.084 29.8065 32.3043 29.8065 35.0432C29.8065 37.7821 31.993 40.0024 34.6902 40.0024C37.3874 40.0024 39.5739 37.7821 39.5739 35.0432C39.5739 32.3043 37.3874 30.084 34.6902 30.084Z" fill="#0085FF"/>
<path fill-rule="evenodd" clip-rule="evenodd" d="M56.2402 35.0432C56.2402 29.9567 60.3009 25.8333 65.31 25.8333C70.319 25.8333 74.3797 29.9567 74.3797 35.0432C74.3797 40.1297 70.319 44.2531 65.31 44.2531C60.3009 44.2531 56.2402 40.1297 56.2402 35.0432ZM65.31 30.084C62.6128 30.084 60.4262 32.3043 60.4262 35.0432C60.4262 37.7821 62.6128 40.0024 65.31 40.0024C68.0072 40.0024 70.1937 37.7821 70.1937 35.0432C70.1937 32.3043 68.0072 30.084 65.31 30.084Z" fill="#0085FF"/>
<path fill-rule="evenodd" clip-rule="evenodd" d="M49.9999 42.8362C44.9908 42.8362 40.9302 46.9596 40.9302 52.0461C40.9302 57.1325 44.9908 61.2559 49.9999 61.2559C55.009 61.2559 59.0697 57.1325 59.0697 52.0461C59.0697 46.9596 55.009 42.8362 49.9999 42.8362ZM45.1162 52.0461C45.1162 49.3072 47.3027 47.0869 49.9999 47.0869C52.6971 47.0869 54.8836 49.3072 54.8836 52.0461C54.8836 54.7849 52.6971 57.0052 49.9999 57.0052C47.3027 57.0052 45.1162 54.7849 45.1162 52.0461Z" fill="#0085FF"/>
<path d="M38.2777 73.7005C41.1438 71.3713 45.4541 69.7571 49.9996 69.7571C54.5443 69.7571 58.8553 71.3736 61.7224 73.7012C62.6252 74.4342 63.9423 74.2852 64.6641 73.3684C65.386 72.4516 65.2392 71.1141 64.3363 70.3812C60.69 67.4209 55.4456 65.5064 49.9996 65.5064C44.5545 65.5064 39.3094 67.4176 35.662 70.3819C34.7595 71.1153 34.6135 72.4528 35.3358 73.3692C36.0581 74.2857 37.3752 74.434 38.2777 73.7005Z" fill="#0085FF"/>
<path d="M66.7441 48.5036C65.5882 48.5036 64.6511 49.4551 64.6511 50.6289C64.6511 51.8027 65.5882 52.7543 66.7441 52.7543C70.5723 52.7543 74.1991 54.1161 76.5994 56.066C77.502 56.7993 78.8192 56.6507 79.5413 55.7341C80.2634 54.8175 80.117 53.48 79.2144 52.7468C76.0333 50.1626 71.4722 48.5036 66.7441 48.5036Z" fill="#0085FF"/>
<path d="M23.4006 56.066C25.8009 54.1161 29.4277 52.7543 33.2559 52.7543C34.4118 52.7543 35.3489 51.8027 35.3489 50.6289C35.3489 49.4551 34.4118 48.5036 33.2559 48.5036C28.5278 48.5036 23.9667 50.1626 20.7856 52.7468C19.883 53.48 19.7366 54.8175 20.4587 55.7341C21.1808 56.6507 22.498 56.7993 23.4006 56.066Z" fill="#0085FF"/>
</svg>
