<svg width="55" height="54" viewBox="0 0 55 54" fill="none" xmlns="http://www.w3.org/2000/svg">
<path d="M54.6667 27C54.6667 41.9117 42.5784 54 27.6667 54C12.755 54 0.666687 41.9117 0.666687 27C0.666687 12.0883 12.755 0 27.6667 0C42.5784 0 54.6667 12.0883 54.6667 27Z" fill="#F2F9FF"/>
<path fill-rule="evenodd" clip-rule="evenodd" d="M35.8608 15.358C38.0106 14.5624 40.1062 16.6546 39.308 18.8068L32.5447 37.0619C31.628 39.5331 28.0672 39.341 27.427 36.7816L25.5209 29.1674L17.8837 27.2478C17.8837 27.2478 17.8838 27.2478 17.8837 27.2478C15.3275 26.6056 15.1323 23.0482 17.6039 22.1308L35.8608 15.358ZM36.5636 17.2571C36.5635 17.2572 36.5637 17.2571 36.5636 17.2571L18.3085 24.0293C18.3085 24.0293 18.3086 24.0293 18.3085 24.0293C17.7023 24.2545 17.7501 25.1263 18.377 25.2838L26.6027 27.3513C26.9648 27.4424 27.2474 27.7253 27.3381 28.0874L29.3914 36.29C29.5477 36.915 30.4205 36.9658 30.6459 36.358L37.4093 18.103C37.6047 17.5761 37.0921 17.0618 36.5636 17.2571Z" fill="#0085FF"/>
</svg>
