<svg width="36" height="36" fill="none" xmlns="http://www.w3.org/2000/svg"><circle cx="18" cy="18" r="18" fill="#F2F9FF"></circle><path fill-rule="evenodd" clip-rule="evenodd" d="M22.674 11.726C22.674 10.22 23.911 9 25.437 9c1.526 0 2.763 1.22 2.763 2.726v12.548C28.2 25.78 26.963 27 25.437 27c-1.526 0-2.763-1.22-2.763-2.726V11.726zm2.763-1.239c-.694 0-1.256.555-1.256 1.24v12.547c0 .684.562 1.239 1.256 1.239s1.256-.555 1.256-1.24V11.728c0-.685-.562-1.24-1.256-1.24zM15.237 17.625c0-1.507 1.237-2.727 2.763-2.727 1.526 0 2.763 1.22 2.763 2.727v6.649C20.763 25.78 19.526 27 18 27c-1.526 0-2.763-1.22-2.763-2.726v-6.65zM18 16.385c-.694 0-1.256.555-1.256 1.24v6.649c0 .684.562 1.239 1.256 1.239s1.256-.555 1.256-1.24v-6.648c0-.685-.562-1.24-1.256-1.24zM10.563 20.533c-1.527 0-2.763 1.22-2.763 2.727v1.014C7.8 25.78 9.036 27 10.563 27c1.526 0 2.762-1.22 2.762-2.726V23.26c0-1.506-1.236-2.727-2.762-2.727zM9.307 23.26c0-.685.562-1.24 1.256-1.24s1.255.555 1.255 1.24v1.014c0 .684-.561 1.239-1.255 1.239a1.247 1.247 0 01-1.256-1.24V23.26z" fill="#0085FF"></path></svg>