<svg width="36" height="36" fill="none" xmlns="http://www.w3.org/2000/svg"><circle cx="18" cy="18" r="18" fill="#F2F9FF"></circle><path fill-rule="evenodd" clip-rule="evenodd" d="M24.332 10.127c1.584-.586 3.128.956 2.54 2.542L21.67 26.71c-.676 1.821-3.3 1.68-3.771-.206l-1.479-5.907-5.924-1.49c-1.884-.473-2.028-3.094-.207-3.77l14.043-5.21zm.48 1.299l-14.04 5.209c-.547.202-.504.988.06 1.13l6.328 1.59c.247.062.44.256.503.503l1.579 6.31c.14.563.927.608 1.13.06l5.202-14.04a.593.593 0 00-.762-.762z" fill="#0085FF"></path><path d="M17.899 26.504c.472 1.886 3.095 2.027 3.771.206l5.202-14.041c.588-1.586-.956-3.128-2.54-2.542l-14.043 5.21c-1.821.676-1.677 3.297.207 3.77m7.403 7.397s0 0 0 0zm0 0l-1.479-5.907-5.924-1.49m0 0s0 0 0 0zm14.316-7.681s0 0 0 0zm0 0l-14.04 5.209m14.04-5.21a.593.593 0 01.762.762L20.372 26.23c-.203.547-.99.502-1.13-.062l-1.58-6.309a.692.692 0 00-.502-.503l-6.327-1.59c-.565-.142-.608-.928-.062-1.13m0 0s0 0 0 0z" stroke="#0085FF" stroke-width=".3" stroke-miterlimit="10" stroke-linecap="round" stroke-linejoin="round"></path></svg>