<?xml version="1.0" encoding="utf-8"?><svg width="60" height="60" viewBox="0 0 60 60" fill="none" xmlns="http://www.w3.org/2000/svg">
<circle cx="30" cy="30" r="30" fill="#F2F9FF"/>
<path d="M41.6663 38.0137H39.9997C39.0797 38.0137 38.333 37.2772 38.333 36.3698V28.1507C38.333 27.2433 39.0797 26.5068 39.9997 26.5068H41.6663C43.508 26.5068 44.9997 27.9781 44.9997 29.7945V34.726C44.9997 36.5425 43.508 38.0137 41.6663 38.0137Z" stroke="#0085FF" stroke-width="2.5" stroke-linecap="round" stroke-linejoin="round"/>
<path d="M20 38.0137H18.3333C16.4917 38.0137 15 36.5425 15 34.726V29.7945C15 27.9781 16.4917 26.5068 18.3333 26.5068H20C20.92 26.5068 21.6667 27.2433 21.6667 28.1507V36.3698C21.6667 37.2772 20.92 38.0137 20 38.0137Z" stroke="#0085FF" stroke-width="2.5" stroke-linecap="round" stroke-linejoin="round"/>
<path d="M40.8336 26.5068V25.6849C40.8336 19.7836 35.9837 15 30.0003 15C24.017 15 19.167 19.7836 19.167 25.6849V26.5068" stroke="#0085FF" stroke-width="2.5" stroke-linecap="round" stroke-linejoin="round"/>
<path d="M31.0412 45H28.9578C27.8078 45 26.8745 44.0794 26.8745 42.9452C26.8745 41.8109 27.8078 40.8904 28.9578 40.8904H31.0412C32.1912 40.8904 33.1245 41.8109 33.1245 42.9452C33.1245 44.0794 32.1912 45 31.0412 45Z" stroke="#0085FF" stroke-width="2.5" stroke-linecap="round" stroke-linejoin="round"/>
<path d="M33.1255 42.9452H36.6672C38.5088 42.9452 40.0005 41.4739 40.0005 39.6575V38.0137" stroke="#0085FF" stroke-width="2.5" stroke-linecap="round" stroke-linejoin="round"/>
</svg>
