<?xml version="1.0" encoding="utf-8"?><svg width="60" height="60" viewBox="0 0 60 60" fill="none" xmlns="http://www.w3.org/2000/svg">
<circle cx="30" cy="30" r="30" fill="#F2F9FF"/>
<path fill-rule="evenodd" clip-rule="evenodd" d="M45.1152 17.0316C45.9056 16.6364 46.2259 15.6753 45.8307 14.8849C45.4356 14.0944 44.4745 13.7741 43.6842 14.1693L14.8848 28.57C14.0944 28.9652 13.7741 29.9264 14.1693 30.7168C14.5644 31.5072 15.5255 31.8276 16.3158 31.4324L26 26.5899V42.799H22.0001C21.1165 42.799 20.4001 43.5154 20.4001 44.3991C20.4001 45.2828 21.1165 45.9992 22.0001 45.9992H27.5478C27.5651 45.9997 27.5825 46 27.6 46C27.6174 46 27.6348 45.9997 27.6521 45.9992H37.9997C38.8834 45.9992 39.5997 45.2828 39.5997 44.3991C39.5997 43.5154 38.8834 42.799 37.9997 42.799H33.9998V22.5897L45.1152 17.0316ZM30.7999 24.1898L29.1999 24.9898V42.799H30.7999V24.1898Z" fill="#0085FF"/>
</svg>
