<svg width="150" height="150" viewBox="0 0 150 150" fill="none" xmlns="http://www.w3.org/2000/svg">
<path d="M150 75C150 116.421 116.421 150 75 150C33.5786 150 0 116.421 0 75C0 33.5786 33.5786 0 75 0C116.421 0 150 33.5786 150 75Z" fill="#F2F9FF"/>
<path d="M75.4613 112.576C85.0294 112.576 94.2888 108.873 101.696 101.774C116.203 87.2673 116.203 63.8101 101.696 49.3037C87.1899 34.7972 63.7327 34.7972 49.2263 49.3037C42.1274 56.4026 38.4236 65.662 38.4236 75.5387C38.4236 85.4154 42.1274 94.6748 49.2263 101.774C56.6338 108.873 65.8932 112.576 75.4613 112.576ZM75.4613 42.8221C83.7948 42.8221 92.1283 45.9086 98.6098 52.3901C111.264 65.0447 111.264 86.0327 98.6098 98.6873C85.9553 111.342 65.2759 111.342 52.3127 98.6873C46.1398 92.5143 42.7447 84.1808 42.7447 75.5387C42.7447 66.8966 46.1398 58.5631 52.3127 52.3901C58.7943 45.9086 67.1278 42.8221 75.4613 42.8221Z" fill="#0085FF"/>
<path fill-rule="evenodd" clip-rule="evenodd" d="M101.996 102.073L101.996 102.073C116.668 87.4013 116.668 63.6758 101.996 49.0039C87.3242 34.332 63.5987 34.332 48.9268 49.0039C41.7464 56.1843 38 65.5524 38 75.5386C38 85.5248 41.7464 94.8928 48.9268 102.073L48.9331 102.08L48.9332 102.08C56.417 109.252 65.7805 113 75.4614 113C85.1423 113 94.5058 109.252 101.99 102.08L101.996 102.073ZM75.4614 43.2457C83.689 43.2457 91.9127 46.292 98.3104 52.6896C110.799 65.1787 110.799 85.8984 98.3104 98.3875C85.8238 110.874 65.4113 110.88 52.6106 98.3856C46.5192 92.2932 43.1685 84.0687 43.1685 75.5386C43.1685 67.0076 46.5199 58.7822 52.6125 52.6896C59.0101 46.292 67.2338 43.2457 75.4614 43.2457ZM101.696 101.774C94.2889 108.872 85.0295 112.576 75.4614 112.576C65.8934 112.576 56.6339 108.872 49.2264 101.774C42.1275 94.6747 38.4237 85.4153 38.4237 75.5386C38.4237 65.6619 42.1275 56.4024 49.2264 49.3036C63.7328 34.7971 87.19 34.7971 101.696 49.3036C116.203 63.81 116.203 87.2672 101.696 101.774ZM98.61 52.39C92.1284 45.9084 83.7949 42.822 75.4614 42.822C67.1279 42.822 58.7945 45.9084 52.3129 52.39C46.1399 58.563 42.7448 66.8965 42.7448 75.5386C42.7448 84.1807 46.1399 92.5142 52.3129 98.6871C65.2761 111.342 85.9554 111.342 98.61 98.6871C111.265 86.0326 111.265 65.0446 98.61 52.39Z" fill="#0085FF"/>
<path d="M75.4627 96.5281C83.4875 96.5281 90.5864 91.8984 93.0556 84.4909C93.3642 83.2563 92.7469 82.0217 91.5124 81.7131C90.2778 81.4044 89.0432 82.0217 88.7345 83.2563C86.8826 89.4292 80.7097 92.2071 75.4627 92.2071C74.2281 92.2071 73.3022 93.133 73.3022 94.3676C73.3022 95.6022 74.2281 96.5281 75.4627 96.5281Z" fill="#0085FF"/>
<path fill-rule="evenodd" clip-rule="evenodd" d="M93.4628 84.6094L93.4667 84.5936C93.8229 83.1688 93.112 81.6761 91.6152 81.3019C90.1936 80.9465 88.7044 81.6535 88.326 83.1435C86.5429 89.0699 80.5926 91.7833 75.4627 91.7833C73.9941 91.7833 72.8785 92.8989 72.8785 94.3676C72.8785 95.8362 73.9941 96.9518 75.4627 96.9518C83.6481 96.9518 90.9242 92.2253 93.4576 84.6248L93.4628 84.6094ZM88.7346 83.2562C89.0432 82.0217 90.2778 81.4044 91.5124 81.713C92.747 82.0217 93.3643 83.2562 93.0557 84.4908C90.5865 91.8984 83.4876 96.5281 75.4627 96.5281C74.2282 96.5281 73.3022 95.6021 73.3022 94.3676C73.3022 93.133 74.2282 92.207 75.4627 92.207C80.7098 92.207 86.8827 89.4292 88.7346 83.2562Z" fill="#0085FF"/>
<path d="M62.0096 62.6335C59.2318 62.6335 56.454 63.8681 54.6021 66.3373C53.6762 67.2632 53.9848 68.4978 54.9108 69.4238C55.8367 70.3497 57.0713 70.041 57.9972 69.1151C58.9232 68.1892 60.1578 66.9546 62.0096 66.9546C63.5529 66.9546 65.0961 67.5719 66.0221 69.1151C66.6394 70.041 68.1826 70.041 69.1085 69.4238C70.0345 68.8065 70.0345 67.2632 69.4172 66.3373C67.5653 63.8681 64.7875 62.6335 62.0096 62.6335Z" fill="#0085FF"/>
<path fill-rule="evenodd" clip-rule="evenodd" d="M65.669 69.3505L65.6694 69.3503C66.0735 69.9564 66.7574 70.2268 67.4212 70.2711C68.0859 70.3154 68.7971 70.1407 69.3434 69.7765C69.9496 69.3724 70.22 68.6884 70.2642 68.0246C70.3085 67.3599 70.1338 66.6487 69.7696 66.1024L69.7565 66.0828L69.756 66.0832C67.8196 63.5012 64.9129 62.2099 62.0095 62.2099C59.1149 62.2099 56.217 63.4934 54.2805 66.0599C53.7399 66.6128 53.5476 67.2773 53.6424 67.9406C53.7359 68.5954 54.1027 69.2152 54.611 69.7235C55.1683 70.2808 55.8416 70.4795 56.5138 70.3835C57.1686 70.2899 57.7884 69.9232 58.2967 69.4149C59.2385 68.4731 60.3562 67.3784 62.0095 67.3784C63.4389 67.3784 64.8256 67.945 65.6586 69.3332L65.669 69.3505ZM54.602 66.3374C56.4539 63.8682 59.2317 62.6336 62.0095 62.6336C64.7873 62.6336 67.5652 63.8682 69.417 66.3374C70.0343 67.2634 70.0343 68.8066 69.1084 69.4239C68.1825 70.0412 66.6392 70.0412 66.0219 69.1152C65.096 67.572 63.5527 66.9547 62.0095 66.9547C60.1576 66.9547 58.923 68.1893 57.9971 69.1152C57.0711 70.0412 55.8366 70.3498 54.9106 69.4239C53.9847 68.4979 53.676 67.2634 54.602 66.3374Z" fill="#0085FF"/>
<path d="M89.1737 62.6335C86.3959 62.6335 83.6181 63.8681 81.7662 66.3373C80.8403 67.2632 81.1489 68.8065 82.0749 69.4238C83.0008 70.3497 84.2354 70.041 85.1613 69.1151C85.7786 68.1892 87.3219 66.9546 89.1737 66.9546C90.717 66.9546 92.2602 67.5719 93.1862 69.1151C93.8035 70.041 95.3467 70.041 96.2726 69.4238C97.1986 68.8065 97.1986 67.2632 96.5813 66.3373C94.7294 63.8681 91.9516 62.6335 89.1737 62.6335Z" fill="#0085FF"/>
<path fill-rule="evenodd" clip-rule="evenodd" d="M85.4907 69.3852L85.514 69.3503C86.0741 68.5101 87.4983 67.3784 89.1739 67.3784C90.6032 67.3784 91.99 67.945 92.8229 69.3332L92.8333 69.3505L92.8337 69.3503C93.2378 69.9564 93.9217 70.2268 94.5856 70.2711C95.2503 70.3154 95.9615 70.1407 96.5078 69.7765C97.1139 69.3724 97.3843 68.6884 97.4286 68.0246C97.4729 67.3599 97.2982 66.6487 96.934 66.1024L96.9209 66.0828L96.9204 66.0832C94.9839 63.5012 92.0773 62.2099 89.1739 62.2099C86.2792 62.2099 83.3812 63.4935 81.4448 66.06C80.3474 67.1858 80.7162 68.9939 81.8047 69.7525C82.3562 70.2877 83.0177 70.4778 83.6781 70.3835C84.333 70.2899 84.9527 69.9232 85.4611 69.4149L85.4907 69.3852ZM82.075 69.4239C81.149 68.8066 80.8404 67.2634 81.7663 66.3374C83.6182 63.8682 86.396 62.6336 89.1739 62.6336C91.9517 62.6336 94.7295 63.8682 96.5814 66.3374C97.1987 67.2634 97.1987 68.8066 96.2727 69.4239C95.3468 70.0412 93.8036 70.0412 93.1863 69.1152C92.2603 67.572 90.7171 66.9547 89.1739 66.9547C87.322 66.9547 85.7787 68.1893 85.1614 69.1152C84.2355 70.0412 83.0009 70.3498 82.075 69.4239Z" fill="#0085FF"/>
</svg>
