<svg width="60" height="60" viewBox="0 0 60 60" fill="none" xmlns="http://www.w3.org/2000/svg">
<rect width="60" height="60" rx="30" fill="#F2F9FF"/>
<path d="M18.9643 14.8097C19.2045 13.6945 20.7955 13.6945 21.0357 14.8097V14.8097C21.231 15.7167 22.4153 15.9523 22.9428 15.189V15.189C23.5915 14.2506 25.0614 14.8595 24.8565 15.9817V15.9817C24.6898 16.8945 25.6938 17.5653 26.4733 17.062V17.062C27.4317 16.4433 28.5567 17.5683 27.938 18.5267V18.5267C27.4347 19.3062 28.1055 20.3102 29.0183 20.1435V20.1435C30.1405 19.9386 30.7494 21.4085 29.811 22.0572V22.0572C29.0477 22.5847 29.2833 23.769 30.1903 23.9643V23.9643C31.3055 24.2045 31.3055 25.7955 30.1903 26.0357V26.0357C29.2833 26.231 29.0477 27.4153 29.811 27.9428V27.9428C30.7494 28.5915 30.1405 30.0614 29.0183 29.8565V29.8565C28.1055 29.6898 27.4347 30.6938 27.938 31.4733V31.4733C28.5567 32.4317 27.4317 33.5567 26.4733 32.938V32.938C25.6938 32.4347 24.6898 33.1055 24.8565 34.0183V34.0183C25.0614 35.1405 23.5915 35.7494 22.9428 34.811V34.811C22.4153 34.0477 21.231 34.2833 21.0357 35.1903V35.1903C20.7955 36.3055 19.2045 36.3055 18.9643 35.1903V35.1903C18.769 34.2833 17.5847 34.0477 17.0572 34.811V34.811C16.4085 35.7494 14.9386 35.1405 15.1435 34.0183V34.0183C15.3102 33.1055 14.3062 32.4347 13.5267 32.938V32.938C12.5683 33.5567 11.4433 32.4317 12.062 31.4733V31.4733C12.5653 30.6938 11.8945 29.6898 10.9817 29.8565V29.8565C9.85951 30.0614 9.25064 28.5915 10.189 27.9428V27.9428C10.9523 27.4153 10.7167 26.231 9.80969 26.0357V26.0357C8.69449 25.7955 8.69449 24.2045 9.80969 23.9643V23.9643C10.7167 23.769 10.9523 22.5847 10.189 22.0572V22.0572C9.25064 21.4085 9.85951 19.9386 10.9817 20.1435V20.1435C11.8945 20.3102 12.5653 19.3062 12.062 18.5267V18.5267C11.4433 17.5683 12.5683 16.4433 13.5267 17.062V17.062C14.3062 17.5653 15.3102 16.8945 15.1435 15.9817V15.9817C14.9386 14.8595 16.4085 14.2506 17.0572 15.189V15.189C17.5847 15.9523 18.769 15.7167 18.9643 14.8097V14.8097Z" fill="#0085FF"/>
<circle cx="20" cy="25" r="6" fill="#F2F9FF"/>
<path d="M37.9643 24.8097C38.2045 23.6945 39.7955 23.6945 40.0357 24.8097V24.8097C40.231 25.7167 41.4153 25.9523 41.9428 25.189V25.189C42.5915 24.2506 44.0614 24.8595 43.8565 25.9817V25.9817C43.6898 26.8945 44.6938 27.5653 45.4733 27.062V27.062C46.4317 26.4433 47.5567 27.5683 46.938 28.5267V28.5267C46.4347 29.3062 47.1055 30.3102 48.0183 30.1435V30.1435C49.1405 29.9386 49.7494 31.4085 48.811 32.0572V32.0572C48.0477 32.5847 48.2833 33.769 49.1903 33.9643V33.9643C50.3055 34.2045 50.3055 35.7955 49.1903 36.0357V36.0357C48.2833 36.231 48.0477 37.4153 48.811 37.9428V37.9428C49.7494 38.5915 49.1405 40.0614 48.0183 39.8565V39.8565C47.1055 39.6898 46.4347 40.6938 46.938 41.4733V41.4733C47.5567 42.4317 46.4317 43.5567 45.4733 42.938V42.938C44.6938 42.4347 43.6898 43.1055 43.8565 44.0183V44.0183C44.0614 45.1405 42.5915 45.7494 41.9428 44.811V44.811C41.4153 44.0477 40.231 44.2833 40.0357 45.1903V45.1903C39.7955 46.3055 38.2045 46.3055 37.9643 45.1903V45.1903C37.769 44.2833 36.5847 44.0477 36.0572 44.811V44.811C35.4085 45.7494 33.9386 45.1405 34.1435 44.0183V44.0183C34.3102 43.1055 33.3062 42.4347 32.5267 42.938V42.938C31.5683 43.5567 30.4433 42.4317 31.062 41.4733V41.4733C31.5653 40.6938 30.8945 39.6898 29.9817 39.8565V39.8565C28.8595 40.0614 28.2506 38.5915 29.189 37.9428V37.9428C29.9523 37.4153 29.7167 36.231 28.8097 36.0357V36.0357C27.6945 35.7955 27.6945 34.2045 28.8097 33.9643V33.9643C29.7167 33.769 29.9523 32.5847 29.189 32.0572V32.0572C28.2506 31.4085 28.8595 29.9386 29.9817 30.1435V30.1435C30.8945 30.3102 31.5653 29.3062 31.062 28.5267V28.5267C30.4433 27.5683 31.5683 26.4433 32.5267 27.062V27.062C33.3062 27.5653 34.3102 26.8945 34.1435 25.9817V25.9817C33.9386 24.8595 35.4085 24.2506 36.0572 25.189V25.189C36.5847 25.9523 37.769 25.7167 37.9643 24.8097V24.8097Z" fill="#0085FF"/>
<circle cx="39" cy="35" r="6" fill="#F2F9FF"/>
</svg>
