<?xml version="1.0" encoding="utf-8"?><svg width="100" height="100" viewBox="0 0 100 100" fill="none" xmlns="http://www.w3.org/2000/svg">
<circle cx="50" cy="50.0001" r="50" fill="#F2F9FF"/>
<path d="M60.174 41.6708C61.0138 42.5106 61.0138 43.8722 60.174 44.712L47.2896 57.5965C46.8863 57.9998 46.3393 58.2263 45.769 58.2263C45.1987 58.2263 44.6517 57.9998 44.2484 57.5965L36.5171 49.8652C35.6773 49.0254 35.6773 47.6638 36.5171 46.824C37.3569 45.9842 38.7185 45.9842 39.5583 46.824L45.769 53.0347L57.1328 41.6708C57.9726 40.831 59.3342 40.831 60.174 41.6708Z" fill="#0085FF"/>
<path fill-rule="evenodd" clip-rule="evenodd" d="M23 48.3444C23 34.3468 34.3467 23.0001 48.3443 23.0001C62.3418 23.0001 73.6886 34.3468 73.6886 48.3444C73.6886 54.569 71.4448 60.2693 67.722 64.6808L76.3701 73.329C77.2099 74.1688 77.2099 75.5304 76.3701 76.3702C75.5303 77.21 74.1688 77.21 73.329 76.3702L64.6808 67.722C60.2693 71.445 54.5689 73.6888 48.3443 73.6888C34.3467 73.6888 23 62.342 23 48.3444ZM48.3443 27.301C36.7221 27.301 27.3009 36.7222 27.3009 48.3444C27.3009 59.9667 36.7221 69.3879 48.3443 69.3879C59.9665 69.3879 69.3877 59.9667 69.3877 48.3444C69.3877 36.7222 59.9665 27.301 48.3443 27.301Z" fill="#0085FF"/>
</svg>
