<svg width="36" height="36" fill="none" xmlns="http://www.w3.org/2000/svg"><circle cx="18" cy="18" r="18" fill="#F2F9FF"></circle><path fill-rule="evenodd" clip-rule="evenodd" d="M9.224 12.616c0-1.832 1.461-3.316 3.265-3.316 1.803 0 3.265 1.484 3.265 3.316 0 1.83-1.462 3.315-3.265 3.315-1.804 0-3.265-1.484-3.265-3.315zm3.265-1.786c-.971 0-1.759.8-1.759 1.786s.788 1.785 1.759 1.785c.97 0 1.758-.8 1.758-1.785 0-.986-.787-1.786-1.758-1.786zM20.247 12.616c0-1.832 1.462-3.316 3.265-3.316 1.803 0 3.265 1.484 3.265 3.316 0 1.83-1.462 3.315-3.265 3.315-1.803 0-3.265-1.484-3.265-3.315zm3.265-1.786c-.971 0-1.758.8-1.758 1.786s.787 1.785 1.758 1.785c.97 0 1.758-.8 1.758-1.785 0-.986-.787-1.786-1.758-1.786zM18 15.421c-1.803 0-3.265 1.485-3.265 3.316 0 1.83 1.462 3.315 3.265 3.315 1.803 0 3.265-1.484 3.265-3.315S19.803 15.42 18 15.42zm-1.758 3.316c0-.986.787-1.786 1.758-1.786s1.758.8 1.758 1.786-.787 1.785-1.758 1.785c-.97 0-1.758-.8-1.758-1.785z" fill="#0085FF"></path><path d="M13.78 26.532c1.032-.838 2.584-1.42 4.22-1.42 1.636 0 3.188.583 4.22 1.42.325.264.8.21 1.06-.12a.773.773 0 00-.119-1.075c-1.312-1.065-3.2-1.755-5.16-1.755-1.961 0-3.85.688-5.163 1.755a.773.773 0 00-.117 1.076c.26.33.734.383 1.06.12zM24.028 17.461a.76.76 0 00-.753.766.76.76 0 00.753.765c1.378 0 2.684.49 3.548 1.192.325.264.8.21 1.06-.12a.773.773 0 00-.119-1.075c-1.145-.93-2.787-1.528-4.489-1.528zM8.424 20.184c.865-.702 2.17-1.192 3.548-1.192a.76.76 0 00.754-.765.76.76 0 00-.754-.766c-1.702 0-3.344.598-4.489 1.528a.773.773 0 00-.118 1.075c.26.33.734.384 1.06.12z" fill="#0085FF"></path></svg>