<svg width="55" height="54" viewBox="0 0 55 54" fill="none" xmlns="http://www.w3.org/2000/svg">
<ellipse cx="27.6667" cy="27" rx="27" ry="27" fill="#F2F9FF"/>
<path fill-rule="evenodd" clip-rule="evenodd" d="M35.0843 13.5C35.5813 13.5018 35.9827 13.9062 35.981 14.4032V14.4034C35.9749 15.9913 36.3595 17.0807 37.0358 17.784C37.7097 18.4847 38.8176 18.952 40.5839 18.9859C41.0782 18.9953 41.4723 19.4017 41.4666 19.896C41.461 20.3903 41.0577 20.7875 40.5634 20.7857C38.9507 20.7797 37.8898 21.2065 37.2046 21.905C36.5084 22.6146 36.0636 23.743 35.9799 25.4164C35.9555 25.9025 35.5492 26.2812 35.0626 26.2712C34.576 26.2613 34.1854 25.8663 34.181 25.3796C34.1667 23.7965 33.8044 22.6839 33.1414 21.9668C32.4923 21.2647 31.4088 20.7857 29.5953 20.7857C29.1006 20.7857 28.6987 20.3865 28.6953 19.8919C28.6919 19.3972 29.0883 18.9926 29.5829 18.9858C31.2146 18.9634 32.3235 18.56 33.0282 17.8791C33.7257 17.2052 34.1749 16.1162 34.181 14.3968V14.3966C34.1829 13.8996 34.5873 13.4982 35.0843 13.5ZM35.0766 18.1691C34.8542 18.5385 34.5889 18.8741 34.279 19.1736C34.0029 19.4404 33.6997 19.6702 33.3724 19.866C33.7802 20.1076 34.1443 20.4001 34.4631 20.7449C34.7263 21.0295 34.9499 21.3407 35.1381 21.6744C35.3572 21.2978 35.6167 20.9533 35.9197 20.6444C36.202 20.3567 36.5135 20.1085 36.8523 19.8983C36.438 19.6601 36.0658 19.3721 35.7384 19.0317C35.484 18.7671 35.2642 18.4787 35.0766 18.1691ZM19.8699 14.4C20.3669 14.4018 20.7683 14.8061 20.7666 15.3031L20.7666 15.3034C20.7574 17.7126 21.3406 19.4468 22.4439 20.594C23.5446 21.7385 25.3077 22.4489 27.9838 22.5001C28.4781 22.5096 28.8722 22.916 28.8665 23.4103C28.8609 23.9046 28.4576 24.3018 27.9632 24.3C25.5059 24.2908 23.8129 24.9426 22.696 26.0812C21.5682 27.2309 20.892 29.0144 20.7655 31.5449C20.7411 32.031 20.3348 32.4097 19.8482 32.3998C19.3615 32.3898 18.971 31.9948 18.9666 31.5081C18.945 29.1164 18.3979 27.3502 17.3176 26.1817C16.2512 25.0282 14.5178 24.3 11.7666 24.3C11.2719 24.3 10.87 23.9008 10.8666 23.4061C10.8632 22.9115 11.2596 22.5068 11.7542 22.5001C14.2249 22.4662 15.9858 21.8545 17.1336 20.7455C18.2741 19.6436 18.9574 17.9068 18.9666 15.2968L18.9666 15.2965C18.9685 14.7995 19.3729 14.3982 19.8699 14.4ZM19.859 19.9549C19.4862 20.7521 18.9962 21.4489 18.3843 22.04C17.8136 22.5914 17.1559 23.0325 16.4218 23.3734C17.2867 23.7679 18.026 24.2965 18.6393 24.9598C19.1896 25.555 19.6186 26.2377 19.9426 26.9922C20.317 26.1683 20.803 25.4405 21.4111 24.8206C21.9854 24.2352 22.6502 23.7647 23.3997 23.4044C22.528 23.0145 21.775 22.4952 21.1465 21.8417C20.614 21.288 20.188 20.6557 19.859 19.9549ZM31.8672 28.5889C31.869 28.0919 31.4676 27.6876 30.9706 27.6857C30.4736 27.6838 30.0692 28.0851 30.0672 28.5821L30.0672 28.5824C30.0593 30.7688 29.4871 32.1974 28.5569 33.0958C27.6194 34.0014 26.1682 34.5142 24.0967 34.5436C23.602 34.5506 23.2056 34.9556 23.2095 35.4504C23.2133 35.9452 23.6158 36.3441 24.1106 36.3435C26.4151 36.3404 27.8381 36.95 28.7056 37.8891C29.5875 38.8439 30.047 40.3012 30.0673 42.309C30.0722 42.7956 30.4629 43.1901 30.9493 43.1998C31.4358 43.2095 31.8419 42.8308 31.8661 42.3448C31.9722 40.2215 32.5377 38.7496 33.4599 37.8093C34.371 36.8803 35.7632 36.3356 37.8203 36.3435C38.3141 36.3453 38.7171 35.949 38.7237 35.4553C38.7302 34.9616 38.3377 34.5548 37.844 34.5437C35.5947 34.493 34.1424 33.8975 33.2453 32.9653C32.3464 32.0311 31.8593 30.6078 31.8672 28.5892V28.5889ZM29.8075 34.3905C30.2731 33.9407 30.6564 33.4215 30.9609 32.8369C31.225 33.341 31.5522 33.8017 31.9483 34.2134C32.4326 34.7166 33.0009 35.1268 33.6487 35.4482C33.1013 35.7408 32.6087 36.1066 32.1748 36.549C31.7149 37.0179 31.3368 37.5569 31.0335 38.1584C30.7706 37.6124 30.4386 37.1125 30.0278 36.6678C29.5578 36.159 29.0038 35.7429 28.3674 35.4181C28.8983 35.1434 29.3805 34.8029 29.8075 34.3905Z" fill="#0085FF"/>
</svg>
