<svg width="55" height="54" viewBox="0 0 55 54" fill="none" xmlns="http://www.w3.org/2000/svg">
<path d="M54.3334 27C54.3334 41.9117 42.2451 54 27.3334 54C12.4217 54 0.333374 41.9117 0.333374 27C0.333374 12.0883 12.4217 0 27.3334 0C42.2451 0 54.3334 12.0883 54.3334 27Z" fill="#F2F9FF"/>
<path d="M22.5046 15.5656C22.5046 14.9218 23.0265 14.3999 23.6703 14.3999C24.3141 14.3999 24.836 14.9218 24.836 15.5656L24.836 18.256C24.836 18.8998 24.3141 19.4217 23.6703 19.4217C23.0265 19.4217 22.5046 18.8998 22.5046 18.256L22.5046 15.5656Z" fill="#0085FF"/>
<path d="M32.7949 15.1358C34.4241 15.0582 36.0181 15.6267 37.2304 16.7178C37.261 16.7453 37.2901 16.7744 37.3175 16.8049C38.4077 18.0175 38.9755 19.6112 38.8977 21.2399C38.8204 22.8594 38.1109 24.3835 36.9224 25.4853L35.2562 27.1515C34.801 27.6067 34.0629 27.6067 33.6077 27.1515C33.1525 26.6963 33.1525 25.9582 33.6077 25.503L35.2892 23.8215C35.3009 23.8099 35.3127 23.7985 35.3248 23.7874C36.0735 23.0995 36.5205 22.1442 36.569 21.1287C36.6164 20.1359 36.2791 19.164 35.6289 18.4146L35.6296 18.414L35.6199 18.4056C34.8707 17.7549 33.8987 17.4172 32.9058 17.4645C31.8901 17.5129 30.9346 17.9601 30.2469 18.709C30.2357 18.7212 30.2242 18.7331 30.2126 18.7448L28.531 20.4263C28.0758 20.8816 27.3378 20.8816 26.8825 20.4263C26.4273 19.9711 26.4273 19.233 26.8825 18.7778L28.5463 17.1142L28.5486 17.1117C29.6504 15.9227 31.175 15.213 32.7949 15.1358Z" fill="#0085FF"/>
<path d="M16.1199 16.0865C16.5751 15.6313 17.3132 15.6313 17.7684 16.0865L21.8041 20.1222C22.2593 20.5774 22.2593 21.3155 21.8041 21.7707C21.3488 22.2259 20.6108 22.2259 20.1556 21.7707L16.1199 17.735C15.6647 17.2798 15.6647 16.5418 16.1199 16.0865Z" fill="#0085FF"/>
<path d="M14.4333 23.6369C14.4333 22.9931 14.9552 22.4712 15.599 22.4712H18.2894C18.9332 22.4712 19.4551 22.9931 19.4551 23.6369C19.4551 24.2806 18.9332 24.8025 18.2894 24.8025L15.599 24.8025C14.9552 24.8025 14.4333 24.2806 14.4333 23.6369Z" fill="#0085FF"/>
<path d="M18.8112 26.8491C19.2664 26.3939 20.0045 26.3939 20.4597 26.8491C20.9149 27.3044 20.9149 28.0424 20.4597 28.4976L18.7782 30.1792C18.7666 30.1908 18.7547 30.2022 18.7426 30.2133C17.9939 30.9012 17.5468 31.8568 17.4984 32.8724C17.4511 33.8653 17.7887 34.8372 18.4391 35.5866L18.4384 35.5872L18.4481 35.5956C19.1975 36.2458 20.1694 36.583 21.1621 36.5356C22.1776 36.4872 23.1329 36.0401 23.8208 35.2914C23.8319 35.2793 23.8432 35.2675 23.8549 35.2558L25.5364 33.5743C25.9916 33.1191 26.7297 33.1191 27.1849 33.5743C27.6401 34.0295 27.6401 34.7676 27.1849 35.2228L25.5211 36.8866L25.5187 36.8891C24.417 38.0776 22.8928 38.787 21.2733 38.8643C19.6446 38.9421 18.0509 38.3743 16.8383 37.2842C16.8077 37.2566 16.7785 37.2275 16.751 37.1968C15.6604 35.9843 15.0921 34.3905 15.1697 32.7615C15.2469 31.1418 15.9563 29.6173 17.145 28.5153L18.8112 26.8491Z" fill="#0085FF"/>
<path d="M34.6116 30.3629C34.6116 29.7192 35.1335 29.1973 35.7772 29.1973H38.4677C39.1115 29.1973 39.6333 29.7192 39.6333 30.3629C39.6333 31.0067 39.1115 31.5286 38.4677 31.5286H35.7772C35.1335 31.5286 34.6116 31.0067 34.6116 30.3629Z" fill="#0085FF"/>
<path d="M32.2625 32.2291C32.7177 31.7739 33.4557 31.7739 33.911 32.2291L37.9466 36.2647C38.4018 36.72 38.4018 37.458 37.9466 37.9132C37.4914 38.3685 36.7533 38.3685 36.2981 37.9132L32.2625 33.8776C31.8072 33.4224 31.8072 32.6843 32.2625 32.2291Z" fill="#0085FF"/>
<path d="M29.2307 35.7438C29.2307 35.1 29.7526 34.5781 30.3964 34.5781C31.0402 34.5781 31.562 35.1 31.562 35.7438L31.5621 38.4342C31.5621 39.078 31.0402 39.5999 30.3964 39.5999C29.7526 39.5999 29.2307 39.078 29.2307 38.4342V35.7438Z" fill="#0085FF"/>
</svg>
