<?xml version="1.0" encoding="utf-8"?><svg width="17" height="17" viewBox="0 0 17 17" fill="none" xmlns="http://www.w3.org/2000/svg">
<circle cx="8.5" cy="8.5" r="8.5" fill="#BE0004"/>
<path d="M6.61631 5.79835H10.3347C10.3347 5.78113 10.3347 5.72949 10.3692 5.66063H6.58188C6.5991 5.69506 6.61631 5.7467 6.61631 5.79835V5.79835ZM10.9201 6.17708C10.7995 6.17708 10.7823 6.14265 10.7823 6.14265V7.48541C10.7823 7.48541 10.834 7.4682 10.9028 7.4682V6.46973C10.6446 6.36644 10.9201 6.17708 10.9201 6.17708ZM6.23759 6.07379L6.16873 6.03936H6.15151C6.23759 6.19429 6.06544 6.15986 6.06544 6.15986C6.09987 6.19429 6.1343 6.21151 6.1343 6.21151C6.1343 6.21151 6.30645 6.33201 6.08265 6.4353V7.4682C6.15151 7.4682 6.18594 7.48541 6.20316 7.48541C6.20316 7.48541 6.2548 7.51984 6.28923 7.53706C6.30645 7.53706 6.30645 7.55427 6.30645 7.55427L6.34088 7.5887V7.70921C6.34088 7.70921 6.34088 7.72642 6.32366 7.72642C6.32366 7.72642 6.30645 7.74364 6.2548 7.72642V7.74364C6.27202 7.76085 6.30645 7.79528 6.30645 7.8125C6.30645 7.8125 6.32366 7.82971 6.32366 7.84693C6.32366 7.84693 6.32366 7.86414 6.34088 7.88136V8.01908C6.34088 8.03629 6.34088 8.03629 6.32366 8.05351L6.30645 8.07072C6.28923 8.08794 6.27202 8.08794 6.2548 8.08794C6.2548 8.08794 6.22037 8.08794 6.16873 8.07072H6.15151V8.1568C6.15151 8.19123 6.16873 8.22566 6.16873 8.26009V8.34616C6.16873 8.34616 6.16873 8.3978 6.15151 8.43223C6.11708 8.46666 6.01379 8.46666 6.01379 8.46666V8.93147C6.03101 9.56842 6.51303 9.86108 6.51303 9.86108C6.54746 9.87829 6.56467 9.89551 6.5991 9.91272C6.77125 10.0332 6.96061 10.1193 7.14998 10.2054C7.49428 10.3431 7.7525 10.3947 7.7525 10.3947C7.80415 10.412 7.85579 10.4292 7.90744 10.4292C8.33781 10.5152 8.85426 10.4292 8.85426 10.4292C9.00919 10.3947 9.1297 10.3603 9.21577 10.3431C9.26742 10.3259 9.30185 10.3087 9.33628 10.3087C9.37071 10.2914 9.40514 10.2914 9.40514 10.2914C9.49121 10.257 9.5945 10.2398 9.68057 10.2054C9.99044 10.0849 10.1798 9.96437 10.2487 9.91272C10.2659 9.89551 10.2831 9.89551 10.2831 9.89551C10.5585 9.68893 10.6446 9.55121 10.679 9.51678V9.49956C10.7651 9.37906 10.7995 9.22412 10.834 9.10362C10.834 9.05197 10.8512 9.01754 10.8512 8.98311V8.91425V8.89704V8.46666C10.8512 8.46666 10.8168 8.48388 10.7135 8.48388V8.9659C10.7135 9.4307 10.4208 9.6545 10.4208 9.6545L6.40974 5.93607V6.091C6.40974 6.091 6.40974 6.10822 6.39252 6.12543V6.14265C6.39252 6.14265 6.37531 6.14265 6.37531 6.15986C6.35809 6.15986 6.35809 6.14265 6.34088 6.14265L6.30645 6.12543L6.28923 6.10822C6.27202 6.091 6.2548 6.07379 6.23759 6.07379C6.23759 6.07379 6.2548 6.07379 6.23759 6.07379ZM3.91357 5.9705C4.03407 6.03936 4.18901 6.10822 4.30951 6.17708C4.4128 6.22872 4.55052 6.28037 4.61938 6.3148C4.77432 6.38366 4.96368 6.45252 5.11861 6.50416C5.30798 6.57302 5.4457 6.62467 5.60063 6.71074C5.58342 6.6591 5.58342 6.59024 5.5662 6.53859C5.53177 6.41809 5.13583 6.28037 4.79153 6.14265C4.6366 6.091 4.49888 6.02214 4.34394 5.95328C4.20622 5.88442 4.10293 5.79835 3.96521 5.7467C3.89635 5.71227 3.81028 5.6262 3.75863 5.59177C3.68977 5.54012 3.55205 5.45405 3.46598 5.38519C3.3799 5.31633 3.31105 5.21304 3.22497 5.14418C3.20776 5.21304 3.17333 5.33354 3.20776 5.36797C3.34548 5.69506 3.63813 5.81556 3.91357 5.9705V5.9705Z" fill="white"/>
<path d="M3.31105 5.93607C3.44877 6.05658 3.62092 6.15987 3.81028 6.24594C4.01686 6.34923 4.24065 6.45252 4.48166 6.5386C4.61938 6.59024 4.7571 6.6591 4.87761 6.71075C4.96368 6.74518 5.04976 6.76239 5.11862 6.79682C5.27355 6.86568 5.41127 6.93454 5.56621 7.0034C5.61785 7.02062 5.65228 7.07226 5.66949 7.07226C5.70392 7.07226 5.65228 6.86568 5.63506 6.84847C5.58342 6.81404 5.30798 6.67632 5.20469 6.64189C4.99811 6.57303 4.79153 6.48695 4.60217 6.40088C4.51609 6.36645 4.4128 6.3148 4.32673 6.26316C4.17179 6.1943 3.948 6.09101 3.79307 6.00493C3.67256 5.93607 3.58649 5.88443 3.4832 5.81557C3.27662 5.69506 3.19054 5.52291 3.17333 5.54013C3.15611 5.59177 3.1389 5.72949 3.17333 5.78114C3.19054 5.81557 3.27662 5.90164 3.31105 5.93607V5.93607ZM4.49888 4.66217C4.7571 4.78267 4.49888 4.83432 4.32673 4.83432C4.39559 4.86875 4.49888 4.90318 4.53331 4.98925C4.55052 4.85153 4.73989 4.79989 4.99811 4.92039C5.06697 4.95482 5.20469 5.07533 4.99811 5.09254C5.03254 5.14419 5.08419 5.14419 5.06697 5.23026C5.04976 5.41963 4.6366 5.29912 4.53331 5.24748L4.43002 5.14419V5.26469C4.4128 5.33355 4.37837 5.3852 4.36116 5.43684C4.32673 5.64342 4.58495 5.69506 4.73989 5.69506C4.7571 5.71228 4.7571 5.74671 4.7571 5.76392C4.7571 5.79835 4.77432 5.83278 4.82596 5.81557C4.86039 5.78114 4.84318 5.67785 4.82596 5.6262C4.80875 5.57456 4.73989 5.66063 4.72267 5.57456C4.72267 5.47127 4.80875 5.59177 4.77432 5.41963C4.77432 5.3852 4.79153 5.3852 4.82596 5.40241C4.82596 5.43684 4.82596 5.45405 4.80875 5.47127C4.79153 5.5057 4.79153 5.52291 4.79153 5.54013C5.04976 5.66063 5.39406 5.78114 5.56621 5.43684C5.60064 5.3852 5.58342 5.31634 5.54899 5.26469C5.51456 5.21305 5.46292 5.17862 5.39406 5.17862C5.3252 5.17862 5.27355 5.1614 5.20469 5.21305C5.39406 5.24748 5.37684 5.41963 5.17026 5.43684C5.11862 5.43684 5.03254 5.45405 4.99811 5.41963V5.3852C5.13583 5.33355 5.1014 5.28191 5.13583 5.14419C5.13583 5.09254 5.18748 5.0409 5.17026 4.97204C5.15305 4.86875 4.84318 4.76546 4.70546 4.73103C4.65381 4.73103 4.65381 4.66217 4.61938 4.62774C4.51609 4.54166 4.2923 4.52445 4.15458 4.52445C3.98243 4.52445 3.98243 4.54166 4.01686 4.59331C4.0685 4.67938 4.32673 4.59331 4.49888 4.66217V4.66217ZM4.55052 5.59177C4.51609 5.59177 4.49888 5.57456 4.48166 5.57456C4.48166 5.55734 4.46445 5.54013 4.48166 5.54013C4.49888 5.54013 4.53331 5.52291 4.56774 5.54013C4.6366 5.52291 4.58495 5.59177 4.55052 5.59177ZM4.65381 5.60899C4.6366 5.60899 4.6366 5.57456 4.67103 5.55734C4.68824 5.55734 4.67103 5.60899 4.65381 5.60899ZM4.51609 5.40241C4.49888 5.40241 4.49888 5.33355 4.56774 5.33355C4.58495 5.33355 4.65381 5.36798 4.68824 5.36798C4.7571 5.3852 4.55052 5.3852 4.51609 5.40241ZM3.32826 6.67632C3.22497 6.62467 3.05282 6.50417 3.00118 6.45252C2.96675 6.41809 2.86346 6.34923 2.81181 6.3148C2.72574 6.24594 2.63966 6.12544 2.65688 6.1943C2.69131 6.29759 2.74295 6.40088 2.7946 6.50417C2.86346 6.60746 2.98396 6.71075 3.08725 6.77961C3.15611 6.81404 3.2594 6.86568 3.31105 6.91733C3.36269 6.96897 3.41434 7.10669 3.41434 7.17555C3.53484 7.74364 3.24219 8.19123 3.03561 8.51832C2.98396 8.60439 2.9151 8.67325 2.86346 8.77654C2.7946 8.98312 2.89789 9.27577 3.15611 9.17248C3.39712 9.03476 3.2594 8.81097 3.37991 8.56996C3.44877 8.43224 3.56927 8.48389 3.6037 8.41503C3.62092 8.36338 3.65535 8.27731 3.68978 8.20845C3.75864 8.05351 3.87914 7.86415 3.91357 7.76086C3.93079 7.70921 3.96521 7.45099 3.948 7.38213C3.948 7.36491 3.84471 7.31327 3.8275 7.29605C3.93079 7.64035 3.79307 7.89858 3.6037 8.13959C3.55206 8.19123 3.51763 8.31174 3.50041 8.34617C3.39712 8.34617 3.29383 8.48389 3.27662 8.53553C3.20776 8.67325 3.24219 8.87983 3.17333 9.00033C3.1389 9.05198 3.03561 9.10362 2.98396 9.03476C2.94953 8.98312 2.94953 8.8454 2.98396 8.77654C3.03561 8.65604 3.1389 8.56996 3.19054 8.46667C3.32826 8.24288 3.44877 7.98465 3.51763 7.692C3.55206 7.50263 3.53484 7.27884 3.50041 7.08948C3.4832 7.0034 3.43155 6.91733 3.39712 6.83125C3.36269 6.79682 3.34548 6.72796 3.32826 6.67632V6.67632ZM3.65535 5.14419C3.72421 5.21305 3.74142 5.21305 3.70699 5.10976C3.68978 5.07533 3.70699 5.0409 3.70699 5.02368C3.68978 5.00647 3.65535 4.98925 3.63813 4.97204C3.56927 4.92039 3.51763 4.8171 3.53484 4.6966C3.55206 4.62774 3.55206 4.59331 3.6037 4.61052C3.63813 4.62774 3.70699 4.6966 3.72421 4.73103C3.81028 4.83432 3.77585 4.90318 3.79307 5.00647C3.79307 5.09254 3.81028 5.1614 3.87914 5.26469C3.89636 5.28191 3.93079 5.31634 3.93079 5.29912C3.93079 5.28191 3.948 5.1614 3.96521 5.14419C3.98243 5.12697 4.03407 5.02368 4.05129 4.93761C4.0685 4.83432 4.03407 4.73103 3.98243 4.64495C3.91357 4.52445 3.86193 4.50723 3.70699 4.50723C3.67256 4.50723 3.6037 4.50723 3.58649 4.52445C3.50041 4.61052 3.44877 4.73103 3.46598 4.85153C3.4832 4.98925 3.58649 5.05811 3.65535 5.14419V5.14419Z" fill="white"/>
<path d="M3.48321 5.33353C3.67257 5.50568 3.91358 5.6434 4.13738 5.79834C4.24067 5.8672 4.44725 5.97049 4.48168 5.97049C4.49889 5.97049 4.55054 6.00492 4.58497 6.02213C4.6194 6.03935 5.20471 6.26314 5.25635 6.28035C5.34243 6.29757 5.44572 6.38364 5.44572 6.36643C5.41129 6.24592 5.34243 6.17706 5.27357 6.1082C5.18749 6.03935 5.06699 5.97049 4.94648 5.93606C4.84319 5.90163 4.72269 5.84998 4.60218 5.81555C4.2751 5.69505 3.99966 5.50568 3.74143 5.31632C3.68979 5.28189 3.63815 5.21303 3.5865 5.1786C3.51764 5.12695 3.44878 5.05809 3.39714 4.98923C3.36271 4.93759 3.36271 4.85151 3.36271 4.78265C3.34549 4.8343 3.29385 4.93759 3.27663 5.00645C3.27663 5.05809 3.27663 5.07531 3.31106 5.12695C3.36271 5.21303 3.43157 5.28189 3.48321 5.33353V5.33353ZM4.55054 7.39933C4.65383 7.39933 4.84319 7.41654 5.04977 7.43376C5.11863 7.43376 4.89484 7.34768 4.79155 7.31325C4.67104 7.27882 4.55054 7.22718 4.43003 7.19275C4.22345 7.12389 4.06852 7.05503 3.86194 6.98617C3.72422 6.93452 3.65536 6.88288 3.60371 6.84845C3.5865 6.83123 3.466 6.74516 3.48321 6.7968C3.50043 6.84845 3.51764 6.86566 3.55207 6.93452C3.68979 7.24439 4.18902 7.38211 4.55054 7.39933V7.39933ZM3.25942 6.55579C3.25942 6.50415 3.19056 6.40086 3.17334 6.36643C3.13891 6.29757 3.13891 6.26314 3.1217 6.22871C3.08727 6.21149 3.00119 6.14263 2.94955 6.09099C2.79461 5.9877 2.69132 5.79834 2.60525 5.71226C2.58803 5.71226 2.57082 5.84998 2.58803 5.90163C2.65689 6.12542 2.84626 6.28035 3.25942 6.55579V6.55579ZM13.9155 5.83277C13.9155 5.90163 13.881 6.02213 13.881 6.07378C13.8983 6.1082 14.2598 5.71226 14.2942 5.57454C14.3114 5.5229 14.2426 5.43682 14.2081 5.38518C14.1737 5.45404 14.1393 5.5229 14.1048 5.57454C13.9327 5.78112 13.9327 5.76391 13.9155 5.83277V5.83277ZM13.9327 5.45404C13.9327 5.50568 13.9499 5.55733 13.9499 5.62619C13.9671 5.6434 14.1048 5.41961 14.1048 5.38518C14.1565 5.28189 14.0876 5.21303 14.0188 5.1786C13.9843 5.21303 13.9499 5.26467 13.9499 5.2991C13.9155 5.31632 13.9155 5.35075 13.9327 5.45404V5.45404ZM13.7605 5.91884C13.4162 6.24592 12.6588 6.55579 12.4006 6.64187C12.1079 6.74516 11.8325 6.88288 11.557 7.00338C11.5054 7.0206 11.1955 7.17553 11.1783 7.20996V7.38211C11.4537 7.22718 11.7636 7.10667 12.039 6.96895C12.2456 6.88288 12.4866 6.81402 12.7104 6.74516C13.0031 6.64187 13.2785 6.52136 13.5367 6.34921C13.64 6.28035 13.7089 6.21149 13.7433 6.12542C13.7605 6.07378 13.7778 5.9877 13.7605 5.91884V5.91884ZM13.3129 7.05503C13.3818 6.96895 13.4335 6.88288 13.4679 6.76237C13.1064 7.00338 12.676 7.12389 12.2456 7.26161C12.1079 7.31325 11.7808 7.43376 11.8669 7.41654C12.1595 7.3649 12.4178 7.41654 12.6588 7.3649C12.9514 7.31325 13.158 7.24439 13.3129 7.05503V7.05503ZM13.9155 5.21303C13.9327 5.16138 13.9843 5.07531 13.8466 5.05809C13.8122 5.04088 13.795 5.07531 13.8638 5.14417C13.881 5.16138 13.881 5.24746 13.9155 5.21303V5.21303ZM3.05284 5.21303C3.07005 5.21303 3.07005 5.16138 3.08727 5.16138C3.10448 5.12695 3.1217 5.09252 3.1217 5.07531C3.1217 5.05809 3.1217 5.05809 3.10448 5.05809C3.10448 5.05809 3.00119 5.07531 3.00119 5.10974C3.00119 5.14417 3.01841 5.21303 3.05284 5.21303V5.21303ZM4.13738 6.72794C4.43003 6.83123 4.70547 6.90009 4.79155 6.95174C4.87762 6.98617 4.99813 7.03781 5.0842 7.07224C5.32521 7.17553 5.56622 7.29604 5.75558 7.39933C5.7728 7.39933 5.75558 7.20996 5.70394 7.17553C5.53179 7.08946 5.35964 6.98617 5.18749 6.91731C4.99813 6.83123 4.79155 6.74516 4.60218 6.65908C4.51611 6.62465 4.44725 6.59022 4.34396 6.55579C4.2751 6.52136 4.20624 6.50415 4.13738 6.46972C3.63814 6.29757 3.36271 6.05656 3.27663 6.00492C3.25942 5.9877 3.19056 5.93606 3.17334 5.91884C3.15613 5.91884 3.17334 6.00492 3.17334 6.00492C3.19056 6.12542 3.22499 6.17706 3.29385 6.24592C3.36271 6.332 3.50043 6.40086 3.62093 6.4525C3.79308 6.57301 3.96523 6.65908 4.13738 6.72794V6.72794ZM3.00119 5.59176C3.01841 5.55733 3.01841 5.48847 3.01841 5.40239C3.01841 5.2991 3.00119 5.26467 2.96676 5.21303C2.94955 5.19581 2.94955 5.16138 2.93233 5.16138C2.8979 5.1786 2.82904 5.23024 2.82904 5.28189C2.82904 5.33353 2.86347 5.40239 2.88069 5.45404C2.91512 5.48847 2.98398 5.60897 3.00119 5.59176V5.59176Z" fill="white"/>
<path d="M13.2441 8.24287C13.2957 8.36338 13.3301 8.46667 13.3473 8.46667C13.3646 8.48388 13.399 8.48388 13.4334 8.48388C13.4851 8.5011 13.5539 8.56996 13.5711 8.6216C13.6572 8.81097 13.5711 9.17248 13.8294 9.20691C13.9154 9.22412 14.0015 9.18969 14.0359 9.13805C14.0876 9.0864 14.1048 8.98311 14.1048 8.87983C14.0532 8.65603 13.9327 8.56996 13.8466 8.41502C13.64 8.12237 13.3301 7.41656 13.64 6.93454C13.6916 6.84846 13.8294 6.81403 13.9154 6.76239C14.0015 6.71074 14.0876 6.60745 14.1564 6.53859C14.1909 6.50416 14.3458 6.22872 14.2942 6.19429C14.1564 6.33201 14.0015 6.45252 13.8294 6.57302C13.7605 6.60745 13.6744 6.64188 13.6228 6.71074C13.5711 6.7796 13.5539 6.86568 13.5195 6.93454C13.2613 7.50263 13.5195 8.20844 13.8121 8.60439C13.8638 8.67325 14.0876 8.98311 13.9154 9.10362C13.8638 9.13805 13.7777 9.10362 13.7605 9.05197C13.6916 8.93147 13.7261 8.72489 13.6744 8.58717C13.6572 8.53553 13.5884 8.44945 13.5195 8.43224C13.5023 8.41502 13.4678 8.43224 13.4506 8.41502C13.4334 8.39781 13.399 8.32895 13.3646 8.2773C13.2785 8.13958 13.1408 7.98465 13.0891 7.79528C13.0547 7.67478 13.0375 7.55427 13.0719 7.43377C13.0719 7.39934 13.0891 7.36491 13.1063 7.3477C13.1235 7.31327 12.9514 7.39934 12.9514 7.45098C12.9514 7.53706 12.9686 7.64035 12.9686 7.74364C13.0203 7.82971 13.158 8.05351 13.2441 8.24287V8.24287ZM2.70851 5.71228C2.79458 5.85 2.96673 6.02214 3.0528 6.07379L3.01837 5.90164C3.01837 5.86721 3.01837 5.81557 2.98394 5.76392C2.94951 5.69506 2.79458 5.55734 2.76015 5.38519C2.72572 5.35076 2.65686 5.52291 2.65686 5.57456C2.65686 5.60899 2.69129 5.67785 2.70851 5.71228ZM12.9342 5.00646C12.9514 5.07532 13.0203 5.14418 13.0203 5.23026C13.003 5.31633 13.0375 5.33355 13.0891 5.26469C13.2441 5.04089 13.1063 4.92039 13.2268 4.74824C13.2613 4.67938 13.3473 4.57609 13.3818 4.64495C13.4334 4.78267 13.399 4.88596 13.3646 4.9376C13.3129 5.00646 13.2268 5.02368 13.2268 5.14418C13.2268 5.19583 13.2096 5.23026 13.2441 5.21304C13.2957 5.1614 13.399 5.07532 13.4506 4.97203C13.5195 4.86874 13.4678 4.61052 13.3818 4.55887C13.3473 4.54166 13.2441 4.52444 13.158 4.52444C13.0891 4.54166 13.0375 4.57609 13.003 4.64495C12.9342 4.71381 12.8825 4.85153 12.9342 5.00646Z" fill="white"/>
<path d="M13.1752 5.33353C12.917 5.5229 12.6244 5.69505 12.3317 5.81555C12.1079 5.90163 11.8841 5.93606 11.712 6.07378C11.6259 6.14263 11.4537 6.38364 11.4882 6.36643C11.8153 6.21149 12.1768 6.09099 12.5039 5.95327C12.8826 5.78112 13.2097 5.55733 13.5023 5.2991C13.554 5.24746 13.6745 5.14417 13.6745 5.07531C13.6917 4.98923 13.6228 4.8343 13.5712 4.78265C13.5367 4.79987 13.5712 4.9548 13.5023 5.02366C13.4507 5.07531 13.2269 5.2991 13.1752 5.33353V5.33353ZM7.27051 5.55733L7.61481 5.41961L7.27051 5.28189L6.92621 5.41961L7.27051 5.55733ZM13.7778 6.31478C13.7433 6.40086 13.7089 6.46972 13.6745 6.53858C13.6745 6.57301 14.2598 6.17706 14.3459 5.95327C14.3631 5.88441 14.3631 5.76391 14.3459 5.71226C14.277 5.79834 14.2081 5.90163 14.1393 5.97049C13.9843 6.14263 13.8466 6.17706 13.7778 6.31478V6.31478ZM13.4507 5.81555C12.917 6.14263 12.3317 6.41807 11.6947 6.64187C11.6087 6.6763 11.2816 6.83123 11.2644 6.84845C11.2299 6.91731 11.2127 7.00338 11.2127 7.07224C11.3505 7.00338 11.5915 6.88288 11.7808 6.7968C12.3661 6.55579 13.0031 6.36643 13.4851 6.02213C13.5884 5.95327 13.6917 5.88441 13.7605 5.79834C13.8122 5.72948 13.7778 5.59176 13.7605 5.5229C13.6745 5.62619 13.5712 5.74669 13.4507 5.81555Z" fill="white"/>
<path d="M13.3474 5.52292C13.2613 5.59178 12.8482 5.85001 12.6416 5.97051C12.3834 6.10823 12.0907 6.21152 11.8325 6.2976C11.6948 6.34924 11.4021 6.48696 11.4021 6.53861C11.3849 6.60747 11.3505 6.67632 11.3333 6.74518C11.6603 6.59025 11.7464 6.57304 12.1079 6.43532C12.2456 6.38367 12.5039 6.28038 12.5383 6.24595C12.7793 6.14266 13.0031 6.00494 13.1753 5.91887C13.4507 5.78115 13.6917 5.55735 13.7606 5.41963C13.795 5.33356 13.7606 5.24748 13.7433 5.17862C13.7261 5.17862 13.5368 5.3852 13.3474 5.52292V5.52292ZM8.44114 5.24748C8.30342 5.2647 8.1657 5.28191 8.07963 5.33356C8.02798 5.36799 8.02798 5.43685 8.02798 5.43685C8.02798 5.47128 8.11406 5.52292 8.14849 5.52292C8.35507 5.59178 8.66494 5.57457 8.83709 5.48849C8.88873 5.47128 8.95759 5.41963 8.90595 5.35077C8.8543 5.28191 8.59608 5.24748 8.44114 5.24748ZM8.80266 5.43685C8.76823 5.47128 8.63051 5.50571 8.49279 5.50571C8.32064 5.50571 8.1657 5.48849 8.1657 5.43685C8.1657 5.41963 8.18292 5.40242 8.23456 5.3852C8.30342 5.36799 8.40671 5.35077 8.51 5.35077C8.63051 5.35077 8.80266 5.35077 8.81987 5.41963L8.80266 5.43685ZM12.1768 5.54014C12.1768 5.50571 12.1768 5.48849 12.1596 5.47128C12.1424 5.43685 12.1424 5.41963 12.1424 5.40242C12.1768 5.3852 12.2112 5.3852 12.194 5.41963C12.1768 5.59178 12.2629 5.47128 12.2456 5.57457C12.2456 5.66064 12.1768 5.57457 12.1424 5.62621C12.1251 5.67786 12.1079 5.78115 12.1424 5.81558C12.194 5.81558 12.2112 5.79836 12.2112 5.76393C12.2112 5.7295 12.2112 5.71229 12.2284 5.69507C12.3834 5.69507 12.6416 5.64343 12.5899 5.45406C12.5727 5.3852 12.5383 5.33356 12.5211 5.28191V5.16141C12.4867 5.19584 12.4522 5.23027 12.4178 5.24748C12.3145 5.31634 11.9013 5.41963 11.8841 5.23027C11.8841 5.14419 11.9186 5.14419 11.953 5.09255C11.7636 5.07534 11.9013 4.95483 11.953 4.9204C12.194 4.78268 12.3834 4.85154 12.4178 4.98926C12.4522 4.9204 12.5555 4.86876 12.6244 4.83433C12.4522 4.83433 12.1768 4.78268 12.4522 4.66218C12.6244 4.5761 12.8826 4.67939 12.917 4.61053C12.9515 4.55889 12.9515 4.54167 12.7793 4.54167C12.6416 4.54167 12.4178 4.55889 12.3145 4.64496C12.2973 4.66218 12.2801 4.73104 12.2456 4.74825C12.1079 4.76547 11.8153 4.88597 11.7808 4.98926C11.7636 5.07534 11.8153 5.10976 11.8153 5.16141C11.8325 5.31634 11.7981 5.35077 11.953 5.40242V5.43685C11.9186 5.47128 11.8325 5.47128 11.7808 5.45406C11.5915 5.43685 11.557 5.2647 11.7464 5.23027C11.6948 5.16141 11.6431 5.17862 11.5743 5.17862C11.5054 5.19584 11.4538 5.21305 11.4193 5.2647C11.3849 5.31634 11.3849 5.3852 11.4021 5.43685C11.5743 5.76393 11.9358 5.67786 12.1768 5.54014V5.54014ZM12.3145 5.609C12.2973 5.609 12.2801 5.55735 12.2973 5.55735C12.3489 5.57457 12.3317 5.59178 12.3145 5.609ZM12.4694 5.55735C12.4694 5.57457 12.435 5.57457 12.4006 5.57457C12.3662 5.57457 12.3145 5.50571 12.3662 5.50571H12.4522C12.5039 5.52292 12.4867 5.54014 12.4694 5.55735V5.55735ZM12.2973 5.36799C12.3317 5.36799 12.4006 5.33356 12.4178 5.33356C12.4694 5.33356 12.4867 5.3852 12.4694 5.40242C12.435 5.3852 12.2112 5.3852 12.2973 5.36799ZM9.6634 5.55735L10.0077 5.41963L9.6634 5.28191L9.31911 5.41963L9.6634 5.55735Z" fill="white"/>
<path d="M5.48013 5.66062C5.4457 5.72948 5.46292 5.81556 5.48013 5.90163C5.41127 5.93606 5.35963 5.98771 5.3252 6.05657C5.34241 6.07378 5.35963 6.10821 5.37684 6.10821C5.41127 6.10821 5.42849 6.091 5.42849 6.07378C5.46292 6.03935 5.5662 5.95328 5.58342 5.91885C5.60063 5.90163 5.58342 5.84999 5.58342 5.81556C5.53177 5.69505 5.61785 5.67784 5.65228 5.66062C5.72114 5.64341 5.75557 5.67784 5.79 5.62619C5.80721 5.60898 5.79 5.57455 5.79 5.54012C5.80721 5.41962 5.92772 5.41962 6.01379 5.47126C6.06544 5.50569 6.11708 5.50569 6.16873 5.45405C6.22037 5.4024 6.32366 5.41962 6.37531 5.50569C6.28923 5.52291 6.23759 5.57455 6.23759 5.64341C6.16873 5.60898 6.1343 5.62619 6.09987 5.64341C6.03101 5.67784 5.99658 5.72948 5.96215 5.78113C5.94493 5.78113 5.9105 5.76391 5.87607 5.78113C5.80721 5.79834 5.73835 5.8672 5.73835 5.93606C5.73835 6.00492 5.80721 6.05657 5.84164 6.091C5.92772 6.17707 5.79 6.14264 5.77278 6.2115C5.75557 6.28036 5.80721 6.34922 5.72114 6.34922C5.65228 6.34922 5.61785 6.24593 5.58342 6.26315C5.58342 6.28036 5.5662 6.40087 5.58342 6.38365C5.63506 6.36644 5.66949 6.41808 5.70392 6.41808C5.77278 6.41808 5.80721 6.40087 5.84164 6.40087C5.87607 6.40087 5.9105 6.4353 5.96215 6.4353C5.99658 6.45251 6.06544 6.4353 6.08265 6.4353C6.30645 6.33201 6.1343 6.2115 6.1343 6.2115C6.1343 6.2115 6.09987 6.17707 6.06544 6.15986C6.06544 6.15986 6.2548 6.19429 6.15151 6.03935H6.16873L6.22037 6.05657H6.23759C6.2548 6.05657 6.2548 6.07378 6.27202 6.07378L6.30645 6.091C6.32366 6.091 6.32366 6.10821 6.34088 6.10821C6.34088 6.10821 6.35809 6.10821 6.35809 6.091L6.37531 6.07378C6.37531 6.05657 6.37531 6.05657 6.39252 6.03935V5.88442C6.39252 5.84999 6.39252 5.83277 6.37531 5.79834C6.4786 5.79834 6.4786 5.90163 6.53024 5.88442C6.54746 5.8672 6.56467 5.79834 6.58189 5.7467C6.58189 5.69505 6.56467 5.66062 6.54746 5.60898C6.54746 5.60898 6.4786 5.50569 6.4786 5.48848C6.46138 5.45405 6.46138 5.41962 6.44417 5.38519C6.42695 5.36797 6.35809 5.31633 6.35809 5.2819C6.35809 5.21304 6.35809 5.09253 6.39252 5.09253C7.13276 5.09253 9.74944 5.07532 10.3864 5.07532C10.4725 5.07532 10.5413 5.10975 10.5241 5.10975C10.5241 5.14418 10.5413 5.23025 10.5241 5.2819C10.5069 5.31633 10.4552 5.33354 10.438 5.36797C10.4208 5.4024 10.4036 5.48848 10.3864 5.54012C10.3692 5.55733 10.352 5.59176 10.3347 5.60898H10.0765H10.3175C10.2831 5.67784 10.2659 5.71227 10.2831 5.7467C10.2831 5.7467 10.2831 5.79834 10.3003 5.84999C10.3003 5.8672 10.3175 5.88442 10.3347 5.88442C10.3692 5.88442 10.438 5.79834 10.5413 5.79834C10.5413 5.8672 10.5241 6.07378 10.5758 6.05657C10.6274 6.03935 10.679 5.97049 10.7135 5.98771C10.679 6.02214 10.6963 6.05657 10.7135 6.07378C10.7135 6.07378 10.7307 6.10821 10.8512 6.10821C10.8512 6.10821 10.5758 6.29758 10.834 6.38365C10.9028 6.36644 10.9717 6.34922 11.0061 6.33201C11.075 6.31479 11.1094 6.34922 11.1611 6.33201C11.2127 6.31479 11.2988 6.31479 11.2988 6.26315C11.2988 6.22872 11.2644 6.17707 11.2644 6.15986C11.1955 6.19429 11.1611 6.28036 11.0922 6.24593C11.1266 6.17707 11.0922 6.05657 11.0061 6.05657C11.0233 6.12543 11.2127 6.03935 11.2127 5.90163C11.2127 5.83277 11.1266 5.7467 11.0061 5.78113C10.9717 5.72948 10.9373 5.66062 10.8856 5.64341C10.834 5.62619 10.7651 5.62619 10.7307 5.64341C10.6963 5.57455 10.6618 5.55733 10.593 5.52291C10.5758 5.54012 10.6274 5.38519 10.7651 5.45405C10.7995 5.47126 10.8168 5.50569 10.8512 5.50569C10.9545 5.52291 11.0061 5.4024 11.1266 5.47126C11.1438 5.48848 11.1955 5.55733 11.1611 5.62619C11.2127 5.71227 11.2816 5.64341 11.3332 5.67784C11.4537 5.76391 11.3332 5.81556 11.3676 5.91885C11.3849 5.97049 11.4881 6.02214 11.5226 6.05657C11.5742 6.12543 11.6603 6.07378 11.6087 6.02214C11.5742 5.98771 11.4881 5.93606 11.4709 5.88442C11.4537 5.84999 11.4881 5.81556 11.5054 5.78113C11.5226 5.62619 11.4021 5.55733 11.2471 5.55733C11.2127 5.45405 11.1955 5.38519 11.0922 5.35076C10.9545 5.29911 10.9373 5.38519 10.8684 5.38519C10.8684 5.38519 10.6963 5.33354 10.6963 5.31633C10.679 5.29911 10.6618 5.0581 10.6618 5.02367C10.7823 4.97203 10.9717 4.83431 11.0061 4.66216C11.0233 4.57608 11.0061 4.42115 11.0061 4.33507C10.9028 4.35229 10.7479 4.31786 10.6446 4.35229C10.438 4.40393 10.6274 4.86874 10.3347 4.90317C10.2142 4.92038 10.1454 4.83431 10.111 4.76545C10.0077 4.55887 10.1626 4.40393 10.1798 4.33507C10.0937 4.33507 9.50843 4.31786 9.28463 4.31786C9.28463 4.33507 9.40514 4.54165 9.31906 4.73102C9.23299 4.83431 9.06084 5.00646 8.87147 4.78266C8.80261 4.7138 8.80261 4.57608 8.81983 4.45558C8.83704 4.40393 8.85426 4.38672 8.87147 4.30064H8.04516C8.07959 4.38672 8.0968 4.42115 8.11402 4.49001C8.14845 4.67937 8.06237 4.88595 7.89022 4.90317C7.71807 4.92038 7.59757 4.7138 7.61478 4.54165C7.61478 4.47279 7.64921 4.40393 7.66643 4.33507C7.37377 4.35229 7.0639 4.33507 6.78847 4.35229C6.80568 4.49001 6.9434 4.64494 6.80568 4.83431C6.71961 4.97203 6.44417 4.98924 6.42695 4.7138C6.40974 4.5933 6.40974 4.47279 6.30645 4.38672H5.92772C5.87607 4.78266 6.04822 4.83431 6.27202 5.02367V5.31633C6.22037 5.33354 6.11708 5.38519 6.06544 5.38519C6.04822 5.38519 5.97936 5.2819 5.84164 5.36797C5.75557 5.4024 5.70392 5.50569 5.68671 5.57455C5.61785 5.57455 5.51456 5.59176 5.48013 5.66062V5.66062ZM5.82443 5.91885C5.84164 5.91885 5.84164 5.90163 5.85886 5.88442C5.94493 5.8672 6.03101 5.95328 6.04822 6.00492V6.03935C5.96215 6.07378 5.82443 6.00492 5.82443 5.91885V5.91885ZM5.99658 6.36644C5.94493 6.36644 5.87607 6.34922 5.85886 6.33201C5.82443 6.29758 5.82443 6.22872 5.89329 6.22872C5.94493 6.22872 6.01379 6.28036 6.04822 6.31479C6.08265 6.33201 6.06544 6.34922 5.99658 6.36644V6.36644ZM6.27202 5.97049C6.20316 5.95328 6.09987 5.91885 6.08265 5.8672C6.06544 5.83277 6.09987 5.78113 6.09987 5.78113C6.20316 5.7467 6.32366 5.93606 6.27202 5.97049ZM6.39252 5.64341C6.4786 5.60898 6.51303 5.71227 6.49581 5.76391C6.44417 5.7467 6.34088 5.69505 6.39252 5.64341V5.64341ZM10.9201 6.36644C10.7995 6.36644 10.9545 6.22872 11.0233 6.22872C11.1783 6.2115 11.0922 6.36644 10.9201 6.36644ZM11.0406 5.88442C11.1955 5.8672 11.075 6.03935 10.9717 6.05657C10.834 6.05657 10.9889 5.90163 11.0406 5.88442ZM10.7823 5.78113H10.8512C10.8856 5.88442 10.7823 5.93606 10.7135 5.97049H10.679C10.679 5.88442 10.7307 5.79834 10.7823 5.78113ZM10.5413 5.71227C10.5241 5.72948 10.4725 5.7467 10.4552 5.7467L10.4208 5.72948C10.438 5.67784 10.4552 5.62619 10.4897 5.62619C10.5758 5.62619 10.5758 5.69505 10.5413 5.71227V5.71227ZM10.6446 4.57608C10.6618 4.54165 10.7135 4.50722 10.7651 4.50722C10.9028 4.50722 10.834 4.67937 10.834 4.66216C10.834 4.67937 10.8168 4.7138 10.7995 4.73102C10.7479 4.79988 10.6618 4.86874 10.593 4.90317C10.6274 4.79988 10.6102 4.66216 10.6446 4.57608ZM9.43957 4.66216C9.43957 4.55887 9.42235 4.52444 9.45678 4.45558C9.62893 4.45558 9.95602 4.43836 9.9388 4.49001C9.86994 4.78266 9.97323 4.92038 10.0937 5.00646C9.8183 5.00646 9.78387 4.90317 9.76665 4.74823C9.71501 4.7138 9.66336 4.73102 9.5945 4.73102C9.52564 4.90317 9.56007 5.00646 9.2502 4.98924C9.14691 5.02367 9.42235 4.92038 9.43957 4.66216ZM8.26895 4.69659C8.28617 4.62773 8.26895 4.54165 8.25174 4.49001C8.25174 4.45558 8.69932 4.43836 8.68211 4.47279C8.63047 4.85152 8.83704 4.95481 8.9059 5.00646C8.68211 5.02367 8.57882 4.98924 8.54439 4.76545H8.38946C8.37224 4.98924 8.26895 5.02367 8.04516 5.00646C8.14845 4.9376 8.23452 4.85152 8.26895 4.69659V4.69659ZM6.99505 4.47279C7.02948 4.47279 7.42542 4.45558 7.51149 4.45558C7.49428 4.57608 7.49428 4.88595 7.71807 4.98924C7.42542 5.00646 7.44263 4.9376 7.35656 4.73102H7.20162C7.14998 4.9376 7.18441 5.00646 6.85733 4.98924C6.97783 4.86874 7.08112 4.81709 6.99505 4.47279V4.47279ZM6.09987 4.49001H6.2548C6.37531 4.57608 6.28923 4.79988 6.37531 4.92038C6.18594 4.81709 5.99658 4.61051 6.09987 4.49001Z" fill="white"/>
<path d="M14.9828 11.0145C14.9139 11.1006 14.7246 11.1694 14.5868 11.1694C14.6041 10.9973 14.4491 10.9284 14.4147 10.7735C14.3803 10.6702 14.4491 10.5669 14.4491 10.498C14.4663 10.3775 14.363 10.3775 14.3458 10.3087C14.3286 10.257 14.3458 10.1882 14.3458 10.1537C14.3458 10.1193 14.277 10.0849 14.1909 10.0504C14.0532 10.1709 13.9155 10.1882 13.8122 10.1193C13.7777 10.1021 13.7433 10.0677 13.7433 10.0504C13.7261 9.92993 13.8466 9.775 13.881 9.68893C13.9155 9.62007 13.9155 9.53399 13.9327 9.46513C14.2081 9.41349 14.363 9.22412 14.3286 8.89704C14.3114 8.81096 14.277 8.72489 14.2425 8.65603C14.1909 8.58717 14.1565 8.50109 14.1048 8.43223C14.0015 8.29451 13.8982 8.13958 13.8294 7.96743C13.6917 7.64035 13.7089 7.15833 13.881 6.9001C13.881 6.9001 13.9671 6.79681 13.9327 6.81403C13.8982 6.81403 13.8466 6.86567 13.8122 6.88289C13.7261 6.93453 13.6744 7.08947 13.6572 7.20997C13.64 7.27883 13.64 7.33048 13.64 7.38212C13.64 7.43377 13.64 7.51984 13.6572 7.57149C13.6917 7.84693 13.7777 8.00186 13.881 8.20844C14.0015 8.44945 14.3286 8.70767 14.277 9.0864C14.2425 9.32741 14.0015 9.36184 13.7777 9.36184C13.795 9.46513 13.8122 9.60285 13.795 9.72336C13.7777 9.84386 13.6744 9.94715 13.7089 10.1021C13.7089 10.1021 13.7433 10.3947 14.277 10.2054C14.2942 10.2914 14.3114 10.3603 14.3458 10.412C14.4147 10.498 14.3975 10.3947 14.363 10.5669C14.3458 10.653 14.363 10.7563 14.3803 10.8079C14.4147 10.9112 14.4836 10.98 14.518 11.0833C14.518 11.0833 14.518 11.1694 14.4663 11.2727C14.3458 11.2555 14.1393 11.2555 14.0532 11.3071C13.9499 11.376 14.0187 11.4621 13.8982 11.4621C13.8638 11.4621 13.881 11.4104 13.8638 11.3932C13.8122 11.3071 13.7261 11.2899 13.6228 11.2727C13.64 11.0833 13.64 11.0661 13.5367 10.9456C13.6056 10.894 13.6744 10.9112 13.7605 10.9628C13.8122 10.9973 13.8466 11.0145 13.9155 11.0489C13.9499 10.98 13.9155 10.8595 13.9499 10.7735C14.0015 10.6357 14.0187 10.5841 13.9499 10.5841C13.8122 10.5669 13.7089 10.5497 13.6572 10.4292C13.5367 10.2054 13.6228 10.2742 13.4679 10.3259C13.1236 10.4636 12.9859 10.3087 12.8826 10.2226C12.8309 10.1709 12.7965 10.1021 12.7793 10.016C12.7276 9.84386 12.7104 9.62007 12.7276 9.41349C12.7448 9.24134 12.8137 9.00033 12.7621 8.75932C12.7448 8.65603 12.6588 8.51831 12.5899 8.48388C12.5038 8.44945 12.4005 8.44945 12.3145 8.41502C12.0907 8.34616 11.9013 8.07072 12.0218 7.8125C12.1079 7.62313 12.3317 7.51984 12.3317 7.45098H12.1767C12.0735 7.60592 11.5914 7.95022 11.4537 8.05351C11.5398 8.19122 11.4537 8.31173 11.4709 8.2773C11.3332 8.12236 11.2299 8.36337 11.1783 8.34616C11.1439 8.15679 11.1266 8.15679 10.9717 8.07072C10.9889 7.95022 11.0578 7.86414 10.9717 7.76085V7.72642C10.9889 7.67478 10.9889 7.62313 10.9889 7.55427C11.0578 7.53706 11.1955 7.70921 11.2299 7.69199C11.3849 7.64035 11.5398 7.48541 11.8669 7.34769C12.0735 7.26162 12.2973 7.17554 12.5038 7.10668C12.8481 6.98618 13.4334 6.81403 13.6056 6.5558C13.64 6.50416 13.6572 6.4353 13.6744 6.36644C13.6228 6.38365 13.3646 6.5558 13.1236 6.67631C12.917 6.76238 12.5555 6.86567 12.3489 6.95175C12.0735 7.05504 11.7808 7.15833 11.5226 7.29605C11.3332 7.39934 11.2471 7.4682 11.1955 7.48541C11.1266 7.51984 11.2127 7.55427 11.1611 7.5887C11.0922 7.51984 10.9889 7.4682 10.9028 7.45098C10.834 7.45098 10.7823 7.4682 10.7823 7.4682V7.45098V7.4682C10.7823 7.4682 10.7651 7.4682 10.7479 7.48541C10.7135 7.51984 10.6274 7.55427 10.6102 7.5887C10.5758 7.64035 10.5758 7.72642 10.593 7.76085C10.6102 7.77807 10.6618 7.79528 10.679 7.79528C10.6102 7.84693 10.5413 7.933 10.5413 8.03629C10.5069 8.2773 10.7479 8.12236 10.7651 8.19122C10.7996 8.29451 10.7135 8.38059 10.7307 8.50109C10.7307 8.51831 10.7479 8.55274 10.7651 8.56995L10.7823 8.58717C10.8856 8.60438 10.9201 8.56995 10.9201 8.56995C11.0578 8.48388 11.0233 8.51831 11.0406 8.50109C11.1611 8.50109 11.0922 8.60438 11.0578 8.6216C11.0406 8.63881 10.9545 8.67324 11.0233 8.69046C11.1439 8.70767 11.1955 8.7421 11.3332 8.63881C11.4365 8.56995 11.5226 8.3978 11.5398 8.24287C11.5398 8.24287 11.5226 8.13958 11.5398 8.12236C11.5398 8.10515 11.8497 7.88136 11.8497 7.88136C11.8841 7.91579 11.7636 8.2773 12.0046 8.48388C12.1595 8.6216 11.8152 8.43223 11.4193 8.60438C11.2299 8.69046 11.1266 8.81096 11.0233 8.98311C10.834 9.32741 11.075 9.60285 11.3332 9.74057C11.3332 9.87829 11.3504 9.87829 11.316 9.89551C11.2816 9.91272 11.2471 9.8955 11.2127 9.91272C11.0233 9.98158 11.0578 10.1365 10.9545 10.1193C10.8168 10.0849 10.7307 9.87829 10.5413 9.89551C10.4553 9.91272 10.438 9.98158 10.3692 10.016C10.3175 10.0332 10.3175 10.0332 10.3175 10.016C10.2487 10.0677 10.0593 10.1882 9.74944 10.3087C9.80109 10.2914 9.86995 10.2742 9.92159 10.2742C9.95602 10.2742 10.0765 10.257 10.111 10.2914C10.1282 10.3087 10.1454 10.3947 10.1798 10.3947C10.1798 10.3947 10.3864 10.257 10.3348 10.3947C10.3003 10.4292 10.111 10.4808 10.2315 10.7218C10.3864 10.8079 10.5241 10.9112 10.6446 11.0661C10.7996 11.3071 10.7307 11.5826 10.5241 11.7031C10.6274 11.3932 10.5069 11.1006 10.197 11.0489C10.0421 11.0145 9.90438 11.0317 9.76666 10.98C9.59451 10.9112 9.474 10.7907 9.33628 10.7046C9.21578 10.6357 9.06084 10.6185 8.94034 10.5497C8.94034 10.5497 8.42389 10.6185 7.99352 10.5497C8.01073 10.5497 8.02795 10.5497 8.04516 10.5669C7.87301 10.6357 7.70086 10.6874 7.54593 10.7735C7.42542 10.8423 7.32213 10.9456 7.18442 10.9973C7.06391 11.0489 6.92619 11.0317 6.77126 11.0661C6.4786 11.135 6.34088 11.3932 6.44417 11.7203C6.25481 11.5998 6.16873 11.3416 6.30645 11.1006C6.40974 10.9284 6.59911 10.8251 6.77126 10.7218V10.6702C6.78847 10.5497 6.77126 10.5497 6.75404 10.5152C6.73683 10.4808 6.7024 10.4292 6.61632 10.412C6.61632 10.3947 6.59911 10.3775 6.61632 10.3603C6.65075 10.3431 6.68518 10.3947 6.71961 10.3947C6.8229 10.4292 6.78847 10.2742 6.89176 10.2742C7.01227 10.2742 7.11556 10.2914 7.20163 10.3259C7.01227 10.2398 6.8229 10.1537 6.65075 10.0332C6.61632 10.0332 6.56468 10.016 6.53025 10.016C6.53025 9.96436 6.44417 9.89551 6.30645 9.89551C6.16873 9.91272 6.09987 10.1021 5.89329 10.1193C5.80722 9.98158 5.75558 9.91272 5.60064 9.89551C5.58343 9.87829 5.56621 9.775 5.58343 9.74057C5.56621 9.75779 5.77279 9.63728 5.84165 9.55121C6.16873 9.18969 5.77279 8.70767 5.48014 8.58717C5.30799 8.51831 5.10141 8.55274 4.91204 8.53552C5.03255 8.32894 5.13584 8.19122 5.08419 7.86414C5.13584 7.88136 5.39406 8.05351 5.41128 8.10515C5.42849 8.15679 5.41128 8.22565 5.41128 8.2773C5.42849 8.41502 5.53178 8.56995 5.63507 8.63881C5.72114 8.69046 5.87608 8.70767 5.96215 8.63881C5.87608 8.60438 5.80722 8.51831 5.89329 8.46666C5.91051 8.48388 5.92772 8.50109 5.96215 8.51831C5.97937 8.53552 6.03101 8.55274 6.08266 8.56995C6.08266 8.56995 6.18595 8.56995 6.22038 8.53552C6.23759 8.50109 6.23759 8.44945 6.23759 8.44945V8.41502V8.3978V8.38059V8.36337C6.23759 8.32894 6.22038 8.29451 6.22038 8.26008V8.20844V8.19122V8.17401H6.23759C6.28924 8.19122 6.32367 8.19122 6.32367 8.19122C6.34088 8.19122 6.3581 8.19122 6.37531 8.17401C6.39253 8.17401 6.39253 8.15679 6.39253 8.15679C6.39253 8.13958 6.40974 8.13958 6.40974 8.12236V8.10515V8.08793V8.07072V8.01908V8.00186V7.98465C6.40974 7.96743 6.40974 7.96743 6.39253 7.95022C6.39253 7.933 6.37531 7.933 6.37531 7.91579C6.37531 7.89857 6.32367 7.86414 6.32367 7.84693L6.30645 7.82971V7.8125H6.37531L6.39253 7.79528V7.77807V7.72642V7.70921V7.69199C6.39253 7.69199 6.39253 7.67478 6.37531 7.67478C6.3581 7.65756 6.3581 7.64035 6.34088 7.64035L6.32367 7.62313C6.30645 7.60592 6.27202 7.5887 6.23759 7.57149C6.20316 7.55427 6.15152 7.55427 6.11709 7.55427C6.06544 7.55427 6.0138 7.55427 5.97937 7.57149C5.91051 7.5887 5.87608 7.64035 5.84165 7.67478C5.82443 7.69199 5.80722 7.67478 5.82443 7.60592C5.82443 7.57149 5.61786 7.4682 5.56621 7.43377C5.37685 7.33048 5.23913 7.26162 5.04976 7.19276C4.89483 7.1239 4.73989 7.07225 4.60217 7.02061C4.39559 6.95175 4.1718 6.9001 3.96522 6.79681C3.84472 6.74517 3.72421 6.67631 3.60371 6.60745C3.46599 6.52137 3.3627 6.45251 3.37991 6.48694C3.39713 6.53859 3.41434 6.60745 3.46599 6.67631C3.51763 6.74517 3.67257 6.84846 3.74143 6.9001C3.93079 7.00339 4.20623 7.08947 4.48167 7.19276C4.73989 7.27883 4.99812 7.38212 5.25634 7.50263C5.39406 7.57149 5.53178 7.64035 5.65229 7.70921C5.70393 7.72642 5.79001 7.8125 5.85887 7.79528C5.87608 7.79528 5.92772 7.72642 5.96215 7.70921C5.99658 7.69199 6.03101 7.65756 6.04823 7.65756C6.11709 7.62313 6.03101 7.70921 6.09987 7.86414C6.08266 7.88136 6.08266 7.89857 6.06544 7.91579C6.0138 7.98465 6.06544 8.10515 6.09987 8.19122C6.0138 8.22565 5.96215 8.26008 5.92772 8.32894C5.87608 8.44945 5.92772 8.50109 5.82443 8.43223C5.77279 8.3978 5.77279 8.32894 5.65229 8.36337C5.60064 8.38059 5.58343 8.43223 5.56621 8.31173C5.56621 8.2773 5.58343 8.20844 5.60064 8.17401C5.39406 8.01908 5.15305 7.88136 4.9809 7.69199C4.91204 7.60592 4.91204 7.55427 4.72268 7.5887C5.03255 7.82971 5.10141 7.96743 5.08419 8.17401C5.06698 8.26008 5.01533 8.34616 4.94647 8.3978C4.91204 8.43223 4.8604 8.50109 4.80875 8.51831C4.65382 8.58717 4.46445 8.55274 4.37838 8.69046C4.22345 8.93147 4.32674 9.32741 4.34395 9.62007C4.36116 9.79221 4.34395 9.96436 4.2923 10.1193C4.27509 10.1882 4.25788 10.2398 4.22345 10.2914C4.12016 10.4636 3.89636 10.5841 3.62092 10.4808C3.56928 10.4636 3.55206 10.4292 3.4832 10.412C3.41434 10.5669 3.37991 10.6185 3.27662 10.6874C3.20776 10.739 3.07004 10.7218 3.07004 10.7563C3.05283 10.8251 3.10447 10.8768 3.10447 10.9112C3.12169 10.98 3.1389 11.135 3.12169 11.1866C3.1389 11.2038 3.15612 11.2211 3.17333 11.2038C3.24219 11.1522 3.34548 11.0489 3.46599 11.0833C3.4832 11.0833 3.51763 11.1006 3.50042 11.1178C3.37991 11.2383 3.37991 11.2727 3.41434 11.4276C3.3627 11.4793 3.32827 11.4276 3.25941 11.4793C3.20776 11.5137 3.17333 11.5654 3.15612 11.617C3.15612 11.6514 3.10447 11.6342 3.10447 11.6342L3.05283 11.5309C3.03561 11.4965 3.00118 11.4621 2.96675 11.4621C2.86346 11.4276 2.6741 11.4104 2.58803 11.4449C2.57081 11.4449 2.53638 11.3243 2.53638 11.2383C2.53638 11.1866 2.57081 11.1522 2.58803 11.1178C2.60524 11.1006 2.6741 10.98 2.69132 10.8595V10.7046C2.69132 10.6874 2.63967 10.6013 2.65689 10.5841C2.74296 10.5152 2.76018 10.4464 2.7946 10.3431C2.84625 10.3603 2.89789 10.3775 2.93232 10.3775C3.10447 10.4292 3.32827 10.412 3.34548 10.2398C3.3627 10.1193 3.32827 10.0332 3.29384 9.96436C3.24219 9.82664 3.22498 9.63728 3.27662 9.48235C3.03561 9.53399 2.77739 9.4307 2.77739 9.12083C2.77739 8.87982 2.96675 8.70767 3.05283 8.55274C3.15612 8.38059 3.29384 8.13958 3.3627 7.91579C3.41434 7.70921 3.43156 7.33048 3.29384 7.08947C3.25941 7.02061 3.19055 7.00339 3.10447 6.96896C3.1389 7.05504 3.20776 7.1239 3.24219 7.20997C3.32827 7.45098 3.32827 7.72642 3.25941 7.96743C3.17333 8.24287 3.00118 8.44945 2.86346 8.67324C2.7946 8.79375 2.6741 8.94868 2.69132 9.17248C2.72575 9.44792 2.86346 9.55121 3.10447 9.62007C3.10447 9.70614 3.1389 9.775 3.15612 9.84386C3.19055 9.92993 3.27662 10.1193 3.25941 10.2226C3.25941 10.2226 3.22498 10.3087 3.07004 10.3087C2.89789 10.3087 2.82903 10.2054 2.81182 10.2054C2.79461 10.2054 2.72575 10.257 2.70853 10.257C2.63967 10.2914 2.69132 10.3259 2.6741 10.3947C2.6741 10.412 2.65689 10.4808 2.62246 10.498C2.57081 10.5325 2.51917 10.5841 2.5536 10.653C2.58803 10.7046 2.60524 10.7907 2.58803 10.8768C2.57081 10.98 2.48474 11.0489 2.45031 11.1178C2.36423 11.2383 2.43309 11.2899 2.39866 11.3071C2.31259 11.3071 2.17487 11.2555 2.08879 11.2038C2.05436 11.1694 1.9855 11.1178 2.00272 11.2038C2.03715 11.3071 2.07158 11.4104 2.10601 11.4965C2.22651 11.7375 2.58803 12.1162 3.31105 12.0818C3.46599 12.0818 3.74143 12.0129 3.87915 11.9441C3.91358 11.9269 3.96522 12.1334 4.01687 12.1162C4.08573 11.7719 4.43002 11.7203 4.77432 11.6859C4.80875 11.6859 4.84318 11.6686 4.87761 11.6686C4.99812 11.6514 4.99812 11.617 5.11862 11.5998C5.2047 11.7719 5.29077 11.8924 5.42849 11.9269C5.65229 11.9957 5.56621 11.9097 5.549 11.858C5.51457 11.7375 5.51457 11.5998 5.63507 11.5137C5.72114 11.4449 6.04823 11.3588 6.20316 11.3932C6.16873 11.6342 6.27202 11.7719 6.40974 11.8924C6.44417 11.9097 6.4786 11.9613 6.53025 11.9613H6.56468C6.56468 11.8924 6.53025 11.8408 6.51303 11.7547C6.4786 11.4965 6.66797 11.4276 6.84012 11.376C6.92619 11.3588 7.09834 11.3416 7.20163 11.3588C7.18442 11.5481 7.23606 11.7203 7.32214 11.8408C7.33935 11.7719 7.33935 11.7031 7.37378 11.6514C7.45985 11.5137 7.66643 11.3588 7.8558 11.3416C8.04516 11.3243 8.21731 11.376 8.37225 11.4104H8.47554C8.61326 11.4104 8.75098 11.376 8.88869 11.3416C9.21578 11.2899 9.52565 11.4276 9.64615 11.6514C9.66337 11.6859 9.66337 11.7031 9.68058 11.7547L9.6978 11.8236C9.78387 11.6859 9.80109 11.5481 9.80109 11.3416C9.90438 11.3071 10.0937 11.3416 10.197 11.3588C10.438 11.4276 10.5758 11.617 10.438 11.8924C10.438 11.8924 10.4036 11.9613 10.4897 11.9441C10.6963 11.9097 10.8512 11.617 10.8168 11.376C10.8512 11.376 10.9028 11.3588 10.9373 11.3588C11.1955 11.3932 11.557 11.4793 11.4709 11.8064L11.4365 11.9441C11.7119 11.9613 11.8497 11.7031 11.8841 11.5998C11.9013 11.5481 11.9185 11.5998 12.039 11.6514H12.0907C12.1079 11.6514 12.1423 11.6686 12.1767 11.6686C12.5555 11.7203 12.9342 11.7375 13.0031 12.1162C13.0719 12.0818 13.0891 12.0129 13.1408 11.9441C13.4679 12.099 14.0532 12.1162 14.3975 11.9613C14.5868 11.8924 14.759 11.7203 14.8795 11.5826C14.9311 11.5309 14.9656 11.4276 15 11.3588C14.9484 11.2038 15.0172 11.0489 14.9828 11.0145V11.0145ZM10.679 7.62313C10.6963 7.60592 10.7135 7.5887 10.7479 7.5887C10.8512 7.57149 10.834 7.64035 10.834 7.69199C10.7651 7.67478 10.593 7.69199 10.679 7.62313V7.62313ZM10.6446 8.08793C10.593 8.00186 10.679 7.88136 10.7651 7.86414H10.834V7.91579C10.7996 8.00186 10.6963 8.07072 10.6446 8.08793V8.08793ZM10.8512 8.46666C10.7479 8.48388 10.8512 8.26008 10.8856 8.26008C11.0578 8.22565 10.9717 8.46666 10.8512 8.46666ZM11.1955 8.58717C11.1955 8.53552 11.2299 8.38059 11.2988 8.38059C11.316 8.38059 11.3332 8.3978 11.3332 8.3978C11.4021 8.48388 11.2644 8.55274 11.1955 8.58717V8.58717ZM6.28924 7.96743C6.32367 8.00186 6.34088 8.07072 6.30645 8.08793C6.28924 8.10515 6.1343 8.00186 6.09987 7.91579C6.08266 7.88136 6.11709 7.86414 6.1343 7.86414C6.22038 7.88136 6.25481 7.91579 6.28924 7.96743ZM6.1343 7.5887C6.25481 7.57149 6.28924 7.65756 6.28924 7.65756C6.28924 7.70921 6.22038 7.64035 6.16873 7.67478C6.08266 7.72642 6.08266 7.62313 6.1343 7.5887V7.5887ZM5.99658 8.26008C6.08266 8.24287 6.15152 8.44945 6.11709 8.46666C6.03101 8.51831 5.87608 8.29451 5.99658 8.26008ZM5.63507 8.36337C5.68672 8.36337 5.70393 8.3978 5.72114 8.43223C5.75557 8.53552 5.77279 8.58717 5.72114 8.56995C5.68672 8.55274 5.61786 8.50109 5.61786 8.44945C5.58343 8.41502 5.60064 8.38059 5.63507 8.36337ZM6.68518 10.6357C6.61632 10.6013 6.56468 10.5841 6.49582 10.5669C6.49582 10.5325 6.49582 10.5325 6.51303 10.5152C6.51303 10.498 6.53025 10.4808 6.54746 10.4808C6.65075 10.4464 6.66797 10.5669 6.68518 10.6357ZM6.4786 10.1537C6.4786 10.1365 6.53025 10.1021 6.54746 10.1021C6.66797 10.0849 6.73683 10.1882 6.71961 10.2742C6.65075 10.2398 6.58189 10.2226 6.51303 10.2398C6.51303 10.2226 6.4786 10.1882 6.4786 10.1537V10.1537ZM4.44724 8.58717C4.5161 8.51831 4.56774 8.58717 4.87761 8.44945C4.77432 8.53552 4.56774 8.63881 4.56774 8.65603C4.6366 9.01754 4.13737 8.87982 4.44724 8.58717ZM4.49888 8.9659C4.61939 8.93147 4.65382 8.84539 4.72268 8.77653C4.80875 8.70767 4.94647 8.65603 5.10141 8.63881C5.34242 8.6216 5.51457 8.72489 5.65229 8.81096C5.96215 9.03476 5.87608 9.60285 5.46292 9.67171C5.46292 9.70614 5.46292 9.92993 5.53178 9.98158C5.56621 9.98158 5.63507 9.96436 5.73836 10.0504C5.85886 10.1537 5.80722 10.1882 5.85887 10.2226C5.97937 10.3259 6.18595 10.1021 6.23759 10.0677C6.27202 10.0504 6.34088 10.016 6.39253 10.0332L6.40974 10.0677C6.39253 10.0849 6.39253 10.0849 6.37531 10.1193C6.34088 10.1882 6.34088 10.257 6.39253 10.2914C6.44417 10.3431 6.49582 10.3603 6.4786 10.3947C6.4786 10.412 6.44417 10.4292 6.40974 10.4636C6.3581 10.498 6.39253 10.6013 6.3581 10.6013C5.97937 10.6357 5.87608 10.3431 5.58343 10.3431C5.63507 10.4292 5.61786 10.4464 5.60064 10.5152C5.51457 10.498 5.44571 10.498 5.37685 10.5497C5.3252 10.5841 5.3252 10.6357 5.30799 10.6874C5.17027 10.653 5.10141 10.6013 5.04976 10.498C4.82597 10.1365 5.15305 9.94715 5.13584 9.56842C5.13584 9.56842 5.15305 9.39627 5.06698 9.39627C4.9809 9.39627 4.82597 9.4307 4.68825 9.39627C4.60217 9.36184 4.37838 9.29298 4.34395 9.13805C4.25788 8.82818 4.36116 9.00033 4.49888 8.9659V8.9659ZM5.53178 10.7735C5.46292 10.7735 5.41128 10.7218 5.41128 10.6702C5.39406 10.5669 5.549 10.5497 5.549 10.6185C5.549 10.653 5.56621 10.6702 5.60064 10.7046C5.63507 10.7563 5.58343 10.7735 5.53178 10.7735V10.7735ZM3.15612 10.9284C3.1389 10.8595 3.10447 10.739 3.1389 10.7046C3.19055 10.6874 3.27662 10.653 3.32827 10.6185C3.39713 10.5669 3.41434 10.5497 3.44877 10.4636C3.44877 10.4464 3.46599 10.4292 3.46599 10.412C3.86193 10.6357 4.22345 10.4464 4.36116 10.0849V10.0677C4.36116 10.0504 4.37838 10.0332 4.37838 10.016C4.43002 9.80943 4.37838 9.53399 4.36116 9.34463C4.44724 9.36184 4.46445 9.41349 4.53331 9.44792C4.67103 9.51678 4.8604 9.51678 5.03255 9.51678C5.04976 9.55121 5.04976 9.58564 5.03255 9.62007V9.68893C5.03255 9.72336 4.99812 9.80943 4.99812 9.80943C4.91204 10.0504 4.75711 10.2914 4.94647 10.5325C4.96369 10.5497 4.9809 10.5841 4.94647 10.6013C4.92926 10.6185 4.89483 10.6185 4.87761 10.6357C4.80875 10.653 4.72268 10.6874 4.65382 10.7046C4.49888 10.739 4.34395 10.7563 4.15459 10.6874C4.08573 10.6702 4.06851 10.6185 3.98244 10.5841C3.96522 10.6702 4.01687 10.8423 3.98244 10.8595C3.89636 10.9112 3.81029 10.9112 3.72421 10.9284C3.68978 10.9284 3.65535 10.9456 3.60371 10.9456C3.56928 10.894 3.53485 10.8595 3.46599 10.8251C3.37991 10.7735 3.25941 10.8595 3.15612 10.9284V10.9284ZM3.72421 11.3071L3.707 11.3243C3.68978 11.3243 3.63814 11.2383 3.60371 11.2383C3.53485 11.2383 3.46599 11.2383 3.4832 11.1522C3.50042 11.135 3.50042 11.1178 3.51763 11.1178C3.62092 11.0661 3.707 11.2555 3.72421 11.3071V11.3071ZM3.24219 11.4449C3.32827 11.3932 3.4832 11.617 3.3627 11.7031C3.32827 11.7203 3.32827 11.6514 3.29384 11.5998C3.24219 11.5481 3.19055 11.4965 3.24219 11.4449ZM2.62246 11.376C2.6741 11.3588 2.76017 11.376 2.76017 11.4104C2.69132 11.4793 2.6741 11.5137 2.65689 11.617C2.62246 11.617 2.51917 11.4276 2.62246 11.376V11.376ZM3.53485 11.7891C3.32827 11.9097 2.91511 11.858 2.76017 11.8064C2.34702 11.6514 2.12322 11.3416 2.10601 11.2383C2.10601 11.2211 2.24373 11.2899 2.31259 11.2899C2.45031 11.2899 2.46752 11.376 2.48474 11.3932C2.50195 11.4276 2.48474 11.5137 2.51917 11.5654C2.57081 11.6514 2.62246 11.7203 2.74296 11.7203C2.76017 11.6686 2.72575 11.6514 2.7946 11.5481C2.88068 11.4276 2.93232 11.5481 2.94954 11.5826C2.98397 11.5998 3.00118 11.6342 3.12169 11.6514C3.20776 11.6514 3.27662 11.6859 3.31105 11.8408C3.34548 11.858 3.51763 11.6859 3.44877 11.5481C3.41434 11.4965 3.41434 11.4449 3.44877 11.3932C3.46599 11.3588 3.56928 11.3416 3.62092 11.4276C3.65535 11.4965 3.65535 11.5137 3.707 11.4621C3.81029 11.3071 3.79307 11.1522 3.68978 11.0661C3.62092 11.0317 3.75864 10.9973 3.86193 10.98C3.91358 10.98 4.08573 10.9973 4.18902 11.0661C4.24066 11.1006 4.37838 11.1178 4.30952 11.1522C4.22345 11.1866 4.03408 11.3243 3.98244 11.3932C3.81029 11.617 3.63814 11.7203 3.53485 11.7891V11.7891ZM4.94647 11.3071C4.87761 11.3416 4.80875 11.3588 4.72268 11.376C4.67103 11.376 4.6366 11.3932 4.58496 11.3932C4.29231 11.4276 4.12016 11.5309 3.96522 11.858C3.94801 11.8924 3.8275 11.6514 4.06851 11.3932C4.20623 11.2383 4.53331 11.1522 4.68825 11.0661H4.70546H4.67103C4.36116 11.0833 4.10294 10.9628 4.03408 10.7046C4.15459 10.7907 4.29231 10.8251 4.49888 10.8423C4.55053 10.8423 4.60217 10.8423 4.65382 10.8251C4.73989 10.8079 4.82597 10.7735 4.91204 10.7563C5.10141 10.7218 5.29077 10.739 5.37685 10.8251C5.42849 10.894 5.34242 10.9112 5.29077 10.9456C5.17027 11.0317 5.10141 11.2211 4.94647 11.3071V11.3071ZM5.41128 11.376C5.35963 11.5309 5.37685 11.5826 5.41128 11.6514C5.44571 11.7203 5.46292 11.7719 5.35963 11.7031C5.06698 11.5309 5.10141 11.1694 5.37685 10.9628C5.53178 10.8423 5.72115 10.8251 5.77279 10.7907C5.77279 10.7735 5.68672 10.7218 5.65229 10.6702C5.61786 10.6013 5.63507 10.5152 5.72114 10.5152C5.82443 10.498 5.89329 10.5841 5.94494 10.6013C6.03101 10.653 6.34088 10.8251 6.46139 10.7046C6.53025 10.6357 6.63354 10.6874 6.59911 10.7218C6.39253 10.7907 6.34088 10.9284 6.16873 10.9973C5.92772 11.1006 5.48014 11.1178 5.41128 11.376V11.376ZM9.66337 11.4449C9.43957 11.2383 9.28464 11.0489 8.80262 11.0833C8.71655 11.0833 8.6649 11.1006 8.57883 11.135C8.52718 11.1694 8.47554 11.1694 8.42389 11.1522C8.38946 11.1522 8.33782 11.135 8.28617 11.1178C7.9763 11.0317 7.64922 11.135 7.54593 11.2038C7.47707 11.2383 7.33935 11.3416 7.32214 11.3932L7.27049 11.4449C7.25327 11.4276 7.25327 11.3932 7.27049 11.2727C7.2877 11.1006 7.45985 10.9456 7.56314 10.8595C7.76972 10.7046 8.02795 10.653 8.37225 10.6185H8.47554C8.56161 10.6185 8.64769 10.6013 8.71655 10.6185C9.11249 10.6702 9.50843 10.8423 9.66337 11.1694C9.68058 11.2383 9.6978 11.3416 9.66337 11.4449V11.4449ZM14.2425 11.3932C14.4147 11.376 14.3458 11.5481 14.3114 11.617L14.2942 11.6342V11.617C14.2942 11.5654 14.2942 11.5309 14.277 11.4965C14.2598 11.4621 14.2253 11.4449 14.2081 11.4104C14.1909 11.3932 14.2253 11.3932 14.2425 11.3932V11.3932ZM13.6572 11.4449C13.8122 11.4276 13.5884 11.6859 13.5884 11.7031C13.5195 11.617 13.5195 11.4621 13.6572 11.4449ZM13.4679 10.412C13.5195 10.5325 13.5884 10.6185 13.7089 10.6702C13.7433 10.6874 13.7777 10.6874 13.8122 10.7046C13.795 10.7735 13.795 10.8595 13.7777 10.9112C13.6572 10.8595 13.5023 10.7563 13.3818 10.8768L13.3129 10.9456C13.2613 10.9284 12.9514 10.8595 12.9514 10.8423C12.9342 10.7907 12.9859 10.653 12.9514 10.5841C12.8826 10.6185 12.8481 10.653 12.7793 10.6874C12.6071 10.7563 12.3661 10.739 12.1767 10.6874C12.0907 10.6702 12.0218 10.6357 11.9702 10.5841C12.039 10.4464 12.1423 10.3603 12.0907 10.1537C12.039 9.94715 11.8497 9.74057 11.9185 9.51678C12.039 9.48235 12.1767 9.51678 12.3145 9.48235C12.4178 9.44792 12.4694 9.37906 12.5555 9.34463H12.5727C12.5899 9.34463 12.5555 9.34463 12.5727 9.34463C12.5727 9.34463 12.5899 9.36184 12.5727 9.36184C12.5555 9.4307 12.5555 9.49956 12.5383 9.56842C12.521 9.775 12.5383 9.94715 12.6071 10.1021V10.1365C12.7448 10.4636 13.0375 10.6185 13.4679 10.412V10.412ZM13.3129 11.2727C13.2441 11.3588 13.2441 11.2727 13.2441 11.2899C13.2441 11.2038 13.2957 11.135 13.3818 11.1178C13.4162 11.1178 13.4507 11.1178 13.4507 11.135C13.5023 11.2899 13.3301 11.2383 13.3129 11.2727ZM12.2456 8.53552C12.4178 8.58717 12.5383 8.56995 12.5899 8.7421C12.6071 8.7421 12.5899 8.77653 12.5899 8.77653C12.5899 8.82818 12.5383 8.87982 12.4694 8.86261H12.4522C12.3833 8.84539 12.3489 8.7421 12.3661 8.65603C12.28 8.58717 12.1767 8.53552 12.0907 8.46666C12.1595 8.50109 12.194 8.51831 12.2456 8.53552V8.53552ZM10.4725 10.3603C10.4725 10.2914 10.6446 10.2914 10.5758 10.1193L10.5413 10.0504C10.6102 10.0332 10.6446 10.0332 10.6963 10.0677C10.7479 10.1021 11.0406 10.3775 11.1094 10.1882C11.1439 10.0849 11.2299 9.98158 11.4365 9.96436C11.4537 9.91272 11.4882 9.74057 11.4882 9.70614C11.2644 9.6545 11.1094 9.44792 11.1094 9.20691C11.0922 8.89704 11.4193 8.65603 11.7636 8.63881C11.9185 8.63881 12.0562 8.69046 12.1595 8.7421C12.3317 8.82818 12.2973 8.98311 12.5727 8.94868C12.6932 8.93147 12.6071 9.15526 12.5727 9.18969C12.5038 9.29298 12.3489 9.34463 12.194 9.37906C12.0562 9.41349 11.8841 9.32741 11.8497 9.37906C11.7119 9.60285 11.953 9.99879 11.9702 10.2054C11.9874 10.3947 11.8669 10.5669 11.7464 10.6185C11.6947 10.653 11.6431 10.6357 11.6431 10.6357C11.6087 10.4808 11.5054 10.4636 11.3504 10.4808C11.3504 10.4636 11.3332 10.4464 11.3332 10.412C11.3332 10.3775 11.3676 10.3259 11.3676 10.2914C11.1266 10.3087 10.8512 10.6357 10.593 10.5669C10.5585 10.5497 10.5758 10.5325 10.5585 10.4808C10.5585 10.4292 10.4725 10.412 10.4725 10.3603V10.3603ZM11.4193 10.7735C11.2299 10.7907 11.4193 10.5841 11.4193 10.5841C11.557 10.5669 11.557 10.7563 11.4193 10.7735ZM10.2142 10.2742C10.2142 10.2226 10.2142 10.1709 10.2487 10.1365C10.2659 10.1193 10.3175 10.1021 10.352 10.1021C10.3864 10.1021 10.438 10.1193 10.4553 10.1537C10.4553 10.1709 10.438 10.2054 10.438 10.2226C10.352 10.2398 10.2831 10.2398 10.2142 10.2742V10.2742ZM10.3348 10.4808C10.3864 10.4808 10.4208 10.4808 10.438 10.5152C10.438 10.5325 10.438 10.5325 10.4553 10.5497C10.3864 10.5669 10.3347 10.6013 10.2831 10.6357C10.2487 10.5841 10.2659 10.498 10.3348 10.4808V10.4808ZM11.6947 11.5826C11.6603 11.6342 11.5914 11.7203 11.5226 11.7203C11.5054 11.7203 11.5226 11.6859 11.5226 11.6514C11.557 11.5654 11.557 11.4621 11.5226 11.376C11.4193 11.1178 11.1266 11.1006 10.8512 11.0317C10.7479 11.0145 10.6446 10.9628 10.5758 10.9112C10.4897 10.8423 10.4208 10.7563 10.3003 10.7046C10.3175 10.6874 10.352 10.6702 10.3692 10.6874C10.4208 10.6874 10.438 10.7218 10.4725 10.739C10.6274 10.7907 10.8856 10.653 10.9717 10.6013C11.0233 10.5669 11.0578 10.5152 11.1266 10.5152C11.2127 10.5152 11.2816 10.5669 11.2471 10.653C11.2299 10.7218 11.1611 10.739 11.1266 10.8079C11.1955 10.8423 11.2988 10.8595 11.3676 10.8768C11.6431 10.9628 11.8841 11.2727 11.6947 11.5826V11.5826ZM12.9859 11.8408C12.917 11.7031 12.8137 11.5654 12.676 11.4793C12.5038 11.376 12.2456 11.4104 12.039 11.3416H12.0218C11.8152 11.2555 11.7636 11.0145 11.5742 10.9284C11.4365 10.8595 11.5054 10.8251 11.6087 10.7907C11.8152 10.7046 11.953 10.7563 12.0907 10.8079H12.1079C12.1595 10.8251 12.2284 10.8423 12.2973 10.8423C12.435 10.8595 12.6071 10.8423 12.7104 10.8079C12.7448 10.7907 12.8137 10.739 12.8481 10.739C12.8826 10.739 12.8481 10.7907 12.8481 10.7907C12.7448 10.9973 12.5038 11.1006 12.194 11.0661V11.0833C12.5383 11.1694 13.1408 11.3932 12.9859 11.8408V11.8408ZM13.5712 11.858C13.2785 11.8064 13.0203 11.4621 12.8826 11.3243C12.7793 11.2211 12.5899 11.1522 12.6243 11.1178C12.7448 11.0661 12.8653 10.9973 13.0031 10.98C13.1064 10.9628 13.1924 11.0145 13.2441 11.0489C13.2269 11.0661 13.2096 11.0833 13.1924 11.1178C13.1752 11.1694 13.158 11.2555 13.158 11.3243C13.1752 11.376 13.1924 11.4104 13.2096 11.4449C13.3129 11.5826 13.2613 11.3588 13.3818 11.3588C13.399 11.3588 13.4507 11.3588 13.4507 11.376C13.5367 11.4793 13.2957 11.6686 13.5712 11.8408C13.6056 11.7891 13.6228 11.7203 13.6744 11.6859C13.7261 11.6514 13.7777 11.6686 13.8466 11.6514C13.9155 11.6342 13.9671 11.5826 14.0187 11.5309C14.036 11.5137 14.0704 11.4965 14.1048 11.5309C14.1565 11.5654 14.1565 11.6859 14.1909 11.7375C14.2942 11.7031 14.3975 11.6686 14.4147 11.5654C14.4319 11.4621 14.4147 11.4449 14.4663 11.376C14.5352 11.3071 14.7073 11.2727 14.8106 11.2555C14.6557 11.617 14.1565 11.9441 13.5712 11.858Z" fill="white"/>
</svg>
