<svg width="72" height="33" viewBox="0 0 72 33" fill="none" xmlns="http://www.w3.org/2000/svg">
<path d="M28.181 5.42747H43.2672C43.2672 5.37034 43.2672 5.19895 43.4069 4.97042H28.0414C28.1112 5.08469 28.181 5.25608 28.181 5.42747V5.42747ZM45.6419 6.68434C45.153 6.68434 45.0831 6.57008 45.0831 6.57008V11.0263C45.0831 11.0263 45.2926 10.9691 45.572 10.9691V7.65556C44.5244 7.31277 45.6419 6.68434 45.6419 6.68434ZM26.6445 6.34156L26.3651 6.22729H26.2953C26.6445 6.74147 25.9461 6.62721 25.9461 6.62721C26.0857 6.74147 26.2254 6.7986 26.2254 6.7986C26.2254 6.7986 26.9239 7.19851 26.0159 7.5413V10.9691C26.2953 10.9691 26.435 11.0263 26.5048 11.0263C26.5048 11.0263 26.7143 11.1405 26.854 11.1976C26.9239 11.1976 26.9239 11.2548 26.9239 11.2548L27.0636 11.369V11.769C27.0636 11.769 27.0636 11.8261 26.9937 11.8261C26.9937 11.8261 26.9239 11.8832 26.7143 11.8261V11.8832C26.7842 11.9403 26.9239 12.0546 26.9239 12.1117C26.9239 12.1117 26.9937 12.1689 26.9937 12.226C26.9937 12.226 26.9937 12.2831 27.0636 12.3403V12.7973C27.0636 12.8544 27.0636 12.8544 26.9937 12.9116L26.9239 12.9687C26.854 13.0258 26.7842 13.0258 26.7143 13.0258C26.7143 13.0258 26.5747 13.0258 26.3651 12.9687H26.2953V13.2543C26.2953 13.3686 26.3651 13.4829 26.3651 13.5971V13.8828C26.3651 13.8828 26.3651 14.0542 26.2953 14.1684C26.1556 14.2827 25.7365 14.2827 25.7365 14.2827V15.8252C25.8064 17.939 27.762 18.9103 27.762 18.9103C27.9017 18.9674 27.9715 19.0245 28.1112 19.0817C28.8096 19.4816 29.5779 19.7672 30.3462 20.0529C31.7431 20.5099 32.7907 20.6813 32.7907 20.6813C33.0002 20.7384 33.2098 20.7956 33.4193 20.7956C35.1654 21.0812 37.2607 20.7956 37.2607 20.7956C37.8893 20.6813 38.3782 20.567 38.7274 20.5099C38.9369 20.4528 39.0766 20.3957 39.2163 20.3957C39.356 20.3385 39.4957 20.3385 39.4957 20.3385C39.8449 20.2243 40.2639 20.1671 40.6131 20.0529C41.8703 19.653 42.6386 19.253 42.918 19.0817C42.9878 19.0245 43.0577 19.0245 43.0577 19.0245C44.1752 18.339 44.5244 17.8819 44.6641 17.7677V17.7105C45.0133 17.3106 45.153 16.7964 45.2926 16.3965C45.2926 16.2251 45.3625 16.1109 45.3625 15.9966V15.7681V15.711V14.2827C45.3625 14.2827 45.2228 14.3398 44.8037 14.3398V15.9395C44.8037 17.482 43.6164 18.2247 43.6164 18.2247L27.3429 5.88451V6.39869C27.3429 6.39869 27.3429 6.45582 27.2731 6.51295V6.57008C27.2731 6.57008 27.2032 6.57008 27.2032 6.62721C27.1334 6.62721 27.1334 6.57008 27.0636 6.57008L26.9239 6.51295L26.854 6.45582C26.7842 6.39869 26.7143 6.34156 26.6445 6.34156C26.6445 6.34156 26.7143 6.34156 26.6445 6.34156ZM17.2157 5.99877C17.7046 6.2273 18.3331 6.45582 18.822 6.68434C19.2411 6.85573 19.7999 7.02712 20.0792 7.14138C20.7078 7.3699 21.4761 7.59843 22.1047 7.76982C22.873 7.99834 23.4317 8.16973 24.0603 8.45538C23.9905 8.28399 23.9905 8.05547 23.9206 7.88408C23.7809 7.48417 22.1745 7.02712 20.7777 6.57008C20.1491 6.39869 19.5903 6.17016 18.9617 5.94164C18.403 5.71312 17.9839 5.42747 17.4252 5.25608C17.1458 5.14182 16.7966 4.85616 16.5871 4.7419C16.3077 4.57051 15.7489 4.28486 15.3997 4.05634C15.0505 3.82781 14.7711 3.48503 14.4219 3.25651C14.3521 3.48503 14.2124 3.88494 14.3521 3.99921C14.9108 5.08469 16.0982 5.4846 17.2157 5.99877V5.99877Z" fill="#8694A5"/>
<path d="M14.7727 5.88458C15.3315 6.2845 16.0299 6.62728 16.7982 6.91294C17.6363 7.25572 18.5443 7.5985 19.5221 7.88416C20.0808 8.05555 20.6396 8.28407 21.1285 8.45546C21.4777 8.56972 21.8269 8.62685 22.1063 8.74112C22.7349 8.96964 23.2936 9.19816 23.9222 9.42668C24.1317 9.48381 24.2714 9.65521 24.3413 9.65521C24.481 9.65521 24.2714 8.96964 24.2016 8.91251C23.9921 8.79825 22.8746 8.3412 22.4555 8.22694C21.6174 7.99842 20.7793 7.71276 20.011 7.42711C19.6618 7.31285 19.2427 7.14146 18.8935 6.97007C18.2649 6.74154 17.3569 6.39876 16.7283 6.11311C16.2394 5.88458 15.8902 5.71319 15.4712 5.48467C14.633 5.08475 14.2838 4.51345 14.214 4.57058C14.1441 4.74197 14.0743 5.19902 14.214 5.37041C14.2838 5.48467 14.633 5.77032 14.7727 5.88458V5.88458ZM19.5919 1.65692C20.6396 2.05683 19.5919 2.22822 18.8935 2.22822C19.1729 2.34248 19.5919 2.45675 19.7316 2.7424C19.8015 2.28535 20.5697 2.11396 21.6174 2.51388C21.8968 2.62814 22.4555 3.02805 21.6174 3.08518C21.7571 3.25657 21.9666 3.25657 21.8968 3.54223C21.8269 4.17066 20.1507 3.77075 19.7316 3.59936L19.3126 3.25657V3.65649C19.2427 3.88501 19.103 4.0564 19.0332 4.2278C18.8935 4.91336 19.9411 5.08475 20.5697 5.08475C20.6396 5.14189 20.6396 5.25615 20.6396 5.31328C20.6396 5.42754 20.7094 5.5418 20.9189 5.48467C21.0586 5.37041 20.9888 5.02762 20.9189 4.85623C20.8491 4.68484 20.5697 4.97049 20.4999 4.68484C20.4999 4.34206 20.8491 4.74197 20.7094 4.17066C20.7094 4.0564 20.7793 4.0564 20.9189 4.11353C20.9189 4.2278 20.9189 4.28493 20.8491 4.34206C20.7793 4.45632 20.7793 4.51345 20.7793 4.57058C21.8269 4.97049 23.2238 5.37041 23.9222 4.2278C24.0619 4.0564 23.9921 3.82788 23.8524 3.65649C23.7127 3.4851 23.5032 3.37084 23.2238 3.37084C22.9444 3.37084 22.7349 3.3137 22.4555 3.4851C23.2238 3.59936 23.1539 4.17066 22.3158 4.2278C22.1063 4.2278 21.7571 4.28493 21.6174 4.17066V4.0564C22.1761 3.88501 22.0364 3.71362 22.1761 3.25657C22.1761 3.08518 22.3857 2.91379 22.3158 2.68527C22.246 2.34248 20.9888 1.9997 20.43 1.88544C20.2205 1.88544 20.2205 1.65692 20.0808 1.54265C19.6618 1.257 18.7538 1.19987 18.1951 1.19987C17.4966 1.19987 17.4966 1.257 17.6363 1.42839C17.8458 1.71405 18.8935 1.42839 19.5919 1.65692V1.65692ZM19.8015 4.74197C19.6618 4.74197 19.5919 4.68484 19.5221 4.68484C19.5221 4.62771 19.4522 4.57058 19.5221 4.57058C19.5919 4.57058 19.7316 4.51345 19.8713 4.57058C20.1507 4.51345 19.9411 4.74197 19.8015 4.74197ZM20.2205 4.7991C20.1507 4.7991 20.1507 4.68484 20.2904 4.62771C20.3602 4.62771 20.2904 4.7991 20.2205 4.7991ZM19.6618 4.11353C19.5919 4.11353 19.5919 3.88501 19.8713 3.88501C19.9411 3.88501 20.2205 3.99927 20.3602 3.99927C20.6396 4.0564 19.8015 4.0564 19.6618 4.11353ZM14.8426 8.3412C14.4235 8.16981 13.7251 7.76989 13.5156 7.5985C13.3759 7.48424 12.9568 7.25572 12.7473 7.14146C12.3981 6.91294 12.0488 6.51302 12.1187 6.74154C12.2584 7.08433 12.4679 7.42711 12.6774 7.76989C12.9568 8.11268 13.4457 8.45546 13.8648 8.68399C14.1441 8.79825 14.5632 8.96964 14.7727 9.14103C14.9823 9.31242 15.1918 9.76947 15.1918 9.99799C15.6807 11.8833 14.4934 13.3687 13.6552 14.4542C13.4457 14.7398 13.1663 14.9684 12.9568 15.3111C12.6774 15.9967 13.0965 16.9679 14.1441 16.6251C15.1219 16.1681 14.5632 15.4254 15.0521 14.6256C15.3315 14.1685 15.8204 14.3399 15.9601 14.1114C16.0299 13.94 16.1696 13.6544 16.3093 13.4258C16.5887 12.9117 17.0776 12.2832 17.2172 11.9404C17.2871 11.769 17.4268 10.9121 17.3569 10.6836C17.3569 10.6264 16.9379 10.455 16.868 10.3979C17.2871 11.5405 16.7283 12.3975 15.9601 13.1973C15.7505 13.3687 15.6109 13.7686 15.541 13.8829C15.1219 13.8829 14.7029 14.3399 14.633 14.5113C14.3537 14.9684 14.4934 15.6539 14.214 16.0538C14.0743 16.2252 13.6552 16.3966 13.4457 16.1681C13.306 15.9967 13.306 15.5397 13.4457 15.3111C13.6552 14.9112 14.0743 14.6256 14.2838 14.2828C14.8426 13.5401 15.3315 12.6831 15.6109 11.7119C15.7505 11.0835 15.6807 10.3408 15.541 9.71234C15.4712 9.42668 15.2616 9.14103 15.1219 8.85538C14.9823 8.74112 14.9124 8.51259 14.8426 8.3412V8.3412ZM16.1696 3.25657C16.449 3.4851 16.5188 3.4851 16.3791 3.14231C16.3093 3.02805 16.3791 2.91379 16.3791 2.85666C16.3093 2.79953 16.1696 2.7424 16.0998 2.68527C15.8204 2.51388 15.6109 2.17109 15.6807 1.77118C15.7505 1.54265 15.7505 1.42839 15.9601 1.48552C16.0998 1.54265 16.3791 1.77118 16.449 1.88544C16.7982 2.22822 16.6585 2.45675 16.7283 2.79953C16.7283 3.08518 16.7982 3.3137 17.0776 3.65649C17.1474 3.71362 17.2871 3.82788 17.2871 3.77075C17.2871 3.71362 17.3569 3.3137 17.4268 3.25657C17.4966 3.19944 17.7062 2.85666 17.776 2.57101C17.8458 2.22822 17.7062 1.88544 17.4966 1.59979C17.2172 1.19987 17.0077 1.14274 16.3791 1.14274C16.2394 1.14274 15.9601 1.14274 15.8902 1.19987C15.541 1.48552 15.3315 1.88544 15.4013 2.28535C15.4712 2.7424 15.8902 2.97092 16.1696 3.25657V3.25657Z" fill="#8694A5"/>
<path d="M15.4714 3.8848C16.2397 4.4561 17.2175 4.91314 18.1254 5.42732C18.5445 5.65584 19.3826 5.99862 19.5223 5.99862C19.5922 5.99862 19.8017 6.11288 19.9414 6.17001C20.0811 6.22715 22.4557 6.96984 22.6653 7.02697C23.0145 7.0841 23.4335 7.36976 23.4335 7.31262C23.2939 6.91271 23.0145 6.68419 22.7351 6.45567C22.3859 6.22715 21.897 5.99862 21.4081 5.88436C20.989 5.7701 20.5001 5.59871 20.0112 5.48445C18.6842 5.08454 17.5667 4.4561 16.5191 3.82766C16.3095 3.7134 16.1 3.48488 15.8905 3.37062C15.6111 3.19923 15.3317 2.97071 15.1222 2.74219C14.9825 2.57079 14.9825 2.28514 14.9825 2.05662C14.9127 2.22801 14.7031 2.57079 14.6333 2.79932C14.6333 2.97071 14.6333 3.02784 14.773 3.19923C14.9825 3.48488 15.2619 3.7134 15.4714 3.8848V3.8848ZM19.8017 10.7405C20.2207 10.7405 20.989 10.7976 21.8271 10.8547C22.1065 10.8547 21.1986 10.5691 20.7795 10.4548C20.2906 10.3405 19.8017 10.1692 19.3128 10.0549C18.4747 9.82637 17.8461 9.59784 17.008 9.36932C16.4492 9.19793 16.1698 9.02654 15.9603 8.91228C15.8905 8.85515 15.4016 8.5695 15.4714 8.74089C15.5412 8.91228 15.6111 8.96941 15.7508 9.19793C16.3095 10.2263 18.335 10.6833 19.8017 10.7405V10.7405ZM14.5634 7.94106C14.5634 7.76967 14.2841 7.42689 14.2142 7.31262C14.0745 7.0841 14.0745 6.96984 14.0047 6.85558C13.865 6.79845 13.5158 6.56993 13.3063 6.39854C12.6777 6.05575 12.2586 5.42732 11.9094 5.14167C11.8396 5.14167 11.7697 5.59871 11.8396 5.7701C12.1189 6.5128 12.8872 7.02697 14.5634 7.94106V7.94106ZM57.7964 5.54158C57.7964 5.7701 57.6567 6.17002 57.6567 6.34141C57.7266 6.45567 59.1933 5.14167 59.333 4.68462C59.4028 4.51323 59.1234 4.22758 58.9838 4.05619C58.8441 4.28471 58.7044 4.51323 58.5647 4.68462C57.8663 5.37019 57.8663 5.31306 57.7964 5.54158V5.54158ZM57.8663 4.28471C57.8663 4.4561 57.9361 4.62749 57.9361 4.85601C58.006 4.91314 58.5647 4.17045 58.5647 4.05619C58.7742 3.7134 58.4949 3.48488 58.2155 3.37062C58.0758 3.48488 57.9361 3.65627 57.9361 3.77053C57.7964 3.82766 57.7964 3.94193 57.8663 4.28471V4.28471ZM57.1678 5.82723C55.771 6.91271 52.6979 7.94106 51.6502 8.22671C50.4629 8.5695 49.3454 9.02654 48.2279 9.42645C48.0184 9.48358 46.7612 9.99776 46.6913 10.112V10.6833C47.8088 10.1691 49.066 9.76924 50.1835 9.31219C51.0216 9.02654 51.9994 8.79802 52.9074 8.5695C54.0947 8.22671 55.2122 7.8268 56.2599 7.25549C56.6789 7.02697 56.9583 6.79845 57.098 6.5128C57.1678 6.34141 57.2377 6.05575 57.1678 5.82723V5.82723ZM55.3519 9.59784C55.6313 9.31219 55.8408 9.02654 55.9805 8.62663C54.5138 9.42645 52.7677 9.82637 51.0216 10.2834C50.4629 10.4548 49.1359 10.8547 49.4851 10.7976C50.6724 10.6262 51.7201 10.7976 52.6979 10.6262C53.8852 10.4548 54.7233 10.2263 55.3519 9.59784V9.59784ZM57.7964 3.48488C57.8663 3.31349 58.0758 3.02784 57.5171 2.97071C57.3774 2.91358 57.3075 3.02784 57.5869 3.25636C57.6567 3.31349 57.6567 3.59914 57.7964 3.48488V3.48488ZM13.7253 3.48488C13.7952 3.48488 13.7952 3.31349 13.865 3.31349C13.9349 3.19923 14.0047 3.08497 14.0047 3.02784C14.0047 2.97071 14.0047 2.97071 13.9349 2.97071C13.9349 2.97071 13.5158 3.02784 13.5158 3.1421C13.5158 3.25636 13.5856 3.48488 13.7253 3.48488V3.48488ZM18.1254 8.51237C19.3128 8.85515 20.4303 9.08367 20.7795 9.25506C21.1287 9.36932 21.6176 9.54071 21.9668 9.65498C22.9446 9.99776 23.9224 10.3977 24.6907 10.7405C24.7606 10.7405 24.6907 10.112 24.4812 9.99776C23.7828 9.71211 23.0843 9.36932 22.3859 9.1408C21.6176 8.85515 20.7795 8.5695 20.0112 8.28384C19.662 8.16958 19.3826 8.05532 18.9636 7.94106C18.6842 7.8268 18.4048 7.76967 18.1254 7.65541C16.1 7.0841 14.9825 6.28428 14.6333 6.11288C14.5634 6.05575 14.2841 5.88436 14.2142 5.82723C14.1444 5.82723 14.2142 6.11288 14.2142 6.11288C14.2841 6.5128 14.4238 6.68419 14.7031 6.91271C14.9825 7.19836 15.5412 7.42689 16.0301 7.59828C16.7286 7.99819 17.427 8.28384 18.1254 8.51237V8.51237ZM13.5158 4.74175C13.5856 4.62749 13.5856 4.39897 13.5856 4.11332C13.5856 3.77053 13.5158 3.65627 13.3761 3.48488C13.3063 3.42775 13.3063 3.31349 13.2364 3.31349C13.0967 3.37062 12.8174 3.54201 12.8174 3.7134C12.8174 3.8848 12.957 4.11332 13.0269 4.28471C13.1666 4.39897 13.4459 4.79888 13.5158 4.74175V4.74175Z" fill="#8694A5"/>
<path d="M55.0707 13.5401C55.2802 13.94 55.4199 14.2828 55.4897 14.2828C55.5596 14.3399 55.6993 14.3399 55.839 14.3399C56.0485 14.397 56.3279 14.6256 56.3977 14.797C56.7469 15.4254 56.3977 16.6251 57.4453 16.7394C57.7946 16.7965 58.1438 16.6823 58.2835 16.5109C58.493 16.3395 58.5628 15.9967 58.5628 15.6539C58.3533 14.9112 57.8644 14.6256 57.5152 14.1114C56.6771 13.1402 55.4199 10.7978 56.6771 9.19818C56.8866 8.91253 57.4453 8.79827 57.7946 8.62688C58.1438 8.45549 58.493 8.1127 58.7724 7.88418C58.9121 7.76992 59.5407 6.85584 59.3311 6.74158C58.7724 7.19862 58.1438 7.59853 57.4453 7.99844C57.166 8.1127 56.8168 8.22697 56.6072 8.45549C56.3977 8.68401 56.3279 8.96966 56.1882 9.19818C55.1405 11.0835 56.1882 13.4258 57.3755 14.7398C57.585 14.9683 58.493 15.9967 57.7946 16.3966C57.585 16.5109 57.2358 16.3966 57.166 16.2252C56.8866 15.8253 57.0263 15.1397 56.8168 14.6827C56.7469 14.5113 56.4675 14.2257 56.1882 14.1685C56.1183 14.1114 55.9786 14.1685 55.9088 14.1114C55.839 14.0543 55.6993 13.8257 55.5596 13.6543C55.2104 13.1973 54.6516 12.6831 54.4421 12.0547C54.3024 11.6548 54.2326 11.2549 54.3722 10.855C54.3722 10.7407 54.4421 10.6264 54.5119 10.5693C54.5818 10.455 53.8833 10.7407 53.8833 10.9121C53.8833 11.1977 53.9532 11.5405 53.9532 11.8833C54.1627 12.169 54.7215 12.9117 55.0707 13.5401V13.5401ZM12.3266 5.14193C12.6758 5.59897 13.3742 6.17027 13.7234 6.34166L13.5837 5.77036C13.5837 5.6561 13.5837 5.48471 13.444 5.31332C13.3044 5.0848 12.6758 4.62775 12.5361 4.05645C12.3964 3.94219 12.117 4.51349 12.117 4.68488C12.117 4.79914 12.2567 5.02767 12.3266 5.14193ZM53.8135 2.79958C53.8833 3.0281 54.1627 3.25662 54.1627 3.54228C54.0929 3.82793 54.2326 3.88506 54.4421 3.65654C55.0707 2.91384 54.5119 2.51393 55.0008 1.94262C55.1405 1.7141 55.4897 1.37132 55.6294 1.59984C55.839 2.05689 55.6993 2.39967 55.5596 2.57106C55.3501 2.79958 55.0008 2.85671 55.0008 3.25662C55.0008 3.42801 54.931 3.54228 55.0707 3.48514C55.2802 3.31375 55.6993 3.0281 55.9088 2.68532C56.1882 2.34254 55.9786 1.48558 55.6294 1.31419C55.4897 1.25706 55.0707 1.19993 54.7215 1.19993C54.4421 1.25706 54.2326 1.37132 54.0929 1.59984C53.8135 1.82836 53.604 2.28541 53.8135 2.79958Z" fill="#8694A5"/>
<path d="M54.7907 3.88479C53.743 4.51322 52.5557 5.08452 51.3684 5.48444C50.4604 5.77009 49.5525 5.88435 48.854 6.34139C48.5048 6.56991 47.8064 7.36974 47.9461 7.31261C49.2731 6.79843 50.7398 6.39852 52.0668 5.94148C53.6034 5.37018 54.9304 4.62748 56.1177 3.77053C56.3273 3.59914 56.8162 3.25636 56.8162 3.02783C56.886 2.74218 56.6066 2.22801 56.3971 2.05662C56.2574 2.11375 56.3971 2.62792 56.1177 2.85644C55.9082 3.02783 55.0002 3.77053 54.7907 3.88479V3.88479ZM30.8344 4.62748L32.2313 4.17044L30.8344 3.7134L29.4376 4.17044L30.8344 4.62748ZM57.2352 7.14122C57.0955 7.42687 56.9558 7.65539 56.8162 7.88391C56.8162 7.99817 59.1908 6.68417 59.54 5.94148C59.6099 5.71296 59.6099 5.31305 59.54 5.14166C59.2607 5.42731 58.9813 5.77009 58.7019 5.99861C58.0733 6.56991 57.5146 6.68417 57.2352 7.14122V7.14122ZM55.9082 5.48444C53.743 6.56991 51.3684 7.484 48.7842 8.22669C48.435 8.34095 47.1079 8.85512 47.0381 8.91225C46.8984 9.14077 46.8286 9.42643 46.8286 9.65495C47.3873 9.42643 48.3651 9.02651 49.1334 8.74086C51.5081 7.94104 54.0923 7.31261 56.0479 6.17C56.4669 5.94148 56.886 5.71296 57.1654 5.42731C57.3749 5.19879 57.2352 4.74174 57.1654 4.51322C56.8162 4.856 56.3971 5.25592 55.9082 5.48444Z" fill="#8694A5"/>
<path d="M55.4906 4.51358C55.1414 4.7421 53.4652 5.59906 52.627 5.99898C51.5794 6.45602 50.3921 6.79881 49.3444 7.08446C48.7857 7.25586 47.5983 7.7129 47.5983 7.88429C47.5285 8.11282 47.3888 8.34134 47.3189 8.56986C48.646 8.05569 48.9952 7.99856 50.4619 7.54151C51.0206 7.37012 52.0683 7.02733 52.208 6.91307C53.1858 6.57029 54.0938 6.11324 54.7922 5.82759C55.9097 5.37054 56.8875 4.62784 57.1669 4.17079C57.3066 3.88514 57.1669 3.59948 57.097 3.37096C57.0272 3.37096 56.2589 4.05653 55.4906 4.51358V4.51358ZM35.5853 3.59948C35.0265 3.65661 34.4678 3.71375 34.1185 3.88514C33.909 3.9994 33.909 4.22792 33.909 4.22792C33.909 4.34218 34.2582 4.51358 34.3979 4.51358C35.236 4.7421 36.4932 4.68497 37.1917 4.39931C37.4012 4.34218 37.6806 4.17079 37.471 3.94227C37.2615 3.71375 36.2138 3.59948 35.5853 3.59948ZM37.052 4.22792C36.9123 4.34218 36.3535 4.45645 35.7948 4.45645C35.0964 4.45645 34.4678 4.39931 34.4678 4.22792C34.4678 4.17079 34.5376 4.11366 34.7471 4.05653C35.0265 3.9994 35.4456 3.94227 35.8646 3.94227C36.3535 3.94227 37.052 3.94227 37.1218 4.17079L37.052 4.22792ZM50.7413 4.57071C50.7413 4.45645 50.7413 4.39931 50.6714 4.34218C50.6016 4.22792 50.6016 4.17079 50.6016 4.11366C50.7413 4.05653 50.881 4.05653 50.8111 4.17079C50.7413 4.7421 51.0905 4.34218 51.0206 4.68497C51.0206 4.97062 50.7413 4.68497 50.6016 4.85636C50.5317 5.02775 50.4619 5.37054 50.6016 5.4848C50.8111 5.4848 50.881 5.42767 50.881 5.31341C50.881 5.19915 50.881 5.14202 50.9508 5.08488C51.5794 5.08488 52.627 4.91349 52.4175 4.28505C52.3477 4.05653 52.208 3.88514 52.1381 3.71375V3.31383C51.9985 3.42809 51.8588 3.54235 51.7191 3.59948C51.3 3.82801 49.6238 4.17079 49.5539 3.54235C49.5539 3.2567 49.6936 3.2567 49.8333 3.08531C49.065 3.02818 49.6238 2.62826 49.8333 2.514C50.8111 2.05695 51.5794 2.28547 51.7191 2.74252C51.8588 2.514 52.2778 2.34261 52.5572 2.22834C51.8588 2.22834 50.7413 2.05695 51.8588 1.65704C52.5572 1.37138 53.6049 1.71417 53.7445 1.48564C53.8842 1.31425 53.8842 1.25712 53.1858 1.25712C52.627 1.25712 51.7191 1.31425 51.3 1.59991C51.2302 1.65704 51.1603 1.88556 51.0206 1.94269C50.4619 1.99982 49.2746 2.39974 49.1349 2.74252C49.065 3.02818 49.2746 3.14244 49.2746 3.31383C49.3444 3.82801 49.2047 3.94227 49.8333 4.11366V4.22792C49.6936 4.34218 49.3444 4.34218 49.1349 4.28505C48.3666 4.22792 48.2269 3.65661 48.9952 3.54235C48.7857 3.31383 48.5761 3.37096 48.2968 3.37096C48.0174 3.42809 47.8078 3.48522 47.6682 3.65661C47.5285 3.82801 47.5285 4.05653 47.5983 4.22792C48.2968 5.31341 49.7635 5.02775 50.7413 4.57071V4.57071ZM51.3 4.79923C51.2302 4.79923 51.1603 4.62784 51.2302 4.62784C51.4397 4.68497 51.3699 4.7421 51.3 4.79923ZM51.9286 4.62784C51.9286 4.68497 51.7889 4.68497 51.6492 4.68497C51.5096 4.68497 51.3 4.45645 51.5095 4.45645H51.8588C52.0683 4.51358 51.9985 4.57071 51.9286 4.62784V4.62784ZM51.2302 3.9994C51.3699 3.9994 51.6492 3.88514 51.7191 3.88514C51.9286 3.88514 51.9985 4.05653 51.9286 4.11366C51.7889 4.05653 50.881 4.05653 51.2302 3.9994ZM40.5441 4.62784L41.941 4.17079L40.5441 3.71375L39.1473 4.17079L40.5441 4.62784Z" fill="#8694A5"/>
<path d="M23.572 4.97065C23.4323 5.19918 23.5022 5.48483 23.572 5.77049C23.2927 5.88475 23.0831 6.05614 22.9434 6.28466C23.0133 6.3418 23.0831 6.45606 23.153 6.45606C23.2927 6.45606 23.3625 6.39893 23.3625 6.34179C23.5022 6.22753 23.9212 5.94188 23.9911 5.82762C24.0609 5.77049 23.9911 5.59909 23.9911 5.48483C23.7816 5.08492 24.1308 5.02778 24.2705 4.97065C24.5498 4.91352 24.6895 5.02778 24.8292 4.85639C24.899 4.79926 24.8292 4.685 24.8292 4.57074C24.899 4.17082 25.388 4.17082 25.7372 4.34221C25.9467 4.45648 26.1562 4.45648 26.3658 4.28508C26.5753 4.11369 26.9944 4.17082 27.2039 4.45648C26.8547 4.51361 26.6451 4.685 26.6451 4.91352C26.3658 4.79926 26.2261 4.85639 26.0864 4.91352C25.807 5.02778 25.6673 5.19918 25.5276 5.37057C25.4578 5.37057 25.3181 5.31344 25.1784 5.37057C24.899 5.4277 24.6197 5.65622 24.6197 5.88475C24.6197 6.11327 24.899 6.28466 25.0387 6.39893C25.388 6.68458 24.8292 6.57032 24.7594 6.79884C24.6895 7.02737 24.899 7.25589 24.5498 7.25589C24.2705 7.25589 24.1308 6.9131 23.9911 6.97023C23.9911 7.02737 23.9212 7.42728 23.9911 7.37015C24.2006 7.31302 24.3403 7.48441 24.48 7.48441C24.7594 7.48441 24.899 7.42728 25.0387 7.42728C25.1784 7.42728 25.3181 7.54154 25.5276 7.54154C25.6673 7.59867 25.9467 7.54154 26.0165 7.54154C26.9245 7.19876 26.2261 6.79884 26.2261 6.79884C26.2261 6.79884 26.0864 6.68458 25.9467 6.62745C25.9467 6.62745 26.715 6.74171 26.2959 6.22753H26.3658L26.5753 6.28466H26.6451C26.715 6.28466 26.715 6.34179 26.7848 6.34179L26.9245 6.39893C26.9944 6.39893 26.9944 6.45606 27.0642 6.45606C27.0642 6.45606 27.134 6.45606 27.134 6.39893L27.2039 6.34179C27.2039 6.28466 27.2039 6.28466 27.2737 6.22753V5.71336C27.2737 5.59909 27.2737 5.54196 27.2039 5.4277C27.6229 5.4277 27.6229 5.77049 27.8325 5.71336C27.9023 5.65622 27.9722 5.4277 28.042 5.25631C28.042 5.08492 27.9722 4.97065 27.9023 4.79926C27.9023 4.79926 27.6229 4.45648 27.6229 4.39935C27.5531 4.28508 27.5531 4.17082 27.4833 4.05656C27.4134 3.99943 27.134 3.82804 27.134 3.71377C27.134 3.48525 27.134 3.08534 27.2737 3.08534C30.277 3.08534 40.8932 3.0282 43.4774 3.0282C43.8266 3.0282 44.106 3.14247 44.0361 3.14247C44.0361 3.25673 44.106 3.54238 44.0361 3.71377C43.9663 3.82804 43.7568 3.88517 43.6869 3.99943C43.6171 4.11369 43.5472 4.39935 43.4774 4.57074C43.4075 4.62787 43.3377 4.74213 43.2679 4.79926H42.2202H43.198C43.0583 5.02778 42.9885 5.14205 43.0583 5.25631C43.0583 5.25631 43.0583 5.4277 43.1282 5.59909C43.1282 5.65622 43.198 5.71336 43.2679 5.71336C43.4075 5.71336 43.6869 5.4277 44.106 5.4277C44.106 5.65622 44.0361 6.3418 44.2457 6.28466C44.4552 6.22753 44.6647 5.99901 44.8044 6.05614C44.6647 6.1704 44.7346 6.28466 44.8044 6.34179C44.8044 6.34179 44.8742 6.45606 45.3632 6.45606C45.3632 6.45606 44.2457 7.0845 45.2933 7.37015C45.5727 7.31302 45.8521 7.25589 45.9917 7.19876C46.2711 7.14163 46.4108 7.25589 46.6203 7.19876C46.8299 7.14163 47.1791 7.14163 47.1791 6.97023C47.1791 6.85597 47.0394 6.68458 47.0394 6.62745C46.76 6.74171 46.6203 7.02737 46.341 6.9131C46.4806 6.68458 46.341 6.28466 45.9917 6.28466C46.0616 6.51319 46.8299 6.22753 46.8299 5.77049C46.8299 5.54196 46.4806 5.25631 45.9917 5.37057C45.8521 5.19918 45.7124 4.97065 45.5028 4.91352C45.2933 4.85639 45.0139 4.85639 44.8742 4.91352C44.7346 4.685 44.5949 4.62787 44.3155 4.51361C44.2457 4.57074 44.4552 4.05656 45.0139 4.28508C45.1536 4.34221 45.2235 4.45648 45.3632 4.45648C45.7822 4.51361 45.9917 4.11369 46.4806 4.34221C46.5505 4.39935 46.76 4.62787 46.6203 4.85639C46.8299 5.14205 47.1092 4.91352 47.3188 5.02778C47.8077 5.31344 47.3188 5.48483 47.4585 5.82762C47.5283 5.99901 47.9474 6.1704 48.087 6.28466C48.2966 6.51319 48.6458 6.34179 48.4363 6.1704C48.2966 6.05614 47.9474 5.88475 47.8775 5.71336C47.8077 5.59909 47.9474 5.48483 48.0172 5.37057C48.087 4.85639 47.5981 4.62787 46.9695 4.62787C46.8299 4.28508 46.76 4.05656 46.341 3.9423C45.7822 3.77091 45.7124 4.05656 45.433 4.05656C45.433 4.05656 44.7346 3.88517 44.7346 3.82804C44.6647 3.77091 44.5949 2.97107 44.5949 2.85681C45.0838 2.68542 45.8521 2.22837 45.9917 1.65706C46.0616 1.37141 45.9917 0.857232 45.9917 0.571577C45.5727 0.628708 44.9441 0.514446 44.525 0.628708C43.6869 0.800101 44.4552 2.34263 43.2679 2.4569C42.7789 2.51403 42.4996 2.22837 42.3599 1.99985C41.9408 1.31428 42.5694 0.800101 42.6393 0.571577C42.29 0.571577 39.9154 0.514446 39.0074 0.514446C39.0074 0.571577 39.4963 1.25715 39.1471 1.88559C38.7979 2.22837 38.0994 2.79968 37.3312 2.05698C37.0518 1.82846 37.0518 1.37141 37.1216 0.971493C37.1915 0.800101 37.2613 0.74297 37.3312 0.457315H33.9787C34.1184 0.74297 34.1882 0.857232 34.2581 1.08575C34.3977 1.71419 34.0485 2.39976 33.3501 2.4569C32.6517 2.51403 32.1628 1.82846 32.2326 1.25715C32.2326 1.02862 32.3723 0.800101 32.4421 0.571577C31.2548 0.628708 29.9976 0.571577 28.8801 0.628708C28.95 1.08575 29.5087 1.59993 28.95 2.22837C28.6007 2.68542 27.4833 2.74255 27.4134 1.82846C27.3436 1.42854 27.3436 1.02862 26.9245 0.74297H25.388C25.1784 2.05698 25.8769 2.22837 26.7848 2.85681V3.82804C26.5753 3.88517 26.1562 4.05656 25.9467 4.05656C25.8769 4.05656 25.5975 3.71377 25.0387 3.99943C24.6895 4.11369 24.48 4.45648 24.4101 4.685C24.1308 4.685 23.7117 4.74213 23.572 4.97065V4.97065ZM24.9689 5.82762C25.0387 5.82762 25.0387 5.77049 25.1086 5.71336C25.4578 5.65622 25.807 5.94188 25.8769 6.11327V6.22753C25.5276 6.34179 24.9689 6.11327 24.9689 5.82762V5.82762ZM25.6673 7.31302C25.4578 7.31302 25.1784 7.25589 25.1086 7.19876C24.9689 7.0845 24.9689 6.85597 25.2483 6.85597C25.4578 6.85597 25.7372 7.02737 25.8769 7.14163C26.0165 7.19876 25.9467 7.25589 25.6673 7.31302V7.31302ZM26.7848 5.99901C26.5054 5.94188 26.0864 5.82762 26.0165 5.65622C25.9467 5.54196 26.0864 5.37057 26.0864 5.37057C26.5054 5.25631 26.9943 5.88475 26.7848 5.99901ZM27.2737 4.91352C27.6229 4.79926 27.7626 5.14205 27.6928 5.31344C27.4833 5.25631 27.0642 5.08492 27.2737 4.91352V4.91352ZM45.6425 7.31302C45.1536 7.31302 45.7822 6.85597 46.0616 6.85597C46.6902 6.79884 46.341 7.31302 45.6425 7.31302ZM46.1314 5.71336C46.76 5.65622 46.2711 6.22753 45.8521 6.28466C45.2933 6.28466 45.9219 5.77049 46.1314 5.71336ZM45.0838 5.37057H45.3632C45.5028 5.71336 45.0838 5.88475 44.8044 5.99901H44.6647C44.6647 5.71336 44.8742 5.4277 45.0838 5.37057ZM44.106 5.14205C44.0361 5.19918 43.8266 5.25631 43.7568 5.25631L43.6171 5.19918C43.6869 5.02778 43.7568 4.85639 43.8964 4.85639C44.2457 4.85639 44.2457 5.08492 44.106 5.14205V5.14205ZM44.525 1.37141C44.5949 1.25715 44.8044 1.14289 45.0139 1.14289C45.5727 1.14289 45.2933 1.71419 45.2933 1.65706C45.2933 1.71419 45.2235 1.82846 45.1536 1.88559C44.9441 2.11411 44.5949 2.34263 44.3155 2.4569C44.4552 2.11411 44.3853 1.65706 44.525 1.37141ZM39.636 1.65706C39.636 1.31428 39.5662 1.20002 39.7058 0.971493C40.4043 0.971493 41.7313 0.914362 41.6615 1.08575C41.3821 2.05698 41.8011 2.51403 42.29 2.79968C41.1725 2.79968 41.0329 2.4569 40.963 1.94272C40.7535 1.82846 40.544 1.88559 40.2646 1.88559C39.9852 2.4569 40.1249 2.79968 38.8677 2.74255C38.4487 2.85681 39.5662 2.51403 39.636 1.65706ZM34.8866 1.77133C34.9565 1.5428 34.8866 1.25715 34.8168 1.08575C34.8168 0.971493 36.6327 0.914362 36.5629 1.02862C36.3534 2.2855 37.1915 2.62829 37.4709 2.79968C36.5629 2.85681 36.1438 2.74255 36.0041 1.99985H35.3756C35.3057 2.74255 34.8866 2.85681 33.9787 2.79968C34.3977 2.57116 34.747 2.2855 34.8866 1.77133V1.77133ZM29.7182 1.02862C29.8579 1.02862 31.4643 0.971493 31.8135 0.971493C31.7437 1.37141 31.7437 2.39976 32.6517 2.74255C31.4643 2.79968 31.5342 2.57116 31.1849 1.88559H30.5564C30.3468 2.57116 30.4865 2.79968 29.1595 2.74255C29.6484 2.34263 30.0675 2.17124 29.7182 1.02862V1.02862ZM26.0864 1.08575H26.715C27.2039 1.37141 26.8547 2.11411 27.2039 2.51403C26.4356 2.17124 25.6673 1.48567 26.0864 1.08575Z" fill="#8694A5"/>
<path d="M62.1251 22.7381C61.8457 23.0237 61.0775 23.2522 60.5187 23.2522C60.5886 22.6809 59.96 22.4524 59.8203 21.9382C59.6806 21.5954 59.96 21.2527 59.96 21.0241C60.0298 20.6242 59.6108 20.6242 59.5409 20.3957C59.4711 20.2243 59.5409 19.9958 59.5409 19.8815C59.5409 19.7673 59.2615 19.653 58.9123 19.5387C58.3536 19.9387 57.7948 19.9958 57.3758 19.7673C57.2361 19.7101 57.0964 19.5959 57.0964 19.5387C57.0266 19.1388 57.5155 18.6247 57.6551 18.339C57.7948 18.1105 57.7948 17.8248 57.8647 17.5963C58.9822 17.4249 59.6108 16.7965 59.4711 15.711C59.4012 15.4253 59.2615 15.1397 59.1219 14.9112C58.9123 14.6826 58.7726 14.397 58.5631 14.1685C58.1441 13.7114 57.725 13.1972 57.4456 12.6259C56.8869 11.5405 56.9567 9.94079 57.6551 9.08383C57.6551 9.08383 58.0044 8.74105 57.8647 8.79818C57.725 8.79818 57.5155 8.96957 57.3758 9.0267C57.0266 9.1981 56.817 9.71227 56.7472 10.1122C56.6773 10.3407 56.6773 10.5121 56.6773 10.6835C56.6773 10.8549 56.6773 11.1405 56.7472 11.3119C56.8869 12.226 57.2361 12.7402 57.6551 13.4258C58.144 14.2256 59.4711 15.0826 59.2615 16.3394C59.1219 17.1393 58.1441 17.2535 57.2361 17.2535C57.3059 17.5963 57.3758 18.0533 57.3059 18.4533C57.2361 18.8532 56.817 19.196 56.9567 19.7101C56.9567 19.7101 57.0964 20.6814 59.2615 20.0529C59.3314 20.3386 59.4012 20.5671 59.5409 20.7385C59.8203 21.0241 59.7504 20.6814 59.6108 21.2527C59.5409 21.5383 59.6108 21.8811 59.6806 22.0525C59.8203 22.3953 60.0997 22.6238 60.2393 22.9666C60.2393 22.9666 60.2394 23.2522 60.0298 23.595C59.5409 23.5379 58.7028 23.5379 58.3536 23.7093C57.9345 23.9378 58.2139 24.2235 57.725 24.2235C57.5853 24.2235 57.6551 24.0521 57.5853 23.9949C57.3758 23.7093 57.0266 23.6522 56.6075 23.595C56.6773 22.9666 56.6773 22.9095 56.2583 22.5095C56.5377 22.3381 56.817 22.3953 57.1662 22.5667C57.3758 22.6809 57.5155 22.7381 57.7948 22.8523C57.9345 22.6238 57.7948 22.2239 57.9345 21.9382C58.1441 21.4812 58.2139 21.3098 57.9345 21.3098C57.3758 21.2527 56.9567 21.1955 56.7472 20.7956C56.2583 20.0529 56.6075 20.2814 55.9789 20.4528C54.582 20.9099 54.0233 20.3957 53.6042 20.11C53.3947 19.9387 53.255 19.7101 53.1852 19.4245C52.9756 18.8532 52.9058 18.1105 52.9756 17.4249C53.0455 16.8536 53.3249 16.0538 53.1153 15.2539C53.0455 14.9112 52.6963 14.4541 52.4169 14.3399C52.0677 14.2256 51.6486 14.2256 51.2994 14.1113C50.3914 13.8828 49.6232 12.9687 50.1121 12.1118C50.4613 11.4833 51.3692 11.1405 51.3692 10.912H50.7407C50.3216 11.4262 48.366 12.5688 47.8072 12.9116C48.1565 13.3686 47.8072 13.7685 47.8771 13.6543C47.3183 13.1401 46.8993 13.9399 46.6897 13.8828C46.5501 13.2544 46.4802 13.2544 45.8516 12.9687C45.9215 12.5688 46.2008 12.2832 45.8516 11.9404V11.8261C45.9215 11.6547 45.9215 11.4833 45.9215 11.2548C46.2008 11.1977 46.7596 11.769 46.8993 11.7118C47.5279 11.5405 48.1565 11.0263 49.4835 10.5692C50.3216 10.2836 51.2296 9.99793 52.0677 9.7694C53.4645 9.36949 55.8392 8.79818 56.5377 7.94122C56.6773 7.76983 56.7472 7.54131 56.817 7.31278C56.6075 7.36991 55.5598 7.94122 54.582 8.34114C53.7439 8.62679 52.2772 8.96957 51.4391 9.25523C50.3216 9.59801 49.1343 9.94079 48.0866 10.3978C47.3183 10.7406 46.9691 10.9691 46.7596 11.0263C46.4802 11.1405 46.8294 11.2548 46.6199 11.3691C46.3405 11.1405 45.9215 10.9691 45.5722 10.912C45.2929 10.912 45.0833 10.9691 45.0833 10.9691V10.912V10.9691C45.0833 10.9691 45.0135 10.9691 44.9437 11.0263C44.804 11.1405 44.4548 11.2548 44.3849 11.3691C44.2452 11.5405 44.2452 11.8261 44.3151 11.9404C44.3849 11.9975 44.5944 12.0546 44.6643 12.0546C44.3849 12.226 44.1055 12.5117 44.1055 12.8545C43.9659 13.6543 44.9437 13.1401 45.0135 13.3686C45.1532 13.7114 44.804 13.9971 44.8738 14.397C44.8738 14.4541 44.9437 14.5684 45.0135 14.6255L45.0833 14.6826C45.5024 14.7398 45.6421 14.6255 45.6421 14.6255C46.2008 14.3399 46.0612 14.4541 46.131 14.397C46.6199 14.397 46.3405 14.7398 46.2008 14.7969C46.131 14.854 45.7818 14.9683 46.0612 15.0254C46.5501 15.0826 46.7596 15.1968 47.3183 14.854C47.7374 14.6255 48.0866 14.0542 48.1565 13.54C48.1565 13.54 48.0866 13.1972 48.1565 13.1401C48.1565 13.083 49.4136 12.3403 49.4136 12.3403C49.5533 12.4545 49.0644 13.6543 50.0422 14.3399C50.6708 14.7969 49.2739 14.1685 47.6675 14.7398C46.8993 15.0254 46.4802 15.4253 46.0612 15.9966C45.2929 17.1393 46.2707 18.0533 47.3183 18.5104C47.3183 18.9674 47.3882 18.9674 47.2485 19.0246C47.1088 19.0817 46.9691 19.0246 46.8294 19.0817C46.0612 19.3102 46.2008 19.8244 45.7818 19.7673C45.223 19.653 44.8738 18.9674 44.1055 19.0246C43.7563 19.0817 43.6865 19.3102 43.4071 19.4245C43.1976 19.4816 43.1976 19.4816 43.1976 19.4245C42.9182 19.5959 42.1499 19.9958 40.8927 20.3957C41.1023 20.3386 41.3817 20.2814 41.5912 20.2814C41.7309 20.2814 42.2198 20.2243 42.3595 20.3386C42.4293 20.3957 42.4991 20.6814 42.6388 20.6814C42.6388 20.6814 43.477 20.2243 43.2674 20.6814C43.1277 20.7956 42.3595 20.967 42.8484 21.7668C43.4769 22.0525 44.0357 22.3953 44.5246 22.9095C45.1532 23.7093 44.8738 24.6234 44.0357 25.0233C44.4548 23.9949 43.9659 23.0237 42.7087 22.8523C42.0801 22.7381 41.5213 22.7952 40.9626 22.6238C40.2642 22.3953 39.7753 21.9954 39.2165 21.7097C38.7276 21.4812 38.099 21.4241 37.6101 21.1955C37.6101 21.1955 35.5148 21.4241 33.7687 21.1955C33.8386 21.1955 33.9084 21.1955 33.9783 21.2527C33.2798 21.4812 32.5814 21.6526 31.9528 21.9382C31.4639 22.1668 31.0448 22.5095 30.4861 22.6809C29.9972 22.8523 29.4384 22.7952 28.8099 22.9095C27.6225 23.138 27.0638 23.9949 27.4828 25.0804C26.7146 24.6805 26.3653 23.8235 26.9241 23.0237C27.3431 22.4524 28.1114 22.1096 28.8099 21.7668V21.5954C28.8797 21.1955 28.8099 21.1955 28.74 21.0813C28.6702 20.967 28.5305 20.7956 28.1813 20.7385C28.1813 20.6814 28.1114 20.6242 28.1813 20.5671C28.3209 20.51 28.4606 20.6814 28.6003 20.6814C29.0194 20.7956 28.8797 20.2814 29.2988 20.2814C29.7877 20.2814 30.2067 20.3386 30.5559 20.4528C29.7877 20.1672 29.0194 19.8815 28.3209 19.4816C28.1813 19.4816 27.9717 19.4245 27.832 19.4245C27.832 19.2531 27.4828 19.0246 26.9241 19.0246C26.3653 19.0817 26.086 19.7101 25.2478 19.7673C24.8986 19.3102 24.6891 19.0817 24.0605 19.0246C23.9907 18.9674 23.9208 18.6247 23.9907 18.5104C23.9208 18.5675 24.7589 18.1676 25.0383 17.882C26.3653 16.6822 24.7589 15.0826 23.5716 14.6826C22.8732 14.4541 22.035 14.5684 21.2668 14.5112C21.7557 13.8257 22.1747 13.3686 21.9652 12.2832C22.1747 12.3403 23.2224 12.9116 23.2922 13.083C23.3621 13.2544 23.2922 13.4829 23.2922 13.6543C23.3621 14.1113 23.7811 14.6255 24.2002 14.854C24.5494 15.0254 25.178 15.0826 25.5272 14.854C25.178 14.7398 24.8986 14.4541 25.2478 14.2827C25.3177 14.3399 25.3875 14.397 25.5272 14.4541C25.5971 14.5112 25.8066 14.5684 26.0161 14.6255C26.0161 14.6255 26.4352 14.6255 26.5749 14.5112C26.6447 14.397 26.6447 14.2256 26.6447 14.2256V14.1113V14.0542V13.9971V13.9399C26.6447 13.8257 26.5749 13.7114 26.5749 13.5972V13.4258V13.3686V13.3115H26.6447C26.8542 13.3686 26.9939 13.3686 26.9939 13.3686C27.0638 13.3686 27.1336 13.3686 27.2035 13.3115C27.2733 13.3115 27.2733 13.2544 27.2733 13.2544C27.2733 13.1972 27.3431 13.1972 27.3431 13.1401V13.083V13.0258V12.9687V12.7973V12.7402V12.6831C27.3431 12.6259 27.3431 12.6259 27.2733 12.5688C27.2733 12.5117 27.2035 12.5117 27.2035 12.4545C27.2035 12.3974 26.9939 12.2832 26.9939 12.226L26.9241 12.1689V12.1118H27.2035L27.2733 12.0546V11.9975V11.8261V11.769V11.7118C27.2733 11.7118 27.2733 11.6547 27.2035 11.6547C27.1336 11.5976 27.1336 11.5405 27.0638 11.5405L26.9939 11.4833C26.9241 11.4262 26.7844 11.3691 26.6447 11.3119C26.505 11.2548 26.2955 11.2548 26.1558 11.2548C25.9463 11.2548 25.7367 11.2548 25.5971 11.3119C25.3177 11.3691 25.178 11.5405 25.0383 11.6547C24.9685 11.7118 24.8986 11.6547 24.9685 11.4262C24.9685 11.3119 24.1303 10.9691 23.9208 10.8549C23.1525 10.5121 22.5938 10.2836 21.8255 10.0551C21.1969 9.82653 20.5683 9.65514 20.0096 9.48375C19.1715 9.25523 18.2635 9.08383 17.4254 8.74105C16.9365 8.56966 16.4476 8.34114 15.9587 8.11261C15.3999 7.82696 14.9809 7.59844 15.0507 7.7127C15.1206 7.88409 15.1904 8.11261 15.3999 8.34114C15.6095 8.56966 16.2381 8.91244 16.5174 9.08383C17.2857 9.42662 18.4032 9.71227 19.5207 10.0551C20.5683 10.3407 21.616 10.6835 22.6636 11.0834C23.2224 11.3119 23.7811 11.5405 24.27 11.769C24.4796 11.8261 24.8288 12.1118 25.1082 12.0546C25.178 12.0546 25.3875 11.8261 25.5272 11.769C25.6669 11.7118 25.8066 11.5976 25.8764 11.5976C26.1558 11.4833 25.8066 11.769 26.086 12.2832C26.0161 12.3403 26.0161 12.3974 25.9463 12.4545C25.7367 12.6831 25.9463 13.083 26.086 13.3686C25.7367 13.4829 25.5272 13.5972 25.3875 13.8257C25.178 14.2256 25.3875 14.397 24.9685 14.1685C24.7589 14.0542 24.7589 13.8257 24.27 13.9399C24.0605 13.9971 23.9907 14.1685 23.9208 13.7685C23.9208 13.6543 23.9907 13.4258 24.0605 13.3115C23.2224 12.7973 22.2446 12.3403 21.5461 11.7118C21.2668 11.4262 21.2668 11.2548 20.4985 11.3691C21.7557 12.1689 22.035 12.6259 21.9652 13.3115C21.8954 13.5972 21.6858 13.8828 21.4065 14.0542C21.2668 14.1685 21.0572 14.397 20.8477 14.4541C20.2191 14.6826 19.4508 14.5684 19.1016 15.0254C18.473 15.8253 18.8921 17.1393 18.9619 18.1105C19.0318 18.6818 18.9619 19.2531 18.7524 19.7673C18.6826 19.9958 18.6127 20.1672 18.473 20.3386C18.054 20.9099 17.146 21.3098 16.0285 20.967C15.819 20.9099 15.7492 20.7956 15.4698 20.7385C15.1904 21.2527 15.0507 21.4241 14.6317 21.6526C14.3523 21.824 13.7935 21.7668 13.7935 21.8811C13.7237 22.1096 13.9332 22.281 13.9332 22.3953C14.0031 22.6238 14.0729 23.138 14.0031 23.3094C14.0729 23.3665 14.1428 23.4236 14.2126 23.3665C14.492 23.1951 14.911 22.8523 15.3999 22.9666C15.4698 22.9666 15.6095 23.0237 15.5396 23.0808C15.0507 23.4808 15.0507 23.595 15.1904 24.1092C14.9809 24.2806 14.8412 24.1092 14.5618 24.2806C14.3523 24.3948 14.2126 24.5662 14.1428 24.7376C14.1428 24.8519 13.9332 24.7948 13.9332 24.7948L13.7237 24.452C13.6538 24.3377 13.5142 24.2235 13.3745 24.2235C12.9554 24.1092 12.1871 24.0521 11.8379 24.1663C11.7681 24.1663 11.6284 23.7664 11.6284 23.4808C11.6284 23.3094 11.7681 23.1951 11.8379 23.0808C11.9078 23.0237 12.1871 22.6238 12.257 22.2239V21.7097C12.257 21.6526 12.0475 21.3669 12.1173 21.3098C12.4665 21.0813 12.5364 20.8527 12.676 20.51C12.8856 20.5671 13.0951 20.6242 13.2348 20.6242C13.9332 20.7956 14.8412 20.7385 14.911 20.1672C14.9809 19.7673 14.8412 19.4816 14.7015 19.2531C14.492 18.796 14.4221 18.1676 14.6317 17.6534C13.6538 17.8248 12.6062 17.482 12.6062 16.4537C12.6062 15.6539 13.3745 15.0826 13.7237 14.5684C14.1428 13.9971 14.7015 13.1972 14.9809 12.4545C15.1904 11.769 15.2602 10.5121 14.7015 9.71227C14.5618 9.48375 14.2824 9.42662 13.9332 9.31236C14.0729 9.59801 14.3523 9.82653 14.492 10.1122C14.8412 10.912 14.8412 11.8261 14.5618 12.6259C14.2126 13.54 13.5142 14.2256 12.9554 14.9683C12.676 15.3682 12.1871 15.8824 12.257 16.6251C12.3967 17.5392 12.9554 17.882 13.9332 18.1105C13.9332 18.3961 14.0729 18.6247 14.1428 18.8532C14.2824 19.1388 14.6317 19.7673 14.5618 20.11C14.5618 20.11 14.4221 20.3957 13.7935 20.3957C13.0951 20.3957 12.8157 20.0529 12.7459 20.0529C12.676 20.0529 12.3967 20.2243 12.3268 20.2243C12.0475 20.3386 12.257 20.4528 12.1871 20.6814C12.1871 20.7385 12.1173 20.967 11.9776 21.0241C11.7681 21.1384 11.5586 21.3098 11.6982 21.5383C11.8379 21.7097 11.9078 21.9954 11.8379 22.281C11.7681 22.6238 11.4189 22.8523 11.2792 23.0808C10.93 23.4808 11.2093 23.6521 11.0696 23.7093C10.7204 23.7093 10.1617 23.5379 9.81247 23.3665C9.67278 23.2522 9.39341 23.0808 9.46325 23.3665C9.60294 23.7093 9.74262 24.0521 9.88231 24.3377C10.3712 25.1375 11.8379 26.3944 14.7713 26.2802C15.3999 26.2802 16.5174 26.0516 17.0762 25.8231C17.2159 25.766 17.4254 26.4516 17.6349 26.3944C17.9143 25.2518 19.3112 25.0804 20.708 24.9662C20.8477 24.9662 20.9874 24.909 21.1271 24.909C21.616 24.8519 21.616 24.7376 22.1049 24.6805C22.4541 25.2518 22.8033 25.6517 23.3621 25.766C24.27 25.9945 23.9208 25.7089 23.851 25.5375C23.7113 25.1375 23.7113 24.6805 24.2002 24.3948C24.5494 24.1663 25.8764 23.8807 26.505 23.9949C26.3653 24.7948 26.7844 25.2518 27.3431 25.6517C27.4828 25.7089 27.6225 25.8802 27.832 25.8802H27.9717C27.9717 25.6517 27.832 25.4803 27.7622 25.1947C27.6225 24.3377 28.3908 24.1092 29.0892 23.9378C29.4384 23.8807 30.1369 23.8235 30.5559 23.8807C30.4861 24.5091 30.6956 25.0804 31.0448 25.4803C31.1147 25.2518 31.1147 25.0233 31.2544 24.8519C31.6036 24.3948 32.4417 23.8807 33.21 23.8235C33.9783 23.7664 34.6767 23.9378 35.3053 24.0521H35.7243C36.2831 24.0521 36.8418 23.9378 37.4006 23.8235C38.7276 23.6521 39.9848 24.1092 40.4737 24.8519C40.5435 24.9662 40.5435 25.0233 40.6134 25.1947L40.6832 25.4232C41.0324 24.9662 41.1023 24.5091 41.1023 23.8235C41.5213 23.7093 42.2896 23.8235 42.7087 23.8807C43.6865 24.1092 44.2452 24.7376 43.6865 25.6517C43.6865 25.6517 43.5468 25.8802 43.896 25.8231C44.7341 25.7089 45.3627 24.7376 45.223 23.9378C45.3627 23.9378 45.5723 23.8807 45.7119 23.8807C46.7596 23.9949 48.2263 24.2806 47.8771 25.3661L47.7374 25.8231C48.8549 25.8802 49.4136 25.0233 49.5533 24.6805C49.6232 24.5091 49.693 24.6805 50.1819 24.8519H50.3914C50.4613 24.8519 50.601 24.909 50.7407 24.909C52.2772 25.0804 53.8138 25.1375 54.0931 26.3944C54.3725 26.2802 54.4424 26.0516 54.6519 25.8231C55.9789 26.3373 58.3536 26.3944 59.7504 25.8802C60.5187 25.6517 61.2172 25.0804 61.7061 24.6234C61.9156 24.452 62.0553 24.1092 62.195 23.8807C61.9854 23.3665 62.2648 22.8523 62.1251 22.7381V22.7381ZM44.6643 11.4833C44.7341 11.4262 44.804 11.3691 44.9437 11.3691C45.3627 11.3119 45.2929 11.5405 45.2929 11.7118C45.0135 11.6547 44.3151 11.7118 44.6643 11.4833V11.4833ZM44.5246 13.0258C44.3151 12.7402 44.6643 12.3403 45.0135 12.2832H45.2929V12.4545C45.1532 12.7402 44.7341 12.9687 44.5246 13.0258V13.0258ZM45.3627 14.2827C44.9437 14.3399 45.3627 13.5972 45.5024 13.5972C46.2008 13.4829 45.8516 14.2827 45.3627 14.2827ZM46.7596 14.6826C46.7596 14.5112 46.8993 13.9971 47.1786 13.9971C47.2485 13.9971 47.3183 14.0542 47.3183 14.0542C47.5977 14.3399 47.039 14.5684 46.7596 14.6826V14.6826ZM26.8542 12.6259C26.9939 12.7402 27.0638 12.9687 26.9241 13.0258C26.8542 13.083 26.2256 12.7402 26.086 12.4545C26.0161 12.3403 26.1558 12.2832 26.2256 12.2832C26.5749 12.3403 26.7146 12.4545 26.8542 12.6259ZM26.2256 11.3691C26.7146 11.3119 26.8542 11.5976 26.8542 11.5976C26.8542 11.769 26.5749 11.5405 26.3653 11.6547C26.0161 11.8261 26.0161 11.4833 26.2256 11.3691V11.3691ZM25.6669 13.5972C26.0161 13.54 26.2955 14.2256 26.1558 14.2827C25.8066 14.4541 25.178 13.7114 25.6669 13.5972ZM24.2002 13.9399C24.4097 13.9399 24.4796 14.0542 24.5494 14.1685C24.6891 14.5112 24.7589 14.6826 24.5494 14.6255C24.4097 14.5684 24.1303 14.397 24.1303 14.2256C23.9907 14.1113 24.0605 13.9971 24.2002 13.9399ZM28.4606 21.4812C28.1813 21.3669 27.9717 21.3098 27.6924 21.2527C27.6924 21.1384 27.6924 21.1384 27.7622 21.0813C27.7622 21.0241 27.832 20.967 27.9019 20.967C28.3209 20.8527 28.3908 21.2527 28.4606 21.4812ZM27.6225 19.8815C27.6225 19.8244 27.832 19.7101 27.9019 19.7101C28.3908 19.653 28.6702 19.9958 28.6003 20.2814C28.3209 20.1672 28.0416 20.1101 27.7622 20.1672C27.7622 20.1101 27.6225 19.9958 27.6225 19.8815V19.8815ZM19.381 14.6826C19.6604 14.4541 19.8699 14.6826 21.1271 14.2256C20.708 14.5112 19.8699 14.854 19.8699 14.9112C20.1493 16.1109 18.1238 15.6539 19.381 14.6826ZM19.5905 15.9395C20.0794 15.8253 20.2191 15.5396 20.4985 15.3111C20.8477 15.0826 21.4065 14.9112 22.035 14.854C23.0129 14.7969 23.7113 15.1397 24.27 15.4253C25.5272 16.168 25.178 18.0533 23.5018 18.2819C23.5018 18.3961 23.5018 19.1388 23.7811 19.3102C23.9208 19.3102 24.2002 19.2531 24.6193 19.5387C25.1082 19.8815 24.8986 19.9958 25.1082 20.11C25.5971 20.4528 26.4352 19.7101 26.6447 19.5959C26.7844 19.5387 27.0638 19.4245 27.2733 19.4816L27.3431 19.5959C27.2733 19.653 27.2733 19.653 27.2035 19.7673C27.0638 19.9958 27.0638 20.2243 27.2733 20.3386C27.4828 20.51 27.6924 20.5671 27.6225 20.6814C27.6225 20.7385 27.4828 20.7956 27.3431 20.9099C27.1336 21.0241 27.2733 21.3669 27.1336 21.3669C25.5971 21.4812 25.178 20.51 23.9907 20.51C24.2002 20.7956 24.1303 20.8527 24.0605 21.0813C23.7113 21.0241 23.4319 21.0241 23.1525 21.1955C22.943 21.3098 22.943 21.4812 22.8732 21.6526C22.3144 21.5383 22.035 21.3669 21.8255 21.0241C20.9176 19.8244 22.2446 19.196 22.1747 17.9391C22.1747 17.9391 22.2446 17.3678 21.8954 17.3678C21.5461 17.3678 20.9176 17.482 20.3588 17.3678C20.0096 17.2535 19.1016 17.025 18.9619 16.5108C18.6127 15.4825 19.0318 16.0538 19.5905 15.9395V15.9395ZM23.7811 21.9382C23.5018 21.9382 23.2922 21.7668 23.2922 21.5954C23.2224 21.2527 23.851 21.1955 23.851 21.4241C23.851 21.5383 23.9208 21.5954 24.0605 21.7097C24.2002 21.8811 23.9907 21.9382 23.7811 21.9382V21.9382ZM14.1428 22.4524C14.0729 22.2239 13.9332 21.824 14.0729 21.7097C14.2824 21.6526 14.6317 21.5383 14.8412 21.4241C15.1206 21.2527 15.1904 21.1955 15.3301 20.9099C15.3301 20.8527 15.3999 20.7956 15.3999 20.7385C17.0063 21.4812 18.473 20.8527 19.0318 19.653V19.5959C19.0318 19.5387 19.1016 19.4816 19.1016 19.4245C19.3112 18.7389 19.1016 17.8248 19.0318 17.1964C19.381 17.2535 19.4508 17.4249 19.7302 17.5392C20.289 17.7677 21.0572 17.7677 21.7557 17.7677C21.8255 17.882 21.8255 17.9962 21.7557 18.1105V18.339C21.7557 18.4533 21.616 18.7389 21.616 18.7389C21.2668 19.5387 20.6382 20.3386 21.4065 21.1384C21.4763 21.1955 21.5461 21.3098 21.4065 21.3669C21.3366 21.4241 21.1969 21.4241 21.1271 21.4812C20.8477 21.5383 20.4985 21.6526 20.2191 21.7097C19.5905 21.824 18.9619 21.8811 18.1937 21.6526C17.9143 21.5954 17.8444 21.4241 17.4952 21.3098C17.4254 21.5954 17.6349 22.1668 17.4952 22.2239C17.146 22.3953 16.7968 22.3953 16.4476 22.4524C16.3079 22.4524 16.1682 22.5095 15.9587 22.5095C15.819 22.3381 15.6793 22.2239 15.3999 22.1096C15.0507 21.9382 14.5618 22.2239 14.1428 22.4524V22.4524ZM16.4476 23.7093L16.3777 23.7664C16.3079 23.7664 16.0984 23.4808 15.9587 23.4808C15.6793 23.4808 15.3999 23.4808 15.4698 23.1951C15.5396 23.138 15.5396 23.0808 15.6095 23.0808C16.0285 22.9095 16.3777 23.5379 16.4476 23.7093V23.7093ZM14.492 24.1663C14.8412 23.9949 15.4698 24.7376 14.9809 25.0233C14.8412 25.0804 14.8412 24.8519 14.7015 24.6805C14.492 24.5091 14.2824 24.3377 14.492 24.1663ZM11.9776 23.9378C12.1871 23.8807 12.5364 23.9378 12.5364 24.0521C12.257 24.2806 12.1871 24.3948 12.1173 24.7376C11.9776 24.7376 11.5586 24.1092 11.9776 23.9378V23.9378ZM15.6793 25.3089C14.8412 25.7089 13.1649 25.5375 12.5364 25.3661C10.8601 24.8519 9.95215 23.8235 9.88231 23.4808C9.88231 23.4236 10.4411 23.6521 10.7204 23.6521C11.2792 23.6521 11.349 23.9378 11.4189 23.9949C11.4887 24.1092 11.4189 24.3948 11.5585 24.5662C11.7681 24.8519 11.9776 25.0804 12.4665 25.0804C12.5364 24.909 12.3967 24.8519 12.676 24.5091C13.0253 24.1092 13.2348 24.5091 13.3046 24.6234C13.4443 24.6805 13.5142 24.7948 14.0031 24.8519C14.3523 24.8519 14.6317 24.9662 14.7713 25.4803C14.911 25.5375 15.6095 24.9662 15.3301 24.5091C15.1904 24.3377 15.1904 24.1663 15.3301 23.9949C15.3999 23.8807 15.819 23.8235 16.0285 24.1092C16.1682 24.3377 16.1682 24.3948 16.3777 24.2235C16.7968 23.7093 16.727 23.1951 16.3079 22.9095C16.0285 22.7952 16.5873 22.6809 17.0063 22.6238C17.2159 22.6238 17.9143 22.6809 18.3334 22.9095C18.5429 23.0237 19.1016 23.0808 18.8223 23.1951C18.473 23.3094 17.7048 23.7664 17.4952 23.9949C16.7968 24.7376 16.0984 25.0804 15.6793 25.3089V25.3089ZM21.4065 23.7093C21.1271 23.8235 20.8477 23.8807 20.4985 23.9378C20.289 23.9378 20.1493 23.9949 19.9397 23.9949C18.7524 24.1092 18.054 24.452 17.4254 25.5375C17.3555 25.6517 16.8666 24.8519 17.8444 23.9949C18.4032 23.4808 19.7302 23.1951 20.3588 22.9095H20.4287H20.289C19.0318 22.9666 17.9841 22.5667 17.7048 21.7097C18.1937 21.9954 18.7524 22.1096 19.5905 22.1668C19.8001 22.1668 20.0096 22.1668 20.2191 22.1096C20.5683 22.0525 20.9176 21.9382 21.2668 21.8811C22.035 21.7668 22.8033 21.824 23.1525 22.1096C23.3621 22.3381 23.0129 22.3953 22.8033 22.5095C22.3144 22.7952 22.035 23.4236 21.4065 23.7093V23.7093ZM23.2922 23.9378C23.0827 24.452 23.1525 24.6234 23.2922 24.8519C23.4319 25.0804 23.5018 25.2518 23.0827 25.0233C21.8954 24.452 22.035 23.2522 23.1525 22.5667C23.7811 22.1668 24.5494 22.1096 24.7589 21.9954C24.7589 21.9382 24.4097 21.7668 24.27 21.5954C24.1303 21.3669 24.2002 21.0813 24.5494 21.0813C24.9685 21.0241 25.2478 21.3098 25.4574 21.3669C25.8066 21.5383 27.0638 22.1096 27.5527 21.7097C27.832 21.4812 28.2511 21.6526 28.1114 21.7668C27.2733 21.9954 27.0638 22.4524 26.3653 22.6809C25.3875 23.0237 23.5716 23.0808 23.2922 23.9378V23.9378ZM40.5435 24.1663C39.6356 23.4808 39.007 22.8523 37.0514 22.9666C36.7021 22.9666 36.4926 23.0237 36.1434 23.138C35.9339 23.2522 35.7243 23.2522 35.5148 23.1951C35.3751 23.1951 35.1656 23.138 34.9561 23.0808C33.6989 22.7952 32.3719 23.138 31.9528 23.3665C31.6734 23.4808 31.1147 23.8235 31.0448 23.9949L30.8353 24.1663C30.7655 24.1092 30.7655 23.9949 30.8353 23.595C30.9052 23.0237 31.6036 22.5095 32.0226 22.2239C32.8608 21.7097 33.9084 21.5383 35.3053 21.4241H35.7243C36.0736 21.4241 36.4228 21.3669 36.7021 21.4241C38.3085 21.5954 39.9149 22.1668 40.5435 23.2522C40.6134 23.4808 40.6832 23.8235 40.5435 24.1663V24.1663ZM59.1219 23.9949C59.8203 23.9378 59.5409 24.5091 59.4012 24.7376L59.3314 24.7948V24.7376C59.3314 24.5662 59.3314 24.452 59.2615 24.3377C59.1917 24.2235 59.052 24.1663 58.9822 24.0521C58.9123 23.9949 59.052 23.9949 59.1219 23.9949V23.9949ZM56.7472 24.1663C57.3758 24.1092 56.4678 24.9662 56.4678 25.0233C56.1884 24.7376 56.1884 24.2235 56.7472 24.1663ZM55.9789 20.7385C56.1884 21.1384 56.4678 21.4241 56.9567 21.5954C57.0964 21.6526 57.2361 21.6526 57.3758 21.7097C57.3059 21.9382 57.3059 22.2239 57.2361 22.3953C56.7472 22.2239 56.1186 21.8811 55.6297 22.281L55.3503 22.5095C55.1408 22.4524 53.8836 22.2239 53.8836 22.1668C53.8138 21.9954 54.0233 21.5383 53.8836 21.3098C53.6042 21.4241 53.4645 21.5383 53.1852 21.6526C52.4867 21.8811 51.5089 21.824 50.7407 21.6526C50.3914 21.5954 50.1121 21.4812 49.9025 21.3098C50.1819 20.8527 50.601 20.5671 50.3914 19.8815C50.1819 19.196 49.4136 18.5104 49.693 17.7677C50.1819 17.6534 50.7407 17.7677 51.2994 17.6534C51.7185 17.5392 51.928 17.3106 52.2772 17.1964H52.3471C52.4169 17.1964 52.2772 17.1964 52.3471 17.1964C52.3471 17.1964 52.4169 17.2535 52.3471 17.2535C52.2772 17.482 52.2772 17.7106 52.2074 17.9391C52.1375 18.6247 52.2074 19.196 52.4867 19.7101V19.8244C53.0455 20.9099 54.2328 21.4241 55.9789 20.7385V20.7385ZM55.3503 23.595C55.0709 23.8807 55.0709 23.595 55.0709 23.6521C55.0709 23.3665 55.2805 23.138 55.6297 23.0808C55.7694 23.0808 55.9091 23.0808 55.9091 23.138C56.1186 23.6521 55.4202 23.4808 55.3503 23.595ZM51.02 14.5112C51.7185 14.6826 52.2074 14.6255 52.4169 15.1968C52.4867 15.1968 52.4169 15.3111 52.4169 15.3111C52.4169 15.4825 52.2074 15.6539 51.928 15.5967H51.8581C51.5788 15.5396 51.4391 15.1968 51.5089 14.9112C51.1597 14.6826 50.7407 14.5112 50.3914 14.2827C50.6708 14.397 50.8105 14.4541 51.02 14.5112V14.5112ZM43.8262 20.5671C43.8262 20.3386 44.5246 20.3386 44.2452 19.7673L44.1055 19.5387C44.3849 19.4816 44.5246 19.4816 44.7341 19.5959C44.9437 19.7101 46.131 20.6242 46.4104 19.9958C46.5501 19.653 46.8993 19.3102 47.7374 19.2531C47.8072 19.0817 47.9469 18.5104 47.9469 18.3961C47.039 18.2247 46.4104 17.5392 46.4104 16.7393C46.3405 15.711 47.6675 14.9112 49.0644 14.854C49.693 14.854 50.2518 15.0254 50.6708 15.1968C51.3692 15.4825 51.2296 15.9966 52.3471 15.8824C52.836 15.8253 52.4867 16.5679 52.3471 16.6822C52.0677 17.025 51.4391 17.1964 50.8105 17.3106C50.2518 17.4249 49.5533 17.1393 49.4136 17.3106C48.8549 18.0533 49.8327 19.3674 49.9025 20.0529C49.9724 20.6814 49.4835 21.2527 48.9946 21.4241C48.785 21.5383 48.5755 21.4812 48.5755 21.4812C48.4358 20.967 48.0168 20.9099 47.3882 20.967C47.3882 20.9099 47.3183 20.8527 47.3183 20.7385C47.3183 20.6242 47.458 20.4528 47.458 20.3386C46.4802 20.3957 45.3627 21.4812 44.3151 21.2527C44.1754 21.1955 44.2452 21.1384 44.1754 20.967C44.1754 20.7956 43.8262 20.7385 43.8262 20.5671V20.5671ZM47.6675 21.9382C46.8993 21.9954 47.6675 21.3098 47.6675 21.3098C48.2263 21.2527 48.2263 21.8811 47.6675 21.9382ZM42.7785 20.2814C42.7785 20.11 42.7785 19.9387 42.9182 19.8244C42.988 19.7673 43.1976 19.7101 43.3373 19.7101C43.477 19.7101 43.6865 19.7673 43.7563 19.8815C43.7563 19.9387 43.6865 20.0529 43.6865 20.11C43.3373 20.1672 43.0579 20.1672 42.7785 20.2814V20.2814ZM43.2674 20.967C43.477 20.967 43.6166 20.967 43.6865 21.0813C43.6865 21.1384 43.6865 21.1384 43.7563 21.1955C43.4769 21.2527 43.2674 21.3669 43.0579 21.4812C42.9182 21.3098 42.988 21.0241 43.2674 20.967V20.967ZM48.785 24.6234C48.6454 24.7948 48.366 25.0804 48.0866 25.0804C48.0168 25.0804 48.0866 24.9662 48.0866 24.8519C48.2263 24.5662 48.2263 24.2235 48.0866 23.9378C47.6676 23.0808 46.4802 23.0237 45.3627 22.7952C44.9437 22.7381 44.5246 22.5667 44.2452 22.3953C43.896 22.1668 43.6166 21.8811 43.1277 21.7097C43.1976 21.6526 43.3373 21.5954 43.4071 21.6526C43.6166 21.6526 43.6865 21.7668 43.8262 21.824C44.4548 21.9954 45.5024 21.5383 45.8516 21.3669C46.0612 21.2527 46.2008 21.0813 46.4802 21.0813C46.8294 21.0813 47.1088 21.2527 46.9691 21.5383C46.8993 21.7668 46.6199 21.824 46.4802 22.0525C46.7596 22.1668 47.1786 22.2239 47.458 22.281C48.5755 22.5667 49.5533 23.595 48.785 24.6234V24.6234ZM54.0233 25.4803C53.7439 25.0233 53.3249 24.5662 52.7661 24.2806C52.0677 23.9378 51.02 24.0521 50.1819 23.8235H50.1121C49.2739 23.5379 49.0644 22.7381 48.2961 22.4524C47.7374 22.2239 48.0168 22.1096 48.4358 21.9954C49.2739 21.7097 49.8327 21.8811 50.3914 22.0525H50.4613C50.6708 22.1096 50.9502 22.1668 51.2296 22.1668C51.7883 22.2239 52.4867 22.1668 52.9058 22.0525C53.0455 21.9954 53.3249 21.824 53.4645 21.824C53.6042 21.824 53.4645 21.9954 53.4645 21.9954C53.0455 22.6809 52.0677 23.0237 50.8105 22.9095V22.9666C52.2074 23.2522 54.6519 23.9949 54.0233 25.4803V25.4803ZM56.398 25.5375C55.2106 25.3661 54.163 24.2235 53.6042 23.7664C53.1852 23.4236 52.4169 23.1951 52.5566 23.0808C53.0455 22.9095 53.5344 22.6809 54.0931 22.6238C54.5122 22.5667 54.8614 22.7381 55.0709 22.8523C55.0011 22.9095 54.9313 22.9666 54.8614 23.0808C54.7916 23.2522 54.7217 23.5379 54.7217 23.7664C54.7916 23.9378 54.8614 24.0521 54.9313 24.1663C55.3503 24.6234 55.1408 23.8807 55.6297 23.8807C55.6995 23.8807 55.9091 23.8807 55.9091 23.9378C56.2583 24.2806 55.2805 24.909 56.398 25.4803C56.5377 25.3089 56.6075 25.0804 56.817 24.9662C57.0266 24.8519 57.2361 24.909 57.5155 24.8519C57.7948 24.7948 58.0044 24.6234 58.2139 24.452C58.2837 24.3948 58.4234 24.3377 58.5631 24.452C58.7726 24.5662 58.7726 24.9662 58.9123 25.1375C59.3314 25.0233 59.7504 24.909 59.8203 24.5662C59.8901 24.2235 59.8203 24.1663 60.0298 23.9378C60.3092 23.7093 61.0076 23.595 61.4267 23.5379C60.7981 24.7376 58.7726 25.8231 56.398 25.5375Z" fill="#8694A5"/>
<path d="M5.20315 32.6788C4.64441 32.7931 4.29519 32.8502 4.01582 32.9073C3.73644 32.9073 3.52691 32.9645 3.24754 32.9645C2.13005 32.9645 1.29192 32.7359 0.803021 32.2218C0.314118 31.7076 0.0347443 31.0792 0.0347443 30.3365C0.0347443 29.8223 0.174431 29.4224 0.383961 29.0225C0.593491 28.6226 0.942708 28.3369 1.43161 28.1084C1.92052 27.8799 2.47926 27.7656 3.24754 27.7656C3.87613 27.7656 4.57456 27.8227 5.20315 27.937V28.7368C4.64441 28.6226 4.22535 28.5083 4.01582 28.5083C3.80629 28.5083 3.59676 28.4512 3.31738 28.4512C2.61895 28.4512 2.13005 28.6226 1.78083 29.0225C1.50146 29.3653 1.29192 29.8223 1.29192 30.3936C1.29192 30.9649 1.50145 31.4219 1.85067 31.7647C2.19989 32.1075 2.75864 32.2789 3.38723 32.2789C3.52691 32.2789 3.73644 32.2789 3.87613 32.2218V30.6221H5.13331C5.20315 30.565 5.20315 32.6788 5.20315 32.6788V32.6788ZM9.9525 32.6788C9.39376 32.7931 8.83501 32.9073 8.3461 32.9073C7.8572 32.9073 7.43814 32.8502 7.08892 32.6788C6.66986 32.5074 6.39049 32.2789 6.2508 31.9361C6.04127 31.5933 5.97143 31.2506 5.97143 30.9078C5.97143 30.565 6.04127 30.2793 6.2508 29.9937C6.39049 29.708 6.66986 29.4795 6.94924 29.3081C7.22861 29.1367 7.64767 29.0796 8.13658 29.0796C8.69532 29.0796 9.18423 29.251 9.4636 29.5366C9.81282 29.8223 9.9525 30.3936 9.9525 31.1934H7.22861C7.22861 31.4219 7.29845 31.6505 7.43814 31.7647L7.8572 32.1075C8.06673 32.1646 8.27626 32.2218 8.62548 32.2218C9.04454 32.2218 9.4636 32.1646 9.9525 31.9932V32.6788V32.6788ZM7.15877 30.6221H8.76517C8.76517 30.2793 8.69532 30.0508 8.55564 29.9366C8.41595 29.8223 8.20642 29.708 7.99689 29.708C7.78736 29.708 7.57783 29.7652 7.43814 29.9366C7.29845 30.1079 7.22861 30.3365 7.15877 30.6221V30.6221ZM10.7906 32.7931V29.1939H11.9081V29.8794C12.0478 29.6509 12.2573 29.4795 12.5367 29.3081C12.7462 29.1367 13.0955 29.0796 13.4447 29.0796C13.6542 29.0796 13.8637 29.0796 14.0034 29.1367C14.1431 29.1939 14.2828 29.251 14.4225 29.3653C14.5622 29.4795 14.632 29.6509 14.632 29.8223C14.8415 29.5366 15.0511 29.3653 15.3304 29.251C15.54 29.1367 15.8193 29.0796 16.1686 29.0796C16.5178 29.0796 16.7972 29.1367 17.0765 29.3653C17.2861 29.5366 17.4257 29.8223 17.4257 30.2222V32.8502H16.3082V30.565C16.3082 30.2793 16.2384 30.1079 16.1686 30.0508C16.0987 29.9937 15.959 29.9366 15.8193 29.9366C15.6098 29.9366 15.4701 29.9937 15.2606 30.1079C15.0511 30.2222 14.9114 30.3936 14.7717 30.565V32.8502H13.6542V30.565C13.6542 30.2793 13.5844 30.1079 13.5145 30.0508C13.4447 29.9937 13.305 29.9366 13.1653 29.9366C13.0256 29.9366 12.8161 29.9937 12.6764 30.1079C12.5367 30.2222 12.3272 30.3936 12.1875 30.565V32.8502L10.7906 32.7931V32.7931ZM22.0354 32.6788C21.4767 32.7931 20.9179 32.9073 20.429 32.9073C19.9401 32.9073 19.521 32.8502 19.1718 32.6788C18.8226 32.5074 18.5432 32.2789 18.3337 31.9932C18.1242 31.6505 18.0543 31.3077 18.0543 30.9649C18.0543 30.6221 18.1242 30.3365 18.3337 30.0508C18.4734 29.7652 18.7528 29.5366 19.0321 29.3653C19.3115 29.1939 19.7306 29.1367 20.2195 29.1367C20.7782 29.1367 21.2671 29.3081 21.5465 29.5938C21.8957 29.8794 22.0354 30.4507 22.0354 31.2505H19.3115C19.3115 31.4791 19.3814 31.7076 19.521 31.8219L19.9401 32.1646C20.1496 32.2218 20.3592 32.2789 20.7084 32.2789C21.1274 32.2789 21.5465 32.2218 22.0354 32.0504V32.6788ZM19.2417 30.6221H20.8481C20.8481 30.2793 20.7782 30.0508 20.6385 29.9366C20.4989 29.8223 20.2893 29.708 20.0798 29.708C19.8703 29.708 19.6607 29.7652 19.521 29.9366C19.3814 30.1079 19.3115 30.3365 19.2417 30.6221ZM26.6451 32.6788C26.0863 32.7931 25.5276 32.9073 25.0387 32.9073C24.5498 32.9073 24.1307 32.8502 23.7815 32.6788C23.3624 32.5074 23.0831 32.2789 22.9434 31.9361C22.7338 31.5933 22.664 31.2506 22.664 30.9078C22.664 30.565 22.7338 30.2793 22.9434 29.9937C23.0831 29.708 23.3624 29.4795 23.6418 29.3081C23.991 29.1367 24.3402 29.0796 24.8291 29.0796C25.3879 29.0796 25.8768 29.251 26.1562 29.5366C26.5054 29.8223 26.6451 30.3936 26.6451 31.1934H23.9212C23.9212 31.4219 23.991 31.6505 24.1307 31.7647L24.5498 32.1075C24.7593 32.1646 24.9688 32.2218 25.318 32.2218C25.7371 32.2218 26.1562 32.1646 26.6451 31.9932V32.6788V32.6788ZM23.8513 30.6221H25.4577C25.4577 30.2793 25.3879 30.0508 25.2482 29.9366C25.1085 29.8223 24.899 29.708 24.6895 29.708C24.4799 29.708 24.2704 29.7652 24.1307 29.9366C23.991 30.1079 23.9212 30.3365 23.8513 30.6221V30.6221ZM27.553 32.7931V29.1939H28.7404V29.8794C28.9499 29.5938 29.2293 29.4224 29.4388 29.3081C29.7182 29.1939 29.9277 29.1367 30.2071 29.1367C30.5563 29.1367 30.8357 29.251 31.115 29.4224C31.3944 29.5938 31.4643 29.8794 31.4643 30.2793V32.8502H30.2769V30.5079C30.2769 30.3365 30.2769 30.1651 30.2071 30.1079C30.1372 30.0508 30.1372 29.9937 29.9976 29.9366C29.9277 29.8794 29.8579 29.8794 29.7182 29.8794C29.5785 29.8794 29.369 29.9366 29.2293 29.9937C29.0197 30.1079 28.8801 30.2793 28.6705 30.5079V32.7931H27.553V32.7931ZM34.9564 32.7359C34.6771 32.7931 34.4675 32.8502 34.258 32.8502C33.8389 32.8502 33.5596 32.7931 33.35 32.7359C33.1405 32.6788 33.0008 32.5074 32.8611 32.3932C32.7214 32.2218 32.7214 31.9932 32.7214 31.7076V29.8223H32.2325V29.1939H32.7214V28.5654L33.9088 28.4512V29.1939H34.8167V29.8223H33.9088V31.5933C33.9088 31.879 33.9786 32.0504 34.0485 32.1075C34.1882 32.2218 34.3278 32.2218 34.5374 32.2218C34.6072 32.2218 34.7469 32.2218 34.8866 32.1646C34.9564 32.1646 34.9564 32.7359 34.9564 32.7359V32.7359ZM39.2867 32.6788C38.728 32.7931 38.1692 32.9073 37.6803 32.9073C37.1914 32.9073 36.7724 32.8502 36.4231 32.6788C36.0739 32.5074 35.7946 32.2789 35.585 31.9932C35.3755 31.6505 35.3056 31.3077 35.3056 30.9649C35.3056 30.6221 35.3755 30.3365 35.585 30.0508C35.7247 29.7652 36.0041 29.5366 36.2835 29.3653C36.6327 29.1939 36.9819 29.1367 37.4708 29.1367C38.0295 29.1367 38.5184 29.3081 38.7978 29.5938C39.147 29.8794 39.2867 30.4507 39.2867 31.2505H36.5628C36.5628 31.4791 36.6327 31.7076 36.7724 31.8219C36.912 31.9361 37.0517 32.1075 37.1914 32.1646C37.4009 32.2218 37.6105 32.2789 37.9597 32.2789C38.3788 32.2789 38.7978 32.2218 39.2867 32.0504V32.6788V32.6788ZM36.5628 30.6221H38.1692C38.1692 30.2793 38.0994 30.0508 37.9597 29.9366C37.82 29.8223 37.6105 29.708 37.4009 29.708C37.1914 29.708 36.9819 29.7652 36.8422 29.9366C36.7025 30.1079 36.5628 30.3365 36.5628 30.6221V30.6221ZM42.4995 27.8799H43.7567V30.9078C43.7567 31.4219 43.8964 31.8219 44.1059 31.9932C44.3154 32.1646 44.5948 32.2789 45.0139 32.2789C45.3631 32.2789 45.6425 32.1646 45.852 31.9932C46.0615 31.8219 46.1314 31.4791 46.1314 30.9649V27.8799H47.2489V30.9078C47.2489 31.4791 47.179 31.879 46.9695 32.1075C46.76 32.336 46.5504 32.5645 46.2012 32.6788C45.852 32.7931 45.4329 32.9073 44.944 32.9073C44.4551 32.9073 44.0361 32.8502 43.6869 32.7359C43.3376 32.6217 43.0583 32.3932 42.8487 32.1646C42.6392 31.879 42.5694 31.4791 42.5694 30.9078C42.4995 30.9078 42.4995 27.8799 42.4995 27.8799V27.8799ZM50.6712 32.7359C50.3918 32.7931 50.1823 32.8502 49.9728 32.8502C49.5537 32.8502 49.2743 32.7931 49.0648 32.7359C48.8553 32.6788 48.7156 32.5074 48.5759 32.3932C48.4362 32.2218 48.4362 31.9932 48.4362 31.7076V29.8223H47.9473V29.1939H48.4362V28.5654L49.6235 28.4512V29.1939H50.5315V29.8223H49.6235V31.5933C49.6235 31.879 49.6934 32.0504 49.7632 32.1075C49.9029 32.2218 50.0426 32.2218 50.2521 32.2218C50.3918 32.2218 50.4617 32.2218 50.6013 32.1646L50.6712 32.7359V32.7359ZM51.649 32.7931V29.1939H52.8363V29.8794C52.976 29.6509 53.1855 29.4795 53.3951 29.3081C53.6046 29.1939 53.9538 29.0796 54.2332 29.0796H54.4427V29.9366C54.303 29.8794 54.1634 29.8794 53.9538 29.8794C53.7443 29.8794 53.5348 29.9366 53.3252 30.0508C53.1157 30.1651 52.976 30.2793 52.8363 30.5079V32.7931H51.649V32.7931ZM58.773 32.6788C58.2143 32.7931 57.6555 32.9073 57.1666 32.9073C56.6777 32.9073 56.2587 32.8502 55.9094 32.6788C55.5602 32.5074 55.2809 32.2789 55.0713 31.9932C54.8618 31.7076 54.7919 31.3077 54.7919 30.9649C54.7919 30.6221 54.8618 30.3365 55.0015 30.0508C55.1412 29.7652 55.4205 29.5366 55.6999 29.3653C56.0491 29.1939 56.3983 29.1367 56.8872 29.1367C57.446 29.1367 57.9349 29.3081 58.2143 29.5938C58.5635 29.8794 58.7032 30.4507 58.7032 31.2505H55.9793C55.9793 31.4791 56.0491 31.7076 56.1888 31.8219L56.6079 32.1646C56.8174 32.2218 57.0269 32.2789 57.3761 32.2789C57.7952 32.2789 58.2143 32.2218 58.7032 32.0504L58.773 32.6788V32.6788ZM55.9793 30.6221H57.5857C57.5857 30.2793 57.5158 30.0508 57.3761 29.9366C57.2365 29.8223 57.0269 29.708 56.8174 29.708C56.6079 29.708 56.3983 29.7652 56.2587 29.9366C56.119 30.1079 56.0491 30.3365 55.9793 30.6221ZM63.0335 32.6788C62.6144 32.7931 62.1255 32.8502 61.6366 32.8502C60.8683 32.8502 60.3096 32.6788 59.9604 32.2789C59.6111 31.9361 59.4016 31.4791 59.4016 30.9649C59.4016 30.3936 59.6111 29.9366 60.0302 29.5938C60.4493 29.251 61.008 29.0796 61.7763 29.0796C62.1255 29.0796 62.5446 29.1367 63.0335 29.1939V29.8794C62.5446 29.7652 62.1953 29.708 61.8461 29.708C61.4271 29.708 61.1477 29.8223 60.9382 30.1079C60.7286 30.3365 60.6588 30.6792 60.6588 30.9649C60.6588 31.1934 60.7286 31.4219 60.7985 31.6505C60.9382 31.879 61.0778 31.9932 61.2874 32.1075C61.4969 32.2218 61.7064 32.2218 61.916 32.2218C62.2652 32.2218 62.6144 32.1646 63.0335 32.0504V32.6788V32.6788ZM63.9414 32.7931V27.5942H65.1288V29.8794C65.3383 29.5938 65.5478 29.4224 65.8272 29.3081C66.0367 29.1939 66.3161 29.1367 66.5955 29.1367C66.9447 29.1367 67.2241 29.251 67.5034 29.4224C67.7828 29.5938 67.8527 29.8794 67.8527 30.2793V32.8502H66.6653V30.5079C66.6653 30.3365 66.6653 30.1651 66.5955 30.1079C66.5256 30.0508 66.5256 29.9937 66.3859 29.9366C66.3161 29.8794 66.2463 29.8794 66.1066 29.8794C65.9669 29.8794 65.7574 29.9366 65.6177 29.9937C65.4081 30.1079 65.2685 30.2793 65.0589 30.5079V32.7931H63.9414ZM71.275 32.7359C70.9956 32.7931 70.7861 32.8502 70.5765 32.8502C70.1575 32.8502 69.8781 32.7931 69.6686 32.7359C69.4591 32.6788 69.3194 32.5074 69.1797 32.3932C69.04 32.2218 69.04 31.9932 69.04 31.7076V29.8223H68.5511V29.1939H69.04V28.5654L70.2273 28.4512V29.1939H71.1353V29.8223H70.2273V31.5933C70.2273 31.879 70.2972 32.0504 70.367 32.1075C70.5067 32.2218 70.6464 32.2218 70.8559 32.2218C70.9258 32.2218 71.0655 32.2218 71.2051 32.1646L71.275 32.7359V32.7359Z" fill="#8694A5"/>
</svg>
