<svg width="35" height="33" viewBox="0 0 35 33" fill="none" xmlns="http://www.w3.org/2000/svg">
<path fill-rule="evenodd" clip-rule="evenodd" d="M31.9514 2.23101C30.4009 3.15128 28.7284 3.73152 26.9446 3.96382C25.1811 4.20418 23.4475 4.04685 21.7753 3.47468C20.2349 2.94403 18.8261 2.10679 17.5284 0.987497C16.1804 2.10679 14.8323 2.91092 13.4843 3.40022C11.8729 4.04702 10.0787 4.2294 8.10232 3.96399C6.22722 3.73186 4.55473 3.15986 3.1054 2.25605L0.591634 4.10468L0.571496 4.17931C1.57491 6.09449 1.88931 8.46553 1.51408 11.2679C1.46333 12.0887 1.20996 13.2991 0.723353 14.8992C0.277439 16.4495 0.0442066 17.6681 0.00372496 18.5471C-0.0470312 20.653 0.38902 22.3527 1.31126 23.6544C2.02082 24.7653 3.22685 25.7352 4.93982 26.5395C5.52773 26.8215 6.28784 27.1281 7.22035 27.4764L9.52103 28.3303C12.5212 29.3499 15.1564 30.7097 17.4369 32.4343C17.7715 32.1687 18.7139 31.5469 20.2651 30.5853C21.4307 29.8723 23.1736 29.1011 25.5152 28.2558C28.0489 27.3352 29.833 26.6058 30.8567 26.0752C32.7014 25.0969 33.9278 23.6294 34.5358 21.6895C35.0528 20.0227 35.0728 18.1906 34.6069 16.2174C33.8974 13.8795 33.4919 11.8399 33.3908 10.132C33.2587 7.80226 33.6337 5.80421 34.4953 4.14603L31.9514 2.23101V2.23101Z" fill="#8694A5"/>
<path fill-rule="evenodd" clip-rule="evenodd" d="M31.8309 3.35057C30.5032 4.03031 29.0436 4.48633 27.4626 4.7351C25.6582 5.01699 23.8645 4.92588 22.0806 4.43675C20.398 3.96409 18.8778 3.21812 17.5296 2.16505C16.5058 2.96935 15.3099 3.61598 13.9822 4.10511C12.3301 4.76015 10.5158 5.00875 8.51925 4.85949C6.59339 4.71039 4.86028 4.21286 3.27903 3.38385H3.19787L1.88026 4.34565L1.83978 4.42028C2.43776 5.7717 2.75195 7.51275 2.76202 9.65183C2.50865 12.2634 2.08308 14.303 1.51551 15.7788C0.653893 18.5478 0.805956 20.9108 1.99184 22.8758C2.64058 24.0362 3.79605 25.015 5.45826 25.819C6.07638 26.1173 6.82662 26.4407 7.73859 26.7641L10.0395 27.5435C12.3605 28.3312 14.8336 29.5665 17.4384 31.2742C19.6581 29.8899 21.5332 28.8701 23.1044 28.2235C23.6514 27.9828 24.5736 27.6431 25.8608 27.2119C27.1077 26.7972 28.04 26.4575 28.6586 26.1837C30.7868 25.2799 32.2361 24.1357 33.0269 22.7349C33.9292 21.2589 34.1523 19.2027 33.6754 16.558C32.8446 13.6315 32.3783 11.3265 32.2567 9.61871C32.3379 7.28079 32.672 5.53957 33.2601 4.4038L31.8309 3.35057V3.35057Z" fill="white"/>
<path fill-rule="evenodd" clip-rule="evenodd" d="M32.5897 4.56076V4.46966L31.799 3.90589C30.9071 4.33704 29.9444 4.69355 28.9205 4.95056C26.9847 5.4728 24.9576 5.52256 22.8698 5.12469C20.8225 4.7349 19.0384 3.96388 17.5281 2.81971C16.8466 3.31671 16.1025 3.75311 15.3084 4.12155C13.5652 5.00855 11.5582 5.43129 9.25729 5.37346C7.04786 5.29883 5.05111 4.81793 3.26724 3.92253L2.43624 4.54429C3.01408 5.66358 3.32807 7.28025 3.35848 9.36957C3.29766 11.5335 2.88215 13.6807 2.11198 15.7949C1.62538 17.5359 1.50373 19.1028 1.71661 20.4958C2.02053 22.2452 2.86202 23.6047 4.27086 24.5667C5.48716 25.3211 7.14937 26.0506 9.25749 26.7554C12.0146 27.5262 14.7511 28.8447 17.4572 30.6933L19.8086 29.2177C20.8424 28.5709 22.2917 27.9078 24.1668 27.2447L28.6977 25.5779C30.1571 25.0392 31.3126 24.2016 32.1641 23.0494C32.9748 21.9385 33.3601 20.7198 33.3297 19.3849C33.4108 18.3402 33.2281 17.0386 32.7822 15.4799C32.2453 13.5232 31.941 12.2466 31.8701 11.6579C31.4646 8.82228 31.7079 6.45107 32.5897 4.56076V4.56076Z" fill="#8694A5"/>
<path fill-rule="evenodd" clip-rule="evenodd" d="M29.2254 7.66156C29.0127 7.48742 28.7491 7.40455 28.3942 7.40455L24.786 8.06782L24.5933 11.5333L26.3163 11.2514L26.3975 10.1072L27.6035 11.0193L29.4991 10.6959L28.1004 9.61809C28.6474 9.51858 29.0633 9.34444 29.3265 9.08744C29.6413 8.60671 29.6107 8.12581 29.2254 7.66156V7.66156Z" fill="white"/>
<path fill-rule="evenodd" clip-rule="evenodd" d="M27.6132 8.64796L27.0452 8.66458L26.4877 8.77221L26.417 9.52577L27.613 9.22773C27.7852 9.15318 27.8563 9.04556 27.8563 8.90469C27.8565 8.75559 27.7854 8.67281 27.6132 8.64796Z" fill="#8694A5"/>
<path fill-rule="evenodd" clip-rule="evenodd" d="M19.8493 10.0576L19.8898 9.04609C18.3491 9.02122 17.1835 9.18695 16.4133 9.51035C16.018 9.68449 15.7445 9.87527 15.6127 10.0576C15.4099 10.4555 15.3189 10.9282 15.329 11.4422C15.3694 11.9396 15.481 12.3458 15.704 12.6692L16.1803 13.0091L16.8492 13.0257C17.8121 12.9345 18.765 12.6941 19.7378 12.3127L19.8288 10.7956L18.2173 11.0361L18.1972 11.5832C18.1867 11.8071 18.116 11.9315 18.0246 11.9562L17.6296 12.0308C17.3761 11.9562 17.224 11.7407 17.1833 11.3593C17.1732 11.0361 17.2037 10.8122 17.2848 10.6629C17.3761 10.5469 17.5382 10.439 17.7815 10.3562C18.3902 10.1903 19.0792 10.0992 19.8493 10.0576V10.0576ZM8.90286 10.8619L7.18988 11.1603L7.0481 14.5844L10.474 14.0042L10.5347 12.9429L8.79148 13.2414L8.90286 10.8619V10.8619ZM16.302 15.2974L15.9167 14.974L15.2883 14.8996L11.842 15.5296L11.6698 18.9702L15.0045 18.4397C15.5416 18.2988 15.9066 18.1 16.1092 17.851C16.6363 16.9555 16.7074 16.1016 16.302 15.2974V15.2974Z" fill="white"/>
<path fill-rule="evenodd" clip-rule="evenodd" d="M14.7116 16.3089C14.6204 16.168 14.4482 16.11 14.1946 16.1514L13.5257 16.2923L13.4446 17.8001L14.3567 17.6429C14.7926 17.378 14.9142 16.9385 14.7116 16.3089V16.3089Z" fill="#8694A5"/>
<path fill-rule="evenodd" clip-rule="evenodd" d="M23.6919 21.1008L23.6212 21.8885C25.9727 21.7727 27.3916 21.4659 27.8983 20.9768C28.3237 20.5872 28.3644 20.1312 28.03 19.6003C27.939 19.4346 27.6552 19.3517 27.1988 19.3186L25.6685 19.5094C25.4959 19.5094 25.415 19.4512 25.4454 19.3437C25.4859 19.2275 25.5874 19.1362 25.7697 19.0949C26.1954 18.9455 26.9151 18.8379 27.9694 18.7715L28.0502 17.7682L26.1451 17.9258C25.0907 18.0753 24.3916 18.2992 24.0164 18.5807C23.4895 18.9623 23.3779 19.4763 23.6619 20.1313C23.7832 20.3717 24.0468 20.5125 24.4422 20.5125L25.993 20.3468C26.1451 20.3636 26.2162 20.4298 26.1858 20.5376C26.1757 20.6371 26.0438 20.7201 25.8005 20.7783L23.6919 21.1008ZM23.3171 22.0129L23.3882 20.96L21.6448 21.242L21.7969 18.8626L20.1143 19.1609L19.9117 22.6264L23.3171 22.0129ZM19.638 19.2687L17.9351 19.5756L17.7629 23.0162L19.4553 22.7345L19.638 19.2687ZM15.087 21.1008L17.4586 20.7112L17.5297 19.6334L13.4449 20.3547L13.2624 23.8205L17.3776 23.1075L17.4384 22.2781L14.9653 22.6846L15.0058 22.2536L17.4181 21.8472L17.4586 21.1508L15.0362 21.5569L15.087 21.1008ZM12.8774 20.4791L11.1847 20.7778L11.0935 22.046L9.88726 22.2203L9.94808 20.9269L8.2758 21.2252L8.08325 24.6909L9.77588 24.4091L9.86712 23.1988L11.053 22.9997L11.0123 24.2432L12.6848 23.9449L12.8774 20.4791ZM25.7092 13.1004L23.7936 13.2745C22.7699 13.4238 22.0706 13.6475 21.6853 13.9294C21.1584 14.3108 21.0368 14.8164 21.3405 15.4632C21.4626 15.7118 21.7258 15.8612 22.1212 15.8695L23.6414 15.6871C23.8136 15.7118 23.8945 15.7782 23.8645 15.8861C23.8241 15.9938 23.7024 16.0685 23.4692 16.1347L21.3608 16.4332L21.2998 17.2291C23.6212 17.113 25.05 16.8144 25.5769 16.3419C25.9827 15.9439 26.0232 15.4714 25.6885 14.9161C25.5974 14.7666 25.3336 14.6839 24.8879 14.6755L23.337 14.8497C23.1648 14.8497 23.0937 14.7833 23.1244 14.6755C23.1548 14.5676 23.2561 14.4847 23.4285 14.4434C23.8033 14.3024 24.5431 14.1946 25.648 14.1282L25.7092 13.1004ZM18.5027 15.8115L18.5432 15.3721L20.9351 14.9741L20.9961 13.8798L16.891 14.6175L16.7188 18.0832L20.8239 17.3787L20.8845 16.5411L18.4316 16.9472L18.4825 16.5163L20.8845 16.11L20.9351 15.4218L18.5027 15.8115ZM12.6036 11.6745L12.6443 11.2185L15.0362 10.8287L15.087 9.74266L10.9922 10.4722L10.8198 13.946L14.9249 13.2248L15.0058 12.3791L12.5327 12.7936L12.5531 12.3625L14.9857 11.9562L15.0362 11.2847L12.6036 11.6745ZM24.1685 11.6412L24.2295 10.8122L21.7564 11.2185L21.7969 10.7709L24.2295 10.3727L24.2494 9.68467L21.8374 10.0992L21.8879 9.61828L24.2494 9.24512L24.3105 8.14247L20.236 8.89701L20.0634 12.346L24.1685 11.6412Z" fill="white"/>
</svg>
